G04*
G04 #@! TF.GenerationSoftware,Altium Limited,Altium Designer,23.1.1 (15)*
G04*
G04 Layer_Physical_Order=1*
G04 Layer_Color=255*
%FSLAX44Y44*%
%MOMM*%
G71*
G04*
G04 #@! TF.SameCoordinates,885BC21F-CE97-4633-90EB-74F7ABE7E9BF*
G04*
G04*
G04 #@! TF.FilePolarity,Positive*
G04*
G01*
G75*
%ADD10C,0.2000*%
%ADD19C,0.2500*%
%ADD20C,0.3500*%
%ADD21C,2.5000*%
%ADD22C,0.8890*%
%ADD23C,1.8000*%
%ADD24R,1.8000X1.8000*%
%ADD25C,5.0000*%
%ADD26R,1.8000X1.8000*%
%ADD27C,1.4000*%
%ADD28C,0.8000*%
G36*
X1140542Y52D02*
X542D01*
Y680052D01*
X1140542D01*
Y52D01*
D02*
G37*
%LPC*%
G36*
X522702Y642756D02*
X519542D01*
X516490Y641938D01*
X513754Y640358D01*
X511519Y638124D01*
X509940Y635388D01*
X509122Y632336D01*
Y629176D01*
X509940Y626124D01*
X511519Y623388D01*
X513754Y621154D01*
X516490Y619574D01*
X519542Y618756D01*
X522702D01*
X525754Y619574D01*
X528490Y621154D01*
X530724Y623388D01*
X532304Y626124D01*
X533122Y629176D01*
Y632336D01*
X532304Y635388D01*
X530724Y638124D01*
X528490Y640358D01*
X525754Y641938D01*
X522702Y642756D01*
D02*
G37*
G36*
X497302D02*
X494142D01*
X491090Y641938D01*
X488354Y640358D01*
X486119Y638124D01*
X484540Y635388D01*
X483722Y632336D01*
Y629176D01*
X484540Y626124D01*
X486119Y623388D01*
X488354Y621154D01*
X491090Y619574D01*
X494142Y618756D01*
X497302D01*
X500354Y619574D01*
X503090Y621154D01*
X505324Y623388D01*
X506904Y626124D01*
X507722Y629176D01*
Y632336D01*
X506904Y635388D01*
X505324Y638124D01*
X503090Y640358D01*
X500354Y641938D01*
X497302Y642756D01*
D02*
G37*
G36*
X1092204Y658000D02*
X1087796D01*
X1083443Y657310D01*
X1079252Y655949D01*
X1075325Y653948D01*
X1071759Y651357D01*
X1068643Y648241D01*
X1066052Y644675D01*
X1064051Y640748D01*
X1062690Y636557D01*
X1062000Y632204D01*
Y627796D01*
X1062690Y623443D01*
X1064051Y619252D01*
X1066052Y615325D01*
X1068643Y611759D01*
X1071759Y608643D01*
X1075325Y606052D01*
X1079252Y604051D01*
X1083443Y602690D01*
X1087796Y602000D01*
X1092204D01*
X1096557Y602690D01*
X1100748Y604051D01*
X1104675Y606052D01*
X1108241Y608643D01*
X1111357Y611759D01*
X1113948Y615325D01*
X1115949Y619252D01*
X1117310Y623443D01*
X1118000Y627796D01*
Y632204D01*
X1117310Y636557D01*
X1115949Y640748D01*
X1113948Y644675D01*
X1111357Y648241D01*
X1108241Y651357D01*
X1104675Y653948D01*
X1100748Y655949D01*
X1096557Y657310D01*
X1092204Y658000D01*
D02*
G37*
G36*
X52204D02*
X47796D01*
X43443Y657310D01*
X39252Y655949D01*
X35325Y653948D01*
X31759Y651357D01*
X28643Y648241D01*
X26052Y644675D01*
X24051Y640748D01*
X22689Y636557D01*
X22000Y632204D01*
Y627796D01*
X22689Y623443D01*
X24051Y619252D01*
X26052Y615325D01*
X28643Y611759D01*
X31759Y608643D01*
X35325Y606052D01*
X39252Y604051D01*
X43443Y602690D01*
X47796Y602000D01*
X52204D01*
X56557Y602690D01*
X60748Y604051D01*
X64675Y606052D01*
X68241Y608643D01*
X71357Y611759D01*
X73948Y615325D01*
X75949Y619252D01*
X77311Y623443D01*
X78000Y627796D01*
Y632204D01*
X77311Y636557D01*
X75949Y640748D01*
X73948Y644675D01*
X71357Y648241D01*
X68241Y651357D01*
X64675Y653948D01*
X60748Y655949D01*
X56557Y657310D01*
X52204Y658000D01*
D02*
G37*
G36*
X522702Y617356D02*
X519542D01*
X516490Y616538D01*
X513754Y614958D01*
X511519Y612724D01*
X509940Y609988D01*
X509122Y606936D01*
Y603776D01*
X509940Y600724D01*
X510226Y600228D01*
X506973Y596975D01*
X505988Y597086D01*
X505497Y598287D01*
X506904Y600724D01*
X507722Y603776D01*
Y606936D01*
X506904Y609988D01*
X505324Y612724D01*
X503090Y614958D01*
X500354Y616538D01*
X497302Y617356D01*
X494142D01*
X491090Y616538D01*
X488354Y614958D01*
X486119Y612724D01*
X484540Y609988D01*
X483722Y606936D01*
Y603776D01*
X484540Y600724D01*
X486049Y598110D01*
X485786Y597183D01*
X485644Y596839D01*
X481107D01*
X479546Y596529D01*
X478223Y595645D01*
X478223Y595645D01*
X416014Y533436D01*
X415130Y532113D01*
X414819Y530552D01*
X414819Y530552D01*
Y494473D01*
X405613Y485266D01*
X405117Y485553D01*
X402065Y486370D01*
X398905D01*
X395853Y485553D01*
X393116Y483973D01*
X390882Y481739D01*
X389302Y479002D01*
X388485Y475950D01*
Y472790D01*
X389302Y469739D01*
X390882Y467002D01*
X393116Y464768D01*
X395853Y463188D01*
X398905Y462370D01*
X402065D01*
X405117Y463188D01*
X407853Y464768D01*
X410087Y467002D01*
X411667Y469739D01*
X412485Y472790D01*
Y475950D01*
X411667Y479002D01*
X411380Y479498D01*
X419761Y487879D01*
X420934Y487393D01*
Y475188D01*
X405613Y459866D01*
X405117Y460153D01*
X402065Y460970D01*
X398905D01*
X395853Y460153D01*
X393116Y458573D01*
X390882Y456339D01*
X389302Y453602D01*
X388485Y450550D01*
Y447391D01*
X389302Y444339D01*
X390882Y441602D01*
X393116Y439368D01*
X395853Y437788D01*
X398905Y436970D01*
X402065D01*
X405117Y437788D01*
X407853Y439368D01*
X410087Y441602D01*
X411667Y444339D01*
X412485Y447391D01*
Y450550D01*
X411667Y453602D01*
X411380Y454098D01*
X425585Y468303D01*
X426758Y467817D01*
Y455611D01*
X405613Y434466D01*
X405117Y434753D01*
X402065Y435570D01*
X398905D01*
X395853Y434753D01*
X393116Y433173D01*
X390882Y430938D01*
X389302Y428202D01*
X388485Y425150D01*
Y421991D01*
X389302Y418939D01*
X390882Y416202D01*
X393116Y413968D01*
X395853Y412388D01*
X398905Y411570D01*
X402065D01*
X405117Y412388D01*
X407853Y413968D01*
X410087Y416202D01*
X411667Y418939D01*
X412485Y421991D01*
Y425150D01*
X411667Y428202D01*
X411380Y428698D01*
X433277Y450595D01*
X434547Y450069D01*
Y438001D01*
X405613Y409066D01*
X405117Y409353D01*
X402065Y410170D01*
X398905D01*
X395853Y409353D01*
X393116Y407773D01*
X390882Y405538D01*
X389302Y402802D01*
X388485Y399750D01*
Y396590D01*
X389302Y393539D01*
X390882Y390802D01*
X393116Y388568D01*
X395853Y386988D01*
X398905Y386170D01*
X402065D01*
X405117Y386988D01*
X407853Y388568D01*
X410087Y390802D01*
X411667Y393539D01*
X412485Y396590D01*
Y399750D01*
X411667Y402802D01*
X411380Y403298D01*
X441510Y433428D01*
X441510Y433428D01*
X442394Y434751D01*
X442704Y436311D01*
X442704Y436311D01*
Y472403D01*
X483879Y513578D01*
X486777D01*
X487303Y512308D01*
X486119Y511124D01*
X484540Y508388D01*
X483722Y505336D01*
Y502176D01*
X484540Y499124D01*
X486119Y496388D01*
X488354Y494154D01*
X491090Y492574D01*
X494142Y491756D01*
X497302D01*
X500354Y492574D01*
X503090Y494154D01*
X505324Y496388D01*
X506904Y499124D01*
X507722Y502176D01*
Y505336D01*
X506904Y508388D01*
X505324Y511124D01*
X504141Y512308D01*
X504667Y513578D01*
X509622D01*
X509622Y513578D01*
X511183Y513888D01*
X512506Y514772D01*
X515994Y518260D01*
X516490Y517974D01*
X519542Y517156D01*
X522702D01*
X525754Y517974D01*
X528490Y519554D01*
X530724Y521788D01*
X532304Y524524D01*
X533122Y527576D01*
Y530736D01*
X532304Y533788D01*
X530724Y536524D01*
X528490Y538758D01*
X525754Y540338D01*
X522702Y541156D01*
X519542D01*
X516490Y540338D01*
X513754Y538758D01*
X511519Y536524D01*
X509940Y533788D01*
X509122Y530736D01*
Y527576D01*
X509940Y524524D01*
X510226Y524028D01*
X507942Y521744D01*
X506703Y521833D01*
X506026Y523004D01*
X506904Y524524D01*
X507722Y527576D01*
Y530736D01*
X506904Y533788D01*
X505427Y536346D01*
X505829Y537616D01*
X508260D01*
X508260Y537616D01*
X509821Y537926D01*
X511144Y538810D01*
X515994Y543660D01*
X516490Y543374D01*
X519542Y542556D01*
X522702D01*
X525754Y543374D01*
X528490Y544954D01*
X530724Y547188D01*
X532304Y549924D01*
X533122Y552976D01*
Y556136D01*
X532304Y559188D01*
X530724Y561924D01*
X528490Y564158D01*
X525754Y565738D01*
X522702Y566556D01*
X519542D01*
X516490Y565738D01*
X513754Y564158D01*
X511519Y561924D01*
X509940Y559188D01*
X509122Y556136D01*
Y552976D01*
X509940Y549924D01*
X510226Y549428D01*
X506741Y545943D01*
X505950Y546035D01*
X505561Y546753D01*
X505391Y547303D01*
X506904Y549924D01*
X507722Y552976D01*
Y556136D01*
X506904Y559188D01*
X505324Y561924D01*
X505022Y562226D01*
X505508Y563399D01*
X508643D01*
X508643Y563399D01*
X510204Y563710D01*
X511527Y564594D01*
X515994Y569060D01*
X516490Y568774D01*
X519542Y567956D01*
X522702D01*
X525754Y568774D01*
X528490Y570354D01*
X530724Y572588D01*
X532304Y575324D01*
X533122Y578376D01*
Y581536D01*
X532304Y584588D01*
X530724Y587324D01*
X528490Y589558D01*
X525754Y591138D01*
X522702Y591956D01*
X519542D01*
X516490Y591138D01*
X513754Y589558D01*
X511519Y587324D01*
X509940Y584588D01*
X509122Y581536D01*
Y578376D01*
X509940Y575324D01*
X510226Y574828D01*
X507090Y571691D01*
X506071Y571815D01*
X505560Y572997D01*
X506904Y575324D01*
X507722Y578376D01*
Y581536D01*
X506904Y584588D01*
X505324Y587324D01*
X505139Y587509D01*
X505625Y588683D01*
X508527D01*
X508527Y588683D01*
X510088Y588993D01*
X511411Y589877D01*
X515994Y594460D01*
X516490Y594174D01*
X519542Y593356D01*
X522702D01*
X525754Y594174D01*
X528490Y595754D01*
X530724Y597988D01*
X532304Y600724D01*
X533122Y603776D01*
Y606936D01*
X532304Y609988D01*
X530724Y612724D01*
X528490Y614958D01*
X525754Y616538D01*
X522702Y617356D01*
D02*
G37*
G36*
X620338Y602727D02*
X617705D01*
X615161Y602045D01*
X612881Y600728D01*
X611019Y598867D01*
X609703Y596586D01*
X609656Y596413D01*
X608386D01*
X608340Y596586D01*
X607023Y598867D01*
X605161Y600728D01*
X602881Y602045D01*
X600338Y602727D01*
X597705D01*
X595161Y602045D01*
X592881Y600728D01*
X591019Y598867D01*
X589703Y596586D01*
X589021Y594043D01*
Y591410D01*
X589703Y588867D01*
X591019Y586586D01*
X592881Y584725D01*
X595161Y583408D01*
X595335Y583362D01*
Y582092D01*
X595161Y582045D01*
X592881Y580729D01*
X591019Y578867D01*
X589703Y576586D01*
X589021Y574043D01*
Y571410D01*
X589703Y568867D01*
X591019Y566586D01*
X592881Y564725D01*
X595161Y563408D01*
X595335Y563362D01*
Y562092D01*
X595161Y562045D01*
X592881Y560729D01*
X591019Y558867D01*
X589703Y556586D01*
X589021Y554043D01*
Y551410D01*
X589703Y548867D01*
X591019Y546586D01*
X592881Y544725D01*
X595161Y543408D01*
X595335Y543362D01*
Y542092D01*
X595161Y542045D01*
X592881Y540729D01*
X591019Y538867D01*
X589703Y536586D01*
X589021Y534043D01*
Y531410D01*
X589703Y528867D01*
X591019Y526587D01*
X592881Y524725D01*
X595161Y523408D01*
X595335Y523362D01*
Y522092D01*
X595161Y522045D01*
X592881Y520729D01*
X591019Y518867D01*
X589703Y516586D01*
X589021Y514043D01*
Y511410D01*
X589703Y508867D01*
X591019Y506587D01*
X592881Y504725D01*
X595161Y503408D01*
X595335Y503362D01*
Y502092D01*
X595161Y502045D01*
X592881Y500729D01*
X591019Y498867D01*
X589703Y496587D01*
X589021Y494043D01*
Y491410D01*
X589703Y488867D01*
X591019Y486587D01*
X592881Y484725D01*
X595161Y483408D01*
X595335Y483362D01*
Y482092D01*
X595161Y482045D01*
X592881Y480729D01*
X591019Y478867D01*
X589703Y476587D01*
X589021Y474043D01*
Y471410D01*
X589703Y468867D01*
X591019Y466587D01*
X592881Y464725D01*
X595161Y463408D01*
X595335Y463362D01*
Y462092D01*
X595161Y462045D01*
X592881Y460729D01*
X591019Y458867D01*
X589703Y456587D01*
X589021Y454043D01*
Y451410D01*
X589703Y448867D01*
X591019Y446587D01*
X592881Y444725D01*
X595161Y443408D01*
X595335Y443362D01*
Y442092D01*
X595161Y442045D01*
X592881Y440729D01*
X591019Y438867D01*
X589703Y436587D01*
X589021Y434043D01*
Y431410D01*
X589703Y428867D01*
X591019Y426587D01*
X592881Y424725D01*
X595161Y423408D01*
X595335Y423362D01*
Y422092D01*
X595161Y422045D01*
X592881Y420729D01*
X591019Y418867D01*
X589703Y416587D01*
X589021Y414043D01*
Y411410D01*
X589703Y408867D01*
X591019Y406587D01*
X592881Y404725D01*
X595161Y403408D01*
X597705Y402727D01*
X600338D01*
X602881Y403408D01*
X605161Y404725D01*
X607023Y406587D01*
X608340Y408867D01*
X608386Y409040D01*
X609656D01*
X609703Y408867D01*
X611019Y406587D01*
X612881Y404725D01*
X615161Y403408D01*
X617705Y402727D01*
X620338D01*
X622881Y403408D01*
X625161Y404725D01*
X627023Y406587D01*
X628340Y408867D01*
X629021Y411410D01*
Y414043D01*
X628340Y416587D01*
X627023Y418867D01*
X625161Y420729D01*
X622881Y422045D01*
X622707Y422092D01*
Y423362D01*
X622881Y423408D01*
X625161Y424725D01*
X627023Y426587D01*
X628340Y428867D01*
X629021Y431410D01*
Y434043D01*
X628340Y436587D01*
X627742Y437622D01*
X628377Y438722D01*
X639393D01*
X652484Y425631D01*
Y372507D01*
X652484Y372507D01*
X652794Y370946D01*
X653678Y369623D01*
X694927Y328374D01*
Y309590D01*
X694707Y309463D01*
X693404Y308160D01*
X692482Y306564D01*
X692005Y304783D01*
Y302940D01*
X692482Y301160D01*
X692915Y300411D01*
X691985Y299482D01*
X691858Y299555D01*
X690078Y300032D01*
X688235D01*
X686454Y299555D01*
X685458Y300446D01*
X685451Y300467D01*
X685433Y300683D01*
X686321Y302222D01*
X686798Y304002D01*
Y305845D01*
X686321Y307625D01*
X685399Y309222D01*
X684096Y310525D01*
X682500Y311446D01*
X680719Y311924D01*
X678876D01*
X677096Y311446D01*
X675500Y310525D01*
X674196Y309222D01*
X673275Y307625D01*
X672798Y305845D01*
Y304002D01*
X673261Y302273D01*
X673167Y302125D01*
X672307Y301357D01*
X671776Y301664D01*
X669995Y302141D01*
X668152D01*
X666372Y301664D01*
X664776Y300743D01*
X663472Y299440D01*
X662551Y297843D01*
X662074Y296063D01*
Y294220D01*
X662551Y292439D01*
X663472Y290843D01*
X664231Y290085D01*
Y260994D01*
X662961Y260562D01*
X661586Y261355D01*
X659805Y261833D01*
X657962D01*
X656182Y261355D01*
X654586Y260434D01*
X654074Y259923D01*
X653446Y260551D01*
X651850Y261473D01*
X650070Y261950D01*
X648226D01*
X646446Y261473D01*
X644850Y260551D01*
X643547Y259248D01*
X642625Y257652D01*
X642148Y255871D01*
Y254028D01*
X642625Y252248D01*
X643547Y250652D01*
X644323Y249876D01*
Y227647D01*
X578481Y161806D01*
X577431Y160235D01*
X577063Y158382D01*
Y135000D01*
X569575D01*
Y111000D01*
X593575D01*
Y135000D01*
X586749D01*
Y156375D01*
X600959Y170585D01*
X602132Y170100D01*
Y134060D01*
X599607Y132602D01*
X597373Y130368D01*
X595793Y127632D01*
X594975Y124580D01*
Y121420D01*
X595793Y118368D01*
X597373Y115632D01*
X599607Y113398D01*
X602343Y111818D01*
X605396Y111000D01*
X608555D01*
X611607Y111818D01*
X614343Y113398D01*
X616578Y115632D01*
X618158Y118368D01*
X618975Y121420D01*
Y124580D01*
X618158Y127632D01*
X616578Y130368D01*
X614343Y132602D01*
X611818Y134060D01*
Y170150D01*
X626359Y184691D01*
X627532Y184205D01*
Y134060D01*
X625007Y132602D01*
X622773Y130368D01*
X621193Y127632D01*
X620375Y124580D01*
Y121420D01*
X621193Y118368D01*
X622773Y115632D01*
X625007Y113398D01*
X627743Y111818D01*
X630796Y111000D01*
X633955D01*
X636534Y111691D01*
X639301Y108924D01*
X638521Y107908D01*
X637007Y108782D01*
X633955Y109600D01*
X630796D01*
X627743Y108782D01*
X625007Y107202D01*
X622773Y104968D01*
X621193Y102232D01*
X620375Y99180D01*
Y96020D01*
X621193Y92968D01*
X622773Y90232D01*
X625007Y87998D01*
X627743Y86418D01*
X630796Y85600D01*
X633955D01*
X637007Y86418D01*
X639743Y87998D01*
X641978Y90232D01*
X643558Y92968D01*
X644375Y96020D01*
Y99180D01*
X643558Y102232D01*
X642683Y103746D01*
X643699Y104526D01*
X646466Y101759D01*
X645775Y99180D01*
Y96020D01*
X646593Y92968D01*
X648173Y90232D01*
X650407Y87998D01*
X653143Y86418D01*
X656196Y85600D01*
X659355D01*
X662407Y86418D01*
X665144Y87998D01*
X667378Y90232D01*
X668958Y92968D01*
X669775Y96020D01*
Y99180D01*
X668958Y102232D01*
X668083Y103746D01*
X669100Y104526D01*
X671866Y101759D01*
X671175Y99180D01*
Y96020D01*
X671993Y92968D01*
X673573Y90232D01*
X675807Y87998D01*
X678543Y86418D01*
X681596Y85600D01*
X684755D01*
X687807Y86418D01*
X690544Y87998D01*
X692778Y90232D01*
X694358Y92968D01*
X695175Y96020D01*
Y99180D01*
X694358Y102232D01*
X692778Y104968D01*
X690544Y107202D01*
X687807Y108782D01*
X684755Y109600D01*
X681596D01*
X678543Y108782D01*
X678542Y108781D01*
X668957Y118367D01*
X668958Y118368D01*
X669775Y121420D01*
Y124580D01*
X668958Y127632D01*
X667378Y130368D01*
X665144Y132602D01*
X662618Y134060D01*
Y200515D01*
X676751Y214648D01*
X677925Y214162D01*
Y133825D01*
X675807Y132602D01*
X673573Y130368D01*
X671993Y127632D01*
X671175Y124580D01*
Y121420D01*
X671993Y118368D01*
X673573Y115632D01*
X675807Y113398D01*
X678543Y111818D01*
X681596Y111000D01*
X684755D01*
X687807Y111818D01*
X690544Y113398D01*
X692778Y115632D01*
X694358Y118368D01*
X695175Y121420D01*
Y124580D01*
X694358Y127632D01*
X692778Y130368D01*
X690544Y132602D01*
X687807Y134182D01*
X687611Y134235D01*
Y215420D01*
X692581Y220390D01*
X693118Y221194D01*
X694466Y220925D01*
X694531Y220600D01*
X695581Y219029D01*
X703732Y210877D01*
Y134060D01*
X701207Y132602D01*
X698973Y130368D01*
X697393Y127632D01*
X696575Y124580D01*
Y121420D01*
X697393Y118368D01*
X698973Y115632D01*
X701207Y113398D01*
X703943Y111818D01*
X706995Y111000D01*
X710155D01*
X713207Y111818D01*
X715944Y113398D01*
X718178Y115632D01*
X719758Y118368D01*
X720575Y121420D01*
Y124580D01*
X719758Y127632D01*
X718178Y130368D01*
X715944Y132602D01*
X713418Y134060D01*
Y208520D01*
X714592Y209006D01*
X728981Y194617D01*
Y133973D01*
X726607Y132602D01*
X724373Y130368D01*
X722793Y127632D01*
X721975Y124580D01*
Y121420D01*
X722793Y118368D01*
X724373Y115632D01*
X726607Y113398D01*
X729343Y111818D01*
X732395Y111000D01*
X735555D01*
X738607Y111818D01*
X741344Y113398D01*
X743578Y115632D01*
X745157Y118368D01*
X745975Y121420D01*
Y124580D01*
X745157Y127632D01*
X743578Y130368D01*
X741344Y132602D01*
X738667Y134148D01*
Y193698D01*
X739840Y194184D01*
X754532Y179492D01*
Y134060D01*
X752007Y132602D01*
X749773Y130368D01*
X748193Y127632D01*
X747375Y124580D01*
Y121420D01*
X748193Y118368D01*
X749773Y115632D01*
X752007Y113398D01*
X754743Y111818D01*
X757795Y111000D01*
X760955D01*
X764007Y111818D01*
X766743Y113398D01*
X768978Y115632D01*
X770557Y118368D01*
X771375Y121420D01*
Y124580D01*
X770557Y127632D01*
X768978Y130368D01*
X766743Y132602D01*
X764218Y134060D01*
Y181219D01*
X764889Y181648D01*
X765458Y181775D01*
X779932Y167301D01*
Y134060D01*
X777407Y132602D01*
X775173Y130368D01*
X773593Y127632D01*
X772775Y124580D01*
Y121420D01*
X773593Y118368D01*
X775173Y115632D01*
X777407Y113398D01*
X780144Y111818D01*
X783195Y111000D01*
X786355D01*
X789407Y111818D01*
X792143Y113398D01*
X794378Y115632D01*
X795957Y118368D01*
X796775Y121420D01*
Y124580D01*
X795957Y127632D01*
X794378Y130368D01*
X792143Y132602D01*
X789618Y134060D01*
Y164006D01*
X790792Y164492D01*
X805332Y149951D01*
Y134060D01*
X802807Y132602D01*
X800573Y130368D01*
X798993Y127632D01*
X798175Y124580D01*
Y121420D01*
X798993Y118368D01*
X800573Y115632D01*
X802807Y113398D01*
X805544Y111818D01*
X808596Y111000D01*
X811755D01*
X814807Y111818D01*
X817543Y113398D01*
X819778Y115632D01*
X821357Y118368D01*
X822175Y121420D01*
Y124580D01*
X821357Y127632D01*
X819778Y130368D01*
X817543Y132602D01*
X815018Y134060D01*
Y151958D01*
X814650Y153811D01*
X813600Y155382D01*
X743885Y225097D01*
Y299043D01*
X744643Y299801D01*
X745564Y301397D01*
X746042Y303178D01*
Y305021D01*
X745564Y306801D01*
X744643Y308397D01*
X743340Y309701D01*
X741743Y310622D01*
X739963Y311099D01*
X738120D01*
X736340Y310622D01*
X734743Y309701D01*
X733440Y308397D01*
X732519Y306801D01*
X732042Y305021D01*
Y303178D01*
X732519Y301397D01*
X732951Y300648D01*
X732021Y299719D01*
X731895Y299792D01*
X730114Y300269D01*
X728271D01*
X726491Y299792D01*
X725976Y299495D01*
X725046Y300425D01*
X725457Y301136D01*
X725934Y302916D01*
Y304759D01*
X725457Y306540D01*
X724536Y308136D01*
X723232Y309439D01*
X721636Y310361D01*
X719856Y310838D01*
X718013D01*
X716232Y310361D01*
X714636Y309439D01*
X713333Y308136D01*
X712411Y306540D01*
X711934Y304759D01*
Y302916D01*
X712411Y301136D01*
X712844Y300387D01*
X711914Y299457D01*
X711787Y299531D01*
X710007Y300008D01*
X708164D01*
X706383Y299531D01*
X705889Y299245D01*
X704959Y300175D01*
X705528Y301160D01*
X706005Y302940D01*
Y304783D01*
X705528Y306564D01*
X704607Y308160D01*
X703303Y309463D01*
X703084Y309590D01*
Y330063D01*
X703084Y330064D01*
X702773Y331624D01*
X701889Y332947D01*
X660640Y374196D01*
Y427320D01*
X660640Y427320D01*
X660330Y428881D01*
X659446Y430204D01*
X659446Y430204D01*
X643966Y445684D01*
X642643Y446568D01*
X641082Y446879D01*
X641082Y446879D01*
X628462D01*
X627827Y447979D01*
X628340Y448867D01*
X629021Y451410D01*
Y454043D01*
X628340Y456587D01*
X627023Y458867D01*
X625161Y460729D01*
X622881Y462045D01*
X622707Y462092D01*
Y463362D01*
X622881Y463408D01*
X625161Y464725D01*
X627023Y466587D01*
X628340Y468867D01*
X629021Y471410D01*
Y474043D01*
X628340Y476587D01*
X627023Y478867D01*
X625161Y480729D01*
X622881Y482045D01*
X622707Y482092D01*
Y483362D01*
X622881Y483408D01*
X625161Y484725D01*
X627023Y486587D01*
X628340Y488867D01*
X629021Y491410D01*
Y494043D01*
X628340Y496587D01*
X627023Y498867D01*
X625161Y500729D01*
X622881Y502045D01*
X622707Y502092D01*
Y503362D01*
X622881Y503408D01*
X625161Y504725D01*
X627023Y506587D01*
X628340Y508867D01*
X629021Y511410D01*
Y514043D01*
X628340Y516586D01*
X627023Y518867D01*
X625161Y520729D01*
X622881Y522045D01*
X622707Y522092D01*
Y523362D01*
X622881Y523408D01*
X625161Y524725D01*
X627023Y526587D01*
X628340Y528867D01*
X629021Y531410D01*
Y534043D01*
X628340Y536586D01*
X627023Y538867D01*
X625161Y540729D01*
X622881Y542045D01*
X622707Y542092D01*
Y543362D01*
X622881Y543408D01*
X625161Y544725D01*
X627023Y546586D01*
X628340Y548867D01*
X629021Y551410D01*
Y554043D01*
X628340Y556586D01*
X627023Y558867D01*
X625161Y560729D01*
X622881Y562045D01*
X622707Y562092D01*
Y563362D01*
X622881Y563408D01*
X625161Y564725D01*
X627023Y566586D01*
X628340Y568867D01*
X629021Y571410D01*
Y574043D01*
X628340Y576586D01*
X627023Y578867D01*
X625161Y580729D01*
X622881Y582045D01*
X622707Y582092D01*
Y583362D01*
X622881Y583408D01*
X625161Y584725D01*
X627023Y586586D01*
X628340Y588867D01*
X629021Y591410D01*
Y594043D01*
X628340Y596586D01*
X627023Y598867D01*
X625161Y600728D01*
X622881Y602045D01*
X620338Y602727D01*
D02*
G37*
G36*
X402065Y587970D02*
X398905D01*
X395853Y587153D01*
X393116Y585573D01*
X390882Y583339D01*
X389302Y580602D01*
X388485Y577550D01*
Y574390D01*
X389302Y571339D01*
X390882Y568602D01*
X393116Y566368D01*
X395853Y564788D01*
X398905Y563970D01*
X402065D01*
X405117Y564788D01*
X407853Y566368D01*
X410087Y568602D01*
X411667Y571339D01*
X412485Y574390D01*
Y577550D01*
X411667Y580602D01*
X410087Y583339D01*
X407853Y585573D01*
X405117Y587153D01*
X402065Y587970D01*
D02*
G37*
G36*
X376665D02*
X373505D01*
X370453Y587153D01*
X367716Y585573D01*
X365482Y583339D01*
X363903Y580602D01*
X363085Y577550D01*
Y574390D01*
X363903Y571339D01*
X365482Y568602D01*
X367716Y566368D01*
X370453Y564788D01*
X373505Y563970D01*
X376665D01*
X379716Y564788D01*
X382453Y566368D01*
X384687Y568602D01*
X386267Y571339D01*
X387085Y574390D01*
Y577550D01*
X386267Y580602D01*
X384687Y583339D01*
X382453Y585573D01*
X379716Y587153D01*
X376665Y587970D01*
D02*
G37*
G36*
X212397Y564782D02*
X209237D01*
X206185Y563964D01*
X203449Y562384D01*
X201215Y560150D01*
X199635Y557414D01*
X198817Y554362D01*
Y551202D01*
X199635Y548150D01*
X201215Y545414D01*
X203449Y543180D01*
X206185Y541600D01*
X209237Y540782D01*
X212397D01*
X215449Y541600D01*
X218185Y543180D01*
X220420Y545414D01*
X221999Y548150D01*
X222817Y551202D01*
Y554362D01*
X221999Y557414D01*
X220420Y560150D01*
X218185Y562384D01*
X215449Y563964D01*
X212397Y564782D01*
D02*
G37*
G36*
X186997D02*
X183837D01*
X180785Y563964D01*
X178049Y562384D01*
X175815Y560150D01*
X174235Y557414D01*
X173417Y554362D01*
Y551202D01*
X174235Y548150D01*
X175815Y545414D01*
X178049Y543180D01*
X180785Y541600D01*
X183837Y540782D01*
X186997D01*
X190049Y541600D01*
X192785Y543180D01*
X195019Y545414D01*
X196599Y548150D01*
X197417Y551202D01*
Y554362D01*
X196599Y557414D01*
X195019Y560150D01*
X192785Y562384D01*
X190049Y563964D01*
X186997Y564782D01*
D02*
G37*
G36*
X402065Y562570D02*
X398905D01*
X395853Y561753D01*
X393116Y560173D01*
X390882Y557938D01*
X389302Y555202D01*
X388485Y552150D01*
Y548991D01*
X389302Y545939D01*
X390882Y543202D01*
X393116Y540968D01*
X395853Y539388D01*
X398905Y538570D01*
X402065D01*
X405117Y539388D01*
X407853Y540968D01*
X410087Y543202D01*
X411667Y545939D01*
X412485Y548991D01*
Y552150D01*
X411667Y555202D01*
X410087Y557938D01*
X407853Y560173D01*
X405117Y561753D01*
X402065Y562570D01*
D02*
G37*
G36*
X867283Y562236D02*
X843283D01*
Y538236D01*
X867283D01*
Y562236D01*
D02*
G37*
G36*
X831463D02*
X828303D01*
X825251Y561418D01*
X822515Y559839D01*
X820281Y557604D01*
X818701Y554868D01*
X817883Y551816D01*
Y548656D01*
X818701Y545604D01*
X820281Y542868D01*
X822515Y540634D01*
X825251Y539054D01*
X828303Y538236D01*
X831463D01*
X834515Y539054D01*
X837251Y540634D01*
X839485Y542868D01*
X841065Y545604D01*
X841883Y548656D01*
Y551816D01*
X841065Y554868D01*
X839485Y557604D01*
X837251Y559839D01*
X834515Y561418D01*
X831463Y562236D01*
D02*
G37*
G36*
X1002941Y544713D02*
X999887D01*
X996893Y544117D01*
X994072Y542949D01*
X991534Y541252D01*
X989374Y539093D01*
X987678Y536555D01*
X986643Y534056D01*
X965385D01*
X964350Y536555D01*
X962654Y539093D01*
X960495Y541252D01*
X957956Y542949D01*
X955135Y544117D01*
X952141Y544713D01*
X949088D01*
X946093Y544117D01*
X943272Y542949D01*
X940733Y541252D01*
X938575Y539093D01*
X936878Y536555D01*
X935710Y533734D01*
X935114Y530739D01*
Y527686D01*
X935710Y524692D01*
X936878Y521871D01*
X938575Y519332D01*
X940733Y517173D01*
X943272Y515477D01*
X945771Y514442D01*
Y493184D01*
X943272Y492149D01*
X940733Y490452D01*
X938575Y488293D01*
X936878Y485755D01*
X935710Y482934D01*
X935114Y479939D01*
Y476886D01*
X935710Y473892D01*
X936878Y471071D01*
X938575Y468532D01*
X940733Y466373D01*
X943272Y464677D01*
X946093Y463508D01*
X949088Y462913D01*
X952141D01*
X955135Y463508D01*
X957956Y464677D01*
X960495Y466373D01*
X962654Y468532D01*
X964350Y471071D01*
X965385Y473570D01*
X986643D01*
X987678Y471071D01*
X989374Y468532D01*
X991534Y466373D01*
X994072Y464677D01*
X996893Y463508D01*
X999887Y462913D01*
X1002941D01*
X1005935Y463508D01*
X1008756Y464677D01*
X1011295Y466373D01*
X1013454Y468532D01*
X1015150Y471071D01*
X1016319Y473892D01*
X1016914Y476886D01*
Y479939D01*
X1016319Y482934D01*
X1015150Y485755D01*
X1013454Y488293D01*
X1011295Y490452D01*
X1008756Y492149D01*
X1005935Y493317D01*
X1002941Y493913D01*
X999887D01*
X996893Y493317D01*
X994072Y492149D01*
X991534Y490452D01*
X989374Y488293D01*
X987678Y485755D01*
X986643Y483256D01*
X965385D01*
X964350Y485755D01*
X962654Y488293D01*
X960495Y490452D01*
X957956Y492149D01*
X955457Y493184D01*
Y514442D01*
X957956Y515477D01*
X960495Y517173D01*
X962654Y519332D01*
X964350Y521871D01*
X965385Y524370D01*
X986643D01*
X987678Y521871D01*
X989374Y519332D01*
X991534Y517173D01*
X994072Y515477D01*
X996893Y514308D01*
X999887Y513713D01*
X1002941D01*
X1005935Y514308D01*
X1008756Y515477D01*
X1011295Y517173D01*
X1013454Y519332D01*
X1015150Y521871D01*
X1016319Y524692D01*
X1016914Y527686D01*
Y530739D01*
X1016319Y533734D01*
X1015150Y536555D01*
X1013454Y539093D01*
X1011295Y541252D01*
X1008756Y542949D01*
X1005935Y544117D01*
X1002941Y544713D01*
D02*
G37*
G36*
X376665Y562570D02*
X373505D01*
X370453Y561753D01*
X367716Y560173D01*
X365482Y557938D01*
X363903Y555202D01*
X363085Y552150D01*
Y548991D01*
X363903Y545939D01*
X364189Y545442D01*
X349757Y531011D01*
X303722D01*
X303236Y532184D01*
X303521Y532469D01*
X304574Y534293D01*
X305120Y536328D01*
Y538434D01*
X304574Y540469D01*
X303521Y542293D01*
X302032Y543783D01*
X300208Y544836D01*
X298173Y545381D01*
X296066D01*
X294032Y544836D01*
X292208Y543783D01*
X290718Y542293D01*
X289665Y540469D01*
X289120Y538434D01*
Y536328D01*
X289665Y534293D01*
X290718Y532469D01*
X291003Y532184D01*
X290517Y531011D01*
X255253D01*
X254967Y531507D01*
X253663Y532810D01*
X252067Y533732D01*
X250287Y534209D01*
X248444D01*
X246663Y533732D01*
X245067Y532810D01*
X243764Y531507D01*
X242842Y529911D01*
X242365Y528130D01*
Y526287D01*
X242842Y524507D01*
X243764Y522911D01*
X245067Y521607D01*
X246663Y520686D01*
X248444Y520209D01*
X250287D01*
X252067Y520686D01*
X253663Y521607D01*
X254910Y522854D01*
X351446D01*
X351446Y522854D01*
X353007Y523164D01*
X354330Y524048D01*
X369957Y539675D01*
X370453Y539388D01*
X373505Y538570D01*
X376665D01*
X379716Y539388D01*
X382453Y540968D01*
X384687Y543202D01*
X386267Y545939D01*
X387085Y548991D01*
Y552150D01*
X386267Y555202D01*
X384687Y557938D01*
X382453Y560173D01*
X379716Y561753D01*
X376665Y562570D01*
D02*
G37*
G36*
X186997Y539382D02*
X183837D01*
X180785Y538564D01*
X178049Y536984D01*
X175815Y534750D01*
X174235Y532014D01*
X173417Y528962D01*
Y525802D01*
X174235Y522750D01*
X175717Y520183D01*
X171319Y515786D01*
X106616D01*
X105947Y517056D01*
X106404Y518762D01*
Y520868D01*
X105859Y522903D01*
X104806Y524727D01*
X103316Y526217D01*
X101492Y527270D01*
X99458Y527815D01*
X97351D01*
X95316Y527270D01*
X93492Y526217D01*
X92003Y524727D01*
X90950Y522903D01*
X90404Y520868D01*
Y518762D01*
X90862Y517056D01*
X90193Y515786D01*
X61316D01*
X60047Y517054D01*
X58451Y517976D01*
X56671Y518452D01*
X54828D01*
X53047Y517976D01*
X51451Y517054D01*
X50148Y515751D01*
X49226Y514154D01*
X48749Y512374D01*
Y510531D01*
X49226Y508751D01*
X50148Y507155D01*
X51451Y505851D01*
X53047Y504930D01*
X54828Y504453D01*
X56671D01*
X58451Y504930D01*
X60047Y505851D01*
X61316Y507119D01*
X173114D01*
X173149Y507126D01*
X174075Y506016D01*
X173417Y503562D01*
Y500402D01*
X174235Y497350D01*
X175815Y494614D01*
X178049Y492380D01*
X180785Y490800D01*
X183837Y489982D01*
X186997D01*
X190049Y490800D01*
X192785Y492380D01*
X195019Y494614D01*
X196599Y497350D01*
X197417Y500402D01*
Y503562D01*
X196599Y506614D01*
X195019Y509350D01*
X192785Y511584D01*
X190049Y513164D01*
X187079Y513960D01*
X186927Y514239D01*
X186652Y515252D01*
X186811Y515382D01*
X186997D01*
X190049Y516200D01*
X192785Y517780D01*
X195019Y520014D01*
X196599Y522750D01*
X197417Y525802D01*
Y528962D01*
X196599Y532014D01*
X195019Y534750D01*
X192785Y536984D01*
X190049Y538564D01*
X186997Y539382D01*
D02*
G37*
G36*
X212397D02*
X209237D01*
X206185Y538564D01*
X203449Y536984D01*
X201215Y534750D01*
X199635Y532014D01*
X198817Y528962D01*
Y525802D01*
X199635Y522750D01*
X201215Y520014D01*
X203449Y517780D01*
X206185Y516200D01*
X209237Y515382D01*
X212397D01*
X215449Y516200D01*
X218185Y517780D01*
X220420Y520014D01*
X221999Y522750D01*
X222817Y525802D01*
Y528962D01*
X221999Y532014D01*
X220420Y534750D01*
X218185Y536984D01*
X215449Y538564D01*
X212397Y539382D01*
D02*
G37*
G36*
X402065Y537170D02*
X398905D01*
X395853Y536353D01*
X393116Y534773D01*
X390882Y532538D01*
X389302Y529802D01*
X388485Y526750D01*
Y523591D01*
X389302Y520539D01*
X390882Y517802D01*
X393116Y515568D01*
X395853Y513988D01*
X398905Y513170D01*
X402065D01*
X405117Y513988D01*
X407853Y515568D01*
X410087Y517802D01*
X411667Y520539D01*
X412485Y523591D01*
Y526750D01*
X411667Y529802D01*
X410087Y532538D01*
X407853Y534773D01*
X405117Y536353D01*
X402065Y537170D01*
D02*
G37*
G36*
X856863Y536836D02*
X853703D01*
X850651Y536018D01*
X847915Y534439D01*
X845680Y532204D01*
X844101Y529468D01*
X843283Y526416D01*
Y523256D01*
X844101Y520204D01*
X845680Y517468D01*
X847915Y515234D01*
X850651Y513654D01*
X853703Y512836D01*
X856863D01*
X859915Y513654D01*
X862651Y515234D01*
X864885Y517468D01*
X866465Y520204D01*
X867283Y523256D01*
Y526416D01*
X866465Y529468D01*
X864885Y532204D01*
X862651Y534439D01*
X859915Y536018D01*
X856863Y536836D01*
D02*
G37*
G36*
X831463D02*
X828303D01*
X825251Y536018D01*
X822515Y534439D01*
X820281Y532204D01*
X818701Y529468D01*
X817883Y526416D01*
Y523256D01*
X818701Y520204D01*
X820281Y517468D01*
X822515Y515234D01*
X825251Y513654D01*
X828303Y512836D01*
X831463D01*
X834515Y513654D01*
X837251Y515234D01*
X839485Y517468D01*
X841065Y520204D01*
X841883Y523256D01*
Y526416D01*
X841065Y529468D01*
X839485Y532204D01*
X837251Y534439D01*
X834515Y536018D01*
X831463Y536836D01*
D02*
G37*
G36*
X754436Y526946D02*
X752329D01*
X750295Y526401D01*
X748470Y525348D01*
X746981Y523858D01*
X745928Y522034D01*
X745383Y520000D01*
Y517893D01*
X745928Y515858D01*
X746981Y514034D01*
X748470Y512545D01*
X750295Y511492D01*
X752329Y510946D01*
X754436D01*
X756470Y511492D01*
X758295Y512545D01*
X759784Y514034D01*
X760837Y515858D01*
X761382Y517893D01*
Y520000D01*
X760837Y522034D01*
X759784Y523858D01*
X758295Y525348D01*
X756470Y526401D01*
X754436Y526946D01*
D02*
G37*
G36*
X376665Y537170D02*
X373505D01*
X370453Y536353D01*
X367716Y534773D01*
X365482Y532538D01*
X363903Y529802D01*
X363085Y526750D01*
Y523591D01*
X363903Y520539D01*
X365482Y517802D01*
X366666Y516619D01*
X366140Y515349D01*
X352809D01*
X351248Y515038D01*
X349925Y514154D01*
X349925Y514154D01*
X344125Y508354D01*
X343880Y508420D01*
X342037D01*
X340257Y507943D01*
X338661Y507021D01*
X337357Y505718D01*
X336436Y504122D01*
X335959Y502342D01*
Y500499D01*
X336436Y498718D01*
X337357Y497122D01*
X338661Y495819D01*
X340257Y494897D01*
X342037Y494420D01*
X343880D01*
X345661Y494897D01*
X347257Y495819D01*
X348560Y497122D01*
X349482Y498718D01*
X349959Y500499D01*
Y502342D01*
X349893Y502587D01*
X354498Y507192D01*
X364047D01*
X364780Y505922D01*
X363903Y504402D01*
X363085Y501350D01*
Y498190D01*
X363903Y495139D01*
X365482Y492402D01*
X367716Y490168D01*
X370453Y488588D01*
X373505Y487770D01*
X376665D01*
X379716Y488588D01*
X382453Y490168D01*
X384687Y492402D01*
X386267Y495139D01*
X387085Y498190D01*
Y501350D01*
X386267Y504402D01*
X385389Y505922D01*
X386066Y507094D01*
X387305Y507183D01*
X389589Y504898D01*
X389302Y504402D01*
X388485Y501350D01*
Y498190D01*
X389302Y495139D01*
X390882Y492402D01*
X393116Y490168D01*
X395853Y488588D01*
X398905Y487770D01*
X402065D01*
X405117Y488588D01*
X407853Y490168D01*
X410087Y492402D01*
X411667Y495139D01*
X412485Y498190D01*
Y501350D01*
X411667Y504402D01*
X410087Y507138D01*
X407853Y509373D01*
X405117Y510953D01*
X402065Y511770D01*
X398905D01*
X395853Y510953D01*
X395357Y510666D01*
X391869Y514154D01*
X390545Y515038D01*
X388985Y515349D01*
X388985Y515349D01*
X384030D01*
X383504Y516619D01*
X384687Y517802D01*
X386267Y520539D01*
X387085Y523591D01*
Y526750D01*
X386267Y529802D01*
X384687Y532538D01*
X382453Y534773D01*
X379716Y536353D01*
X376665Y537170D01*
D02*
G37*
G36*
X212397Y513982D02*
X209237D01*
X206185Y513164D01*
X203449Y511584D01*
X201215Y509350D01*
X199635Y506614D01*
X198817Y503562D01*
Y500402D01*
X199635Y497350D01*
X201215Y494614D01*
X203449Y492380D01*
X206185Y490800D01*
X209237Y489982D01*
X212397D01*
X215449Y490800D01*
X218185Y492380D01*
X220420Y494614D01*
X221999Y497350D01*
X222817Y500402D01*
Y503562D01*
X221999Y506614D01*
X220420Y509350D01*
X218185Y511584D01*
X215449Y513164D01*
X212397Y513982D01*
D02*
G37*
G36*
X977541Y519313D02*
X974488D01*
X971493Y518717D01*
X968672Y517549D01*
X966133Y515852D01*
X963975Y513693D01*
X962278Y511155D01*
X961110Y508334D01*
X960514Y505339D01*
Y502286D01*
X961110Y499292D01*
X962278Y496471D01*
X963975Y493932D01*
X966133Y491773D01*
X968672Y490077D01*
X971493Y488908D01*
X974488Y488313D01*
X977541D01*
X980535Y488908D01*
X983356Y490077D01*
X985895Y491773D01*
X988054Y493932D01*
X989750Y496471D01*
X990919Y499292D01*
X991514Y502286D01*
Y505339D01*
X990919Y508334D01*
X989750Y511155D01*
X988054Y513693D01*
X985895Y515852D01*
X983356Y517549D01*
X980535Y518717D01*
X977541Y519313D01*
D02*
G37*
G36*
X856863Y511436D02*
X853703D01*
X850651Y510618D01*
X847915Y509039D01*
X845680Y506804D01*
X844101Y504068D01*
X843283Y501016D01*
Y497856D01*
X844101Y494804D01*
X845680Y492068D01*
X847915Y489834D01*
X850651Y488254D01*
X853703Y487436D01*
X856863D01*
X859915Y488254D01*
X862651Y489834D01*
X864885Y492068D01*
X866465Y494804D01*
X867283Y497856D01*
Y501016D01*
X866465Y504068D01*
X864885Y506804D01*
X862651Y509039D01*
X859915Y510618D01*
X856863Y511436D01*
D02*
G37*
G36*
X831463D02*
X828303D01*
X825251Y510618D01*
X822515Y509039D01*
X820281Y506804D01*
X818701Y504068D01*
X817883Y501016D01*
Y497856D01*
X818701Y494804D01*
X820281Y492068D01*
X822515Y489834D01*
X825251Y488254D01*
X828303Y487436D01*
X831463D01*
X834515Y488254D01*
X837251Y489834D01*
X839485Y492068D01*
X841065Y494804D01*
X841883Y497856D01*
Y501016D01*
X841065Y504068D01*
X839485Y506804D01*
X837251Y509039D01*
X834515Y510618D01*
X831463Y511436D01*
D02*
G37*
G36*
X522702Y515756D02*
X519542D01*
X516490Y514938D01*
X513754Y513358D01*
X511519Y511124D01*
X509940Y508388D01*
X509122Y505336D01*
Y502176D01*
X509940Y499124D01*
X511519Y496388D01*
X513754Y494154D01*
X516490Y492574D01*
X517043Y492425D01*
Y489687D01*
X516490Y489538D01*
X513754Y487958D01*
X511519Y485724D01*
X509940Y482988D01*
X509122Y479936D01*
Y476776D01*
X509940Y473724D01*
X511519Y470988D01*
X513754Y468754D01*
X516490Y467174D01*
X519542Y466356D01*
X522702D01*
X525754Y467174D01*
X528490Y468754D01*
X530724Y470988D01*
X532304Y473724D01*
X533122Y476776D01*
Y479936D01*
X532304Y482988D01*
X530724Y485724D01*
X528490Y487958D01*
X525754Y489538D01*
X525200Y489687D01*
Y492425D01*
X525754Y492574D01*
X528490Y494154D01*
X530724Y496388D01*
X532304Y499124D01*
X533122Y502176D01*
Y505336D01*
X532304Y508388D01*
X530724Y511124D01*
X528490Y513358D01*
X525754Y514938D01*
X522702Y515756D01*
D02*
G37*
G36*
X497302Y490356D02*
X494142D01*
X491090Y489538D01*
X488354Y487958D01*
X486119Y485724D01*
X484540Y482988D01*
X483722Y479936D01*
Y476776D01*
X484540Y473724D01*
X486119Y470988D01*
X488354Y468754D01*
X491090Y467174D01*
X494142Y466356D01*
X497302D01*
X500354Y467174D01*
X503090Y468754D01*
X505324Y470988D01*
X506904Y473724D01*
X507722Y476776D01*
Y479936D01*
X506904Y482988D01*
X505324Y485724D01*
X503090Y487958D01*
X500354Y489538D01*
X497302Y490356D01*
D02*
G37*
G36*
X212397Y488582D02*
X209237D01*
X206185Y487764D01*
X203449Y486184D01*
X201215Y483950D01*
X199635Y481214D01*
X198817Y478162D01*
Y475002D01*
X199635Y471950D01*
X201215Y469214D01*
X203449Y466980D01*
X206185Y465400D01*
X209237Y464582D01*
X212397D01*
X215449Y465400D01*
X218185Y466980D01*
X220420Y469214D01*
X221999Y471950D01*
X222817Y475002D01*
Y478162D01*
X221999Y481214D01*
X220420Y483950D01*
X218185Y486184D01*
X215449Y487764D01*
X212397Y488582D01*
D02*
G37*
G36*
X186997D02*
X183837D01*
X180785Y487764D01*
X178049Y486184D01*
X175815Y483950D01*
X174235Y481214D01*
X173417Y478162D01*
Y475002D01*
X174235Y471950D01*
X175815Y469214D01*
X178049Y466980D01*
X180785Y465400D01*
X183837Y464582D01*
X186997D01*
X190049Y465400D01*
X192785Y466980D01*
X195019Y469214D01*
X196599Y471950D01*
X197417Y475002D01*
Y478162D01*
X196599Y481214D01*
X195019Y483950D01*
X192785Y486184D01*
X190049Y487764D01*
X186997Y488582D01*
D02*
G37*
G36*
X376665Y486370D02*
X373505D01*
X370453Y485553D01*
X367716Y483973D01*
X365482Y481739D01*
X363903Y479002D01*
X363085Y475950D01*
Y472790D01*
X363903Y469739D01*
X365482Y467002D01*
X367716Y464768D01*
X370453Y463188D01*
X373505Y462370D01*
X376665D01*
X379716Y463188D01*
X382453Y464768D01*
X384687Y467002D01*
X386267Y469739D01*
X387085Y472790D01*
Y475950D01*
X386267Y479002D01*
X384687Y481739D01*
X382453Y483973D01*
X379716Y485553D01*
X376665Y486370D01*
D02*
G37*
G36*
X856863Y486036D02*
X853703D01*
X850651Y485218D01*
X847915Y483639D01*
X845680Y481404D01*
X844101Y478668D01*
X843283Y475616D01*
Y472456D01*
X844101Y469404D01*
X845680Y466668D01*
X847915Y464434D01*
X850651Y462854D01*
X853703Y462036D01*
X856863D01*
X859915Y462854D01*
X862651Y464434D01*
X864885Y466668D01*
X866465Y469404D01*
X867283Y472456D01*
Y475616D01*
X866465Y478668D01*
X864885Y481404D01*
X862651Y483639D01*
X859915Y485218D01*
X856863Y486036D01*
D02*
G37*
G36*
X831463D02*
X828303D01*
X825251Y485218D01*
X822515Y483639D01*
X820281Y481404D01*
X818701Y478668D01*
X817883Y475616D01*
Y472456D01*
X818701Y469404D01*
X820281Y466668D01*
X822515Y464434D01*
X825251Y462854D01*
X828303Y462036D01*
X831463D01*
X834515Y462854D01*
X837251Y464434D01*
X839485Y466668D01*
X841065Y469404D01*
X841883Y472456D01*
Y475616D01*
X841065Y478668D01*
X839485Y481404D01*
X837251Y483639D01*
X834515Y485218D01*
X831463Y486036D01*
D02*
G37*
G36*
X522702Y464956D02*
X519542D01*
X516490Y464138D01*
X513754Y462558D01*
X511519Y460324D01*
X509940Y457588D01*
X509122Y454536D01*
Y451376D01*
X509940Y448324D01*
X511519Y445588D01*
X513754Y443354D01*
X516490Y441774D01*
X519542Y440956D01*
X522702D01*
X525754Y441774D01*
X528490Y443354D01*
X530724Y445588D01*
X532304Y448324D01*
X533122Y451376D01*
Y454536D01*
X532304Y457588D01*
X530724Y460324D01*
X528490Y462558D01*
X525754Y464138D01*
X522702Y464956D01*
D02*
G37*
G36*
X497302D02*
X494142D01*
X491090Y464138D01*
X488354Y462558D01*
X486119Y460324D01*
X484540Y457588D01*
X483722Y454536D01*
Y451376D01*
X484540Y448324D01*
X486119Y445588D01*
X488354Y443354D01*
X491090Y441774D01*
X494142Y440956D01*
X497302D01*
X500354Y441774D01*
X503090Y443354D01*
X505324Y445588D01*
X506904Y448324D01*
X507722Y451376D01*
Y454536D01*
X506904Y457588D01*
X505324Y460324D01*
X503090Y462558D01*
X500354Y464138D01*
X497302Y464956D01*
D02*
G37*
G36*
X212397Y463182D02*
X209237D01*
X206185Y462364D01*
X203449Y460784D01*
X201215Y458550D01*
X199635Y455814D01*
X198817Y452762D01*
Y449602D01*
X199635Y446550D01*
X201215Y443814D01*
X203449Y441580D01*
X206185Y440000D01*
X209237Y439182D01*
X212397D01*
X215449Y440000D01*
X218185Y441580D01*
X220420Y443814D01*
X221999Y446550D01*
X222817Y449602D01*
Y452762D01*
X221999Y455814D01*
X220420Y458550D01*
X218185Y460784D01*
X215449Y462364D01*
X212397Y463182D01*
D02*
G37*
G36*
X186997D02*
X183837D01*
X180785Y462364D01*
X178049Y460784D01*
X175815Y458550D01*
X174235Y455814D01*
X173417Y452762D01*
Y449602D01*
X174235Y446550D01*
X175815Y443814D01*
X178049Y441580D01*
X180785Y440000D01*
X183837Y439182D01*
X186997D01*
X190049Y440000D01*
X192785Y441580D01*
X195019Y443814D01*
X196599Y446550D01*
X197417Y449602D01*
Y452762D01*
X196599Y455814D01*
X195019Y458550D01*
X192785Y460784D01*
X190049Y462364D01*
X186997Y463182D01*
D02*
G37*
G36*
X376665Y460970D02*
X373505D01*
X370453Y460153D01*
X367716Y458573D01*
X365482Y456339D01*
X363903Y453602D01*
X363085Y450550D01*
Y447391D01*
X363903Y444339D01*
X365482Y441602D01*
X367716Y439368D01*
X370453Y437788D01*
X373505Y436970D01*
X376665D01*
X379716Y437788D01*
X382453Y439368D01*
X384687Y441602D01*
X386267Y444339D01*
X387085Y447391D01*
Y450550D01*
X386267Y453602D01*
X384687Y456339D01*
X382453Y458573D01*
X379716Y460153D01*
X376665Y460970D01*
D02*
G37*
G36*
X856863Y460636D02*
X853703D01*
X850651Y459818D01*
X847915Y458239D01*
X845680Y456004D01*
X844101Y453268D01*
X843283Y450216D01*
Y447056D01*
X844101Y444004D01*
X845680Y441268D01*
X847915Y439034D01*
X850651Y437454D01*
X853703Y436636D01*
X856863D01*
X859915Y437454D01*
X862651Y439034D01*
X864885Y441268D01*
X866465Y444004D01*
X867283Y447056D01*
Y450216D01*
X866465Y453268D01*
X864885Y456004D01*
X862651Y458239D01*
X859915Y459818D01*
X856863Y460636D01*
D02*
G37*
G36*
X831463D02*
X828303D01*
X825251Y459818D01*
X822515Y458239D01*
X820281Y456004D01*
X818701Y453268D01*
X817883Y450216D01*
Y447056D01*
X818701Y444004D01*
X820281Y441268D01*
X822515Y439034D01*
X825251Y437454D01*
X828303Y436636D01*
X831463D01*
X834515Y437454D01*
X837251Y439034D01*
X839485Y441268D01*
X841065Y444004D01*
X841883Y447056D01*
Y450216D01*
X841065Y453268D01*
X839485Y456004D01*
X837251Y458239D01*
X834515Y459818D01*
X831463Y460636D01*
D02*
G37*
G36*
X186997Y437782D02*
X183837D01*
X180785Y436964D01*
X178049Y435384D01*
X175970Y433305D01*
X175140Y433860D01*
X173481Y434189D01*
X58564D01*
X57296Y435458D01*
X55699Y436379D01*
X53919Y436856D01*
X52076D01*
X50296Y436379D01*
X48699Y435458D01*
X47396Y434154D01*
X46475Y432558D01*
X45998Y430778D01*
Y428935D01*
X46475Y427154D01*
X47396Y425558D01*
X48699Y424255D01*
X50296Y423333D01*
X52076Y422856D01*
X53919D01*
X55699Y423333D01*
X57296Y424255D01*
X58564Y425523D01*
X91112D01*
X91729Y424253D01*
X90950Y422903D01*
X90404Y420868D01*
Y418762D01*
X90950Y416727D01*
X92003Y414903D01*
X93492Y413414D01*
X95316Y412360D01*
X97351Y411815D01*
X99458D01*
X101492Y412360D01*
X103316Y413414D01*
X104806Y414903D01*
X105859Y416727D01*
X106404Y418762D01*
Y420868D01*
X105859Y422903D01*
X105080Y424253D01*
X105696Y425523D01*
X171686D01*
X173567Y423642D01*
X174235Y421150D01*
X175815Y418414D01*
X178049Y416180D01*
X180785Y414600D01*
X183837Y413782D01*
X186997D01*
X190049Y414600D01*
X192785Y416180D01*
X195019Y418414D01*
X196599Y421150D01*
X197417Y424202D01*
Y427362D01*
X196599Y430414D01*
X195019Y433150D01*
X192785Y435384D01*
X190049Y436964D01*
X186997Y437782D01*
D02*
G37*
G36*
X376665Y435570D02*
X373505D01*
X370453Y434753D01*
X367716Y433173D01*
X366248Y431704D01*
X365373Y431879D01*
X365373Y431879D01*
X257636D01*
X257509Y432098D01*
X256206Y433402D01*
X254610Y434323D01*
X252829Y434800D01*
X250986D01*
X249206Y434323D01*
X247610Y433402D01*
X246306Y432098D01*
X245385Y430502D01*
X244908Y428722D01*
Y426879D01*
X245385Y425098D01*
X246306Y423502D01*
X247610Y422199D01*
X249206Y421277D01*
X250986Y420800D01*
X252829D01*
X254610Y421277D01*
X256206Y422199D01*
X257509Y423502D01*
X257636Y423722D01*
X290487D01*
X290973Y422548D01*
X290718Y422294D01*
X289665Y420469D01*
X289120Y418435D01*
Y416328D01*
X289665Y414294D01*
X290718Y412469D01*
X292208Y410980D01*
X294032Y409927D01*
X296066Y409381D01*
X298173D01*
X300208Y409927D01*
X302032Y410980D01*
X303521Y412469D01*
X304574Y414294D01*
X305120Y416328D01*
Y418435D01*
X304574Y420469D01*
X303521Y422294D01*
X303266Y422548D01*
X303752Y423722D01*
X363085D01*
Y421991D01*
X363903Y418939D01*
X365482Y416202D01*
X367716Y413968D01*
X370453Y412388D01*
X373505Y411570D01*
X376665D01*
X379716Y412388D01*
X382453Y413968D01*
X384687Y416202D01*
X386267Y418939D01*
X387085Y421991D01*
Y425150D01*
X386267Y428202D01*
X384687Y430938D01*
X382453Y433173D01*
X379716Y434753D01*
X376665Y435570D01*
D02*
G37*
G36*
X1008020Y429497D02*
X1004967D01*
X1001973Y428901D01*
X999152Y427733D01*
X996613Y426037D01*
X994454Y423878D01*
X992758Y421339D01*
X991723Y418840D01*
X970465D01*
X969430Y421339D01*
X967734Y423878D01*
X965574Y426037D01*
X963036Y427733D01*
X960215Y428901D01*
X957221Y429497D01*
X954167D01*
X951173Y428901D01*
X948352Y427733D01*
X945813Y426037D01*
X943654Y423878D01*
X941958Y421339D01*
X940789Y418518D01*
X940194Y415524D01*
Y412471D01*
X940789Y409476D01*
X941958Y406655D01*
X943654Y404116D01*
X945813Y401958D01*
X948352Y400261D01*
X950851Y399226D01*
Y377968D01*
X948352Y376933D01*
X945813Y375237D01*
X943654Y373078D01*
X941958Y370539D01*
X940789Y367718D01*
X940194Y364724D01*
Y361670D01*
X940789Y358676D01*
X941958Y355855D01*
X943654Y353316D01*
X945813Y351157D01*
X948352Y349461D01*
X951173Y348293D01*
X954167Y347697D01*
X957221D01*
X960215Y348293D01*
X963036Y349461D01*
X965574Y351157D01*
X967734Y353316D01*
X969430Y355855D01*
X970465Y358354D01*
X991723D01*
X992758Y355855D01*
X994454Y353316D01*
X996613Y351157D01*
X999152Y349461D01*
X1001973Y348293D01*
X1004967Y347697D01*
X1008020D01*
X1011015Y348293D01*
X1013836Y349461D01*
X1016375Y351157D01*
X1018533Y353316D01*
X1020230Y355855D01*
X1021398Y358676D01*
X1021994Y361670D01*
Y364724D01*
X1021398Y367718D01*
X1020230Y370539D01*
X1018533Y373078D01*
X1016375Y375237D01*
X1013836Y376933D01*
X1011015Y378102D01*
X1008020Y378697D01*
X1004967D01*
X1001973Y378102D01*
X999152Y376933D01*
X996613Y375237D01*
X994454Y373078D01*
X992758Y370539D01*
X991723Y368040D01*
X970465D01*
X969430Y370539D01*
X967734Y373078D01*
X965574Y375237D01*
X963036Y376933D01*
X960537Y377968D01*
Y399226D01*
X963036Y400261D01*
X965574Y401958D01*
X967734Y404116D01*
X969430Y406655D01*
X970465Y409154D01*
X991723D01*
X992758Y406655D01*
X994454Y404116D01*
X996613Y401958D01*
X999152Y400261D01*
X1001973Y399093D01*
X1004967Y398497D01*
X1008020D01*
X1011015Y399093D01*
X1013836Y400261D01*
X1016375Y401958D01*
X1018533Y404116D01*
X1020230Y406655D01*
X1021398Y409476D01*
X1021994Y412471D01*
Y415524D01*
X1021398Y418518D01*
X1020230Y421339D01*
X1018533Y423878D01*
X1016375Y426037D01*
X1013836Y427733D01*
X1011015Y428901D01*
X1008020Y429497D01*
D02*
G37*
G36*
X522702Y439556D02*
X519542D01*
X516490Y438738D01*
X513754Y437158D01*
X511519Y434924D01*
X509940Y432188D01*
X509122Y429136D01*
Y425976D01*
X509940Y422924D01*
X511519Y420188D01*
X513754Y417954D01*
X516490Y416374D01*
X519542Y415556D01*
X522702D01*
X525754Y416374D01*
X528490Y417954D01*
X530724Y420188D01*
X532304Y422924D01*
X533122Y425976D01*
Y429136D01*
X532304Y432188D01*
X530724Y434924D01*
X528490Y437158D01*
X525754Y438738D01*
X522702Y439556D01*
D02*
G37*
G36*
X497302D02*
X494142D01*
X491090Y438738D01*
X488354Y437158D01*
X486119Y434924D01*
X484540Y432188D01*
X483722Y429136D01*
Y425976D01*
X484540Y422924D01*
X486119Y420188D01*
X488354Y417954D01*
X491090Y416374D01*
X494142Y415556D01*
X497302D01*
X500354Y416374D01*
X503090Y417954D01*
X505324Y420188D01*
X506904Y422924D01*
X507722Y425976D01*
Y429136D01*
X506904Y432188D01*
X505324Y434924D01*
X503090Y437158D01*
X500354Y438738D01*
X497302Y439556D01*
D02*
G37*
G36*
X212397Y437782D02*
X209237D01*
X206185Y436964D01*
X203449Y435384D01*
X201215Y433150D01*
X199635Y430414D01*
X198817Y427362D01*
Y424202D01*
X199635Y421150D01*
X201215Y418414D01*
X203449Y416180D01*
X206185Y414600D01*
X209237Y413782D01*
X212397D01*
X215449Y414600D01*
X218185Y416180D01*
X220420Y418414D01*
X221999Y421150D01*
X222817Y424202D01*
Y427362D01*
X221999Y430414D01*
X220420Y433150D01*
X218185Y435384D01*
X215449Y436964D01*
X212397Y437782D01*
D02*
G37*
G36*
X856863Y435236D02*
X853703D01*
X850651Y434418D01*
X847915Y432839D01*
X845680Y430604D01*
X844101Y427868D01*
X843283Y424816D01*
Y421656D01*
X844101Y418604D01*
X845680Y415868D01*
X847915Y413634D01*
X850651Y412054D01*
X853703Y411236D01*
X856863D01*
X859915Y412054D01*
X862651Y413634D01*
X864885Y415868D01*
X866465Y418604D01*
X867283Y421656D01*
Y424816D01*
X866465Y427868D01*
X864885Y430604D01*
X862651Y432839D01*
X859915Y434418D01*
X856863Y435236D01*
D02*
G37*
G36*
X707509Y435739D02*
X705666D01*
X703885Y435262D01*
X702289Y434340D01*
X700986Y433037D01*
X700064Y431441D01*
X699587Y429660D01*
Y427817D01*
X700064Y426037D01*
X700986Y424441D01*
X702289Y423137D01*
X703885Y422216D01*
X705666Y421739D01*
X707509D01*
X709289Y422216D01*
X710885Y423137D01*
X712153Y424406D01*
X745830D01*
X746563Y423135D01*
X745928Y422034D01*
X745383Y420000D01*
Y417893D01*
X745928Y415859D01*
X746981Y414035D01*
X748470Y412545D01*
X750295Y411492D01*
X752329Y410947D01*
X754436D01*
X756470Y411492D01*
X758295Y412545D01*
X759784Y414035D01*
X760837Y415859D01*
X761382Y417893D01*
Y420000D01*
X760837Y422034D01*
X760201Y423135D01*
X760935Y424406D01*
X817883D01*
Y421656D01*
X818701Y418604D01*
X820281Y415868D01*
X822515Y413634D01*
X825251Y412054D01*
X828303Y411236D01*
X831463D01*
X834515Y412054D01*
X837251Y413634D01*
X839485Y415868D01*
X841065Y418604D01*
X841883Y421656D01*
Y424816D01*
X841065Y427868D01*
X839485Y430604D01*
X837251Y432839D01*
X834515Y434418D01*
X831463Y435236D01*
X828303D01*
X825251Y434418D01*
X822515Y432839D01*
X822498Y432822D01*
X821243Y433072D01*
X712153D01*
X710885Y434340D01*
X709289Y435262D01*
X707509Y435739D01*
D02*
G37*
G36*
X522702Y414156D02*
X519542D01*
X516490Y413338D01*
X513754Y411758D01*
X511519Y409524D01*
X509940Y406788D01*
X509122Y403736D01*
Y400576D01*
X509940Y397524D01*
X511519Y394788D01*
X513754Y392554D01*
X516490Y390974D01*
X519542Y390156D01*
X522702D01*
X525754Y390974D01*
X528490Y392554D01*
X530724Y394788D01*
X532304Y397524D01*
X533122Y400576D01*
Y403736D01*
X532304Y406788D01*
X530724Y409524D01*
X528490Y411758D01*
X525754Y413338D01*
X522702Y414156D01*
D02*
G37*
G36*
X507722D02*
X483722D01*
Y390156D01*
X507722D01*
Y414156D01*
D02*
G37*
G36*
X212397Y412382D02*
X209237D01*
X206185Y411564D01*
X203449Y409984D01*
X201215Y407750D01*
X199635Y405014D01*
X198817Y401962D01*
Y398802D01*
X199635Y395750D01*
X201215Y393014D01*
X203449Y390780D01*
X206185Y389200D01*
X209237Y388382D01*
X212397D01*
X215449Y389200D01*
X218185Y390780D01*
X220420Y393014D01*
X221999Y395750D01*
X222817Y398802D01*
Y401962D01*
X221999Y405014D01*
X220420Y407750D01*
X218185Y409984D01*
X215449Y411564D01*
X212397Y412382D01*
D02*
G37*
G36*
X197417D02*
X173417D01*
Y388382D01*
X197417D01*
Y412382D01*
D02*
G37*
G36*
X387085Y410170D02*
X363085D01*
Y386170D01*
X387085D01*
Y410170D01*
D02*
G37*
G36*
X856863Y409836D02*
X853703D01*
X850651Y409018D01*
X847915Y407439D01*
X845680Y405204D01*
X844101Y402468D01*
X843283Y399416D01*
Y396256D01*
X844101Y393204D01*
X845680Y390468D01*
X847915Y388234D01*
X850651Y386654D01*
X853703Y385836D01*
X856863D01*
X859915Y386654D01*
X862651Y388234D01*
X864885Y390468D01*
X866465Y393204D01*
X867283Y396256D01*
Y399416D01*
X866465Y402468D01*
X864885Y405204D01*
X862651Y407439D01*
X859915Y409018D01*
X856863Y409836D01*
D02*
G37*
G36*
X831463D02*
X828303D01*
X825251Y409018D01*
X822515Y407439D01*
X820281Y405204D01*
X818701Y402468D01*
X817883Y399416D01*
Y396256D01*
X818701Y393204D01*
X820281Y390468D01*
X822515Y388234D01*
X825251Y386654D01*
X828303Y385836D01*
X831463D01*
X834515Y386654D01*
X837251Y388234D01*
X839485Y390468D01*
X841065Y393204D01*
X841883Y396256D01*
Y399416D01*
X841065Y402468D01*
X839485Y405204D01*
X837251Y407439D01*
X834515Y409018D01*
X831463Y409836D01*
D02*
G37*
G36*
X982620Y404097D02*
X979567D01*
X976573Y403502D01*
X973752Y402333D01*
X971213Y400637D01*
X969054Y398478D01*
X967358Y395939D01*
X966189Y393118D01*
X965594Y390124D01*
Y387071D01*
X966189Y384076D01*
X967358Y381255D01*
X969054Y378716D01*
X971213Y376558D01*
X973752Y374861D01*
X976573Y373693D01*
X979567Y373097D01*
X982620D01*
X985615Y373693D01*
X988436Y374861D01*
X990975Y376558D01*
X993133Y378716D01*
X994830Y381255D01*
X995998Y384076D01*
X996594Y387071D01*
Y390124D01*
X995998Y393118D01*
X994830Y395939D01*
X993133Y398478D01*
X990975Y400637D01*
X988436Y402333D01*
X985615Y403502D01*
X982620Y404097D01*
D02*
G37*
G36*
X956860Y312703D02*
X955017D01*
X953236Y312226D01*
X951640Y311305D01*
X950337Y310002D01*
X949415Y308405D01*
X948938Y306625D01*
Y304782D01*
X949401Y303053D01*
X949308Y302905D01*
X948448Y302137D01*
X947916Y302444D01*
X946136Y302921D01*
X944293D01*
X943138Y302612D01*
X942087Y303597D01*
X942155Y303849D01*
Y305693D01*
X941678Y307473D01*
X940757Y309069D01*
X939453Y310372D01*
X937857Y311294D01*
X936077Y311771D01*
X934233D01*
X932453Y311294D01*
X930857Y310372D01*
X929554Y309069D01*
X928632Y307473D01*
X928155Y305693D01*
Y303849D01*
X928632Y302069D01*
X929064Y301320D01*
X928135Y300390D01*
X928008Y300464D01*
X926228Y300941D01*
X924385D01*
X922604Y300464D01*
X921008Y299542D01*
X919705Y298239D01*
X918783Y296643D01*
X918306Y294862D01*
Y293019D01*
X918783Y291239D01*
X919705Y289643D01*
X920463Y288884D01*
Y228181D01*
X854597Y162316D01*
X853548Y160744D01*
X853179Y158891D01*
Y135000D01*
X846422D01*
Y111000D01*
X870422D01*
Y135000D01*
X862865D01*
Y156885D01*
X877806Y171826D01*
X878979Y171340D01*
Y134060D01*
X876454Y132602D01*
X874220Y130368D01*
X872640Y127632D01*
X871822Y124580D01*
Y121420D01*
X872640Y118368D01*
X874220Y115632D01*
X876454Y113398D01*
X879190Y111818D01*
X882242Y111000D01*
X885402D01*
X888454Y111818D01*
X891190Y113398D01*
X893424Y115632D01*
X895004Y118368D01*
X895822Y121420D01*
Y124580D01*
X895004Y127632D01*
X893424Y130368D01*
X891190Y132602D01*
X888665Y134060D01*
Y173442D01*
X903206Y187983D01*
X904379Y187497D01*
Y134060D01*
X901854Y132602D01*
X899620Y130368D01*
X898040Y127632D01*
X897222Y124580D01*
Y121420D01*
X898040Y118368D01*
X899620Y115632D01*
X901854Y113398D01*
X904590Y111818D01*
X907642Y111000D01*
X910802D01*
X913854Y111818D01*
X916590Y113398D01*
X918824Y115632D01*
X920404Y118368D01*
X921222Y121420D01*
Y124580D01*
X920404Y127632D01*
X918824Y130368D01*
X916590Y132602D01*
X914065Y134060D01*
Y187619D01*
X928606Y202160D01*
X929779Y201674D01*
Y134060D01*
X927254Y132602D01*
X925020Y130368D01*
X923440Y127632D01*
X922622Y124580D01*
Y121420D01*
X923440Y118368D01*
X925020Y115632D01*
X927254Y113398D01*
X929990Y111818D01*
X933042Y111000D01*
X936202D01*
X939254Y111818D01*
X941990Y113398D01*
X944224Y115632D01*
X945804Y118368D01*
X946622Y121420D01*
Y124580D01*
X945804Y127632D01*
X944224Y130368D01*
X941990Y132602D01*
X939465Y134060D01*
Y202896D01*
X954006Y217437D01*
X955179Y216950D01*
Y134060D01*
X952654Y132602D01*
X950420Y130368D01*
X948840Y127632D01*
X948022Y124580D01*
Y121420D01*
X948840Y118368D01*
X950420Y115632D01*
X952654Y113398D01*
X955390Y111818D01*
X958442Y111000D01*
X961602D01*
X964654Y111818D01*
X967390Y113398D01*
X969624Y115632D01*
X971204Y118368D01*
X972022Y121420D01*
Y124580D01*
X971204Y127632D01*
X969624Y130368D01*
X967390Y132602D01*
X964865Y134060D01*
Y219871D01*
X968721Y223728D01*
X968721Y223728D01*
X969283Y224568D01*
X969952Y224568D01*
X970631Y224300D01*
X970671Y224097D01*
X971721Y222526D01*
X980579Y213668D01*
Y134060D01*
X978054Y132602D01*
X975820Y130368D01*
X974240Y127632D01*
X973422Y124580D01*
Y121420D01*
X974240Y118368D01*
X975820Y115632D01*
X978054Y113398D01*
X980790Y111818D01*
X983842Y111000D01*
X987002D01*
X990054Y111818D01*
X992790Y113398D01*
X995024Y115632D01*
X996604Y118368D01*
X997422Y121420D01*
Y124580D01*
X996604Y127632D01*
X995024Y130368D01*
X992790Y132602D01*
X990265Y134060D01*
Y211776D01*
X991438Y212262D01*
X1005979Y197722D01*
Y134060D01*
X1003454Y132602D01*
X1001220Y130368D01*
X999640Y127632D01*
X998822Y124580D01*
Y121420D01*
X999640Y118368D01*
X1001220Y115632D01*
X1003454Y113398D01*
X1005979Y111940D01*
Y108660D01*
X1003454Y107202D01*
X1001220Y104968D01*
X999640Y102232D01*
X998822Y99180D01*
Y96020D01*
X999640Y92968D01*
X1001220Y90232D01*
X1003454Y87998D01*
X1006190Y86418D01*
X1009242Y85600D01*
X1012402D01*
X1015454Y86418D01*
X1018190Y87998D01*
X1020424Y90232D01*
X1022004Y92968D01*
X1022822Y96020D01*
Y99180D01*
X1022004Y102232D01*
X1020424Y104968D01*
X1018190Y107202D01*
X1015665Y108660D01*
Y111940D01*
X1018190Y113398D01*
X1020424Y115632D01*
X1022004Y118368D01*
X1022822Y121420D01*
Y124580D01*
X1022004Y127632D01*
X1020424Y130368D01*
X1018190Y132602D01*
X1015665Y134060D01*
Y196777D01*
X1016838Y197263D01*
X1031379Y182723D01*
Y134060D01*
X1028854Y132602D01*
X1026620Y130368D01*
X1025040Y127632D01*
X1024222Y124580D01*
Y121420D01*
X1025040Y118368D01*
X1026620Y115632D01*
X1028854Y113398D01*
X1031379Y111940D01*
Y108660D01*
X1028854Y107202D01*
X1026620Y104968D01*
X1025040Y102232D01*
X1024222Y99180D01*
Y96020D01*
X1025040Y92968D01*
X1026620Y90232D01*
X1028854Y87998D01*
X1031590Y86418D01*
X1034642Y85600D01*
X1037802D01*
X1040854Y86418D01*
X1043590Y87998D01*
X1045824Y90232D01*
X1047404Y92968D01*
X1048222Y96020D01*
Y99180D01*
X1047404Y102232D01*
X1045824Y104968D01*
X1043590Y107202D01*
X1041065Y108660D01*
Y111940D01*
X1043590Y113398D01*
X1045824Y115632D01*
X1047404Y118368D01*
X1048222Y121420D01*
Y124580D01*
X1047404Y127632D01*
X1045824Y130368D01*
X1043590Y132602D01*
X1041065Y134060D01*
Y180574D01*
X1042238Y181060D01*
X1056779Y166520D01*
Y134060D01*
X1054254Y132602D01*
X1052020Y130368D01*
X1050440Y127632D01*
X1049622Y124580D01*
Y121420D01*
X1050440Y118368D01*
X1052020Y115632D01*
X1054254Y113398D01*
X1056990Y111818D01*
X1060042Y111000D01*
X1063202D01*
X1066254Y111818D01*
X1068990Y113398D01*
X1071224Y115632D01*
X1072804Y118368D01*
X1073622Y121420D01*
Y124580D01*
X1072804Y127632D01*
X1071224Y130368D01*
X1068990Y132602D01*
X1066465Y134060D01*
Y165356D01*
X1067638Y165842D01*
X1082179Y151301D01*
Y134060D01*
X1079654Y132602D01*
X1077420Y130368D01*
X1075840Y127632D01*
X1075022Y124580D01*
Y121420D01*
X1075840Y118368D01*
X1077420Y115632D01*
X1079654Y113398D01*
X1082390Y111818D01*
X1085442Y111000D01*
X1088602D01*
X1091654Y111818D01*
X1094390Y113398D01*
X1096624Y115632D01*
X1098204Y118368D01*
X1099022Y121420D01*
Y124580D01*
X1098204Y127632D01*
X1096624Y130368D01*
X1094390Y132602D01*
X1091865Y134060D01*
Y153308D01*
X1091496Y155161D01*
X1090447Y156732D01*
X1020025Y227153D01*
Y299823D01*
X1020784Y300581D01*
X1021705Y302177D01*
X1022182Y303958D01*
Y305801D01*
X1021705Y307581D01*
X1020784Y309177D01*
X1019480Y310481D01*
X1017884Y311402D01*
X1016104Y311879D01*
X1014261D01*
X1012480Y311402D01*
X1010884Y310481D01*
X1009581Y309177D01*
X1008659Y307581D01*
X1008182Y305801D01*
Y303958D01*
X1008659Y302177D01*
X1009092Y301428D01*
X1008162Y300499D01*
X1008035Y300572D01*
X1006255Y301049D01*
X1004412D01*
X1002631Y300572D01*
X1002117Y300275D01*
X1001187Y301204D01*
X1001598Y301916D01*
X1002075Y303696D01*
Y305539D01*
X1001598Y307320D01*
X1000676Y308916D01*
X999373Y310219D01*
X997777Y311141D01*
X995996Y311618D01*
X994153D01*
X992373Y311141D01*
X990777Y310219D01*
X989473Y308916D01*
X988552Y307320D01*
X988075Y305539D01*
Y303696D01*
X988552Y301916D01*
X988984Y301167D01*
X988055Y300237D01*
X987928Y300310D01*
X986147Y300788D01*
X984304D01*
X982524Y300310D01*
X982030Y300025D01*
X981100Y300955D01*
X981669Y301940D01*
X982146Y303720D01*
Y305563D01*
X981669Y307344D01*
X980747Y308940D01*
X979444Y310243D01*
X977848Y311165D01*
X976067Y311642D01*
X974224D01*
X972444Y311165D01*
X970848Y310243D01*
X969544Y308940D01*
X968623Y307344D01*
X968146Y305563D01*
Y303720D01*
X968623Y301940D01*
X969055Y301191D01*
X968126Y300261D01*
X967999Y300334D01*
X966218Y300812D01*
X964375D01*
X962595Y300334D01*
X961599Y301226D01*
X961592Y301247D01*
X961573Y301463D01*
X962461Y303001D01*
X962938Y304782D01*
Y306625D01*
X962461Y308405D01*
X961540Y310002D01*
X960236Y311305D01*
X958640Y312226D01*
X956860Y312703D01*
D02*
G37*
G36*
X468038Y311800D02*
X466194D01*
X464414Y311323D01*
X462818Y310401D01*
X461515Y309098D01*
X460593Y307502D01*
X460116Y305721D01*
Y303878D01*
X460593Y302098D01*
X461025Y301349D01*
X460096Y300420D01*
X459969Y300493D01*
X458189Y300970D01*
X456345D01*
X454565Y300493D01*
X454050Y300196D01*
X453121Y301125D01*
X453532Y301837D01*
X454009Y303617D01*
Y305460D01*
X453532Y307241D01*
X452610Y308837D01*
X451307Y310140D01*
X449711Y311061D01*
X447930Y311539D01*
X446087D01*
X444307Y311061D01*
X442710Y310140D01*
X441407Y308837D01*
X440486Y307241D01*
X440009Y305460D01*
Y303617D01*
X440486Y301837D01*
X440918Y301088D01*
X439988Y300158D01*
X439862Y300231D01*
X438081Y300708D01*
X436238D01*
X434458Y300231D01*
X433964Y299946D01*
X433034Y300876D01*
X433603Y301861D01*
X434080Y303641D01*
Y305484D01*
X433603Y307264D01*
X432681Y308861D01*
X431378Y310164D01*
X429782Y311086D01*
X428001Y311563D01*
X426158D01*
X424378Y311086D01*
X422782Y310164D01*
X421478Y308861D01*
X420557Y307264D01*
X420080Y305484D01*
Y303641D01*
X420557Y301861D01*
X420989Y301112D01*
X420059Y300182D01*
X419933Y300255D01*
X418152Y300732D01*
X416309D01*
X414529Y300255D01*
X413737Y299798D01*
X412808Y300728D01*
X413517Y301958D01*
X413994Y303738D01*
Y305581D01*
X413517Y307362D01*
X412596Y308958D01*
X411293Y310261D01*
X409697Y311183D01*
X407916Y311660D01*
X406073D01*
X404293Y311183D01*
X402696Y310261D01*
X401954Y309519D01*
X392161D01*
X391387Y310293D01*
X389791Y311215D01*
X388010Y311692D01*
X386167D01*
X384387Y311215D01*
X382791Y310293D01*
X381488Y308990D01*
X380566Y307394D01*
X380089Y305613D01*
Y303770D01*
X380566Y301990D01*
X380998Y301241D01*
X380069Y300311D01*
X379942Y300385D01*
X378162Y300861D01*
X376318D01*
X374538Y300385D01*
X372942Y299463D01*
X371639Y298160D01*
X370717Y296563D01*
X370240Y294783D01*
Y292940D01*
X370717Y291160D01*
X371639Y289563D01*
X372397Y288805D01*
Y211615D01*
X306225Y145443D01*
X305175Y143872D01*
X304807Y142019D01*
Y135000D01*
X297650D01*
Y111000D01*
X321650D01*
Y135000D01*
X314493D01*
Y140013D01*
X329033Y154553D01*
X330207Y154067D01*
Y134060D01*
X327682Y132602D01*
X325447Y130368D01*
X323868Y127632D01*
X323050Y124580D01*
Y121420D01*
X323868Y118368D01*
X325447Y115632D01*
X327682Y113398D01*
X330418Y111818D01*
X333470Y111000D01*
X336630D01*
X339682Y111818D01*
X342418Y113398D01*
X344652Y115632D01*
X346232Y118368D01*
X347050Y121420D01*
Y124580D01*
X346232Y127632D01*
X344652Y130368D01*
X342418Y132602D01*
X339893Y134060D01*
Y154578D01*
X354433Y169119D01*
X355607Y168633D01*
Y134060D01*
X353082Y132602D01*
X350847Y130368D01*
X349268Y127632D01*
X348450Y124580D01*
Y121420D01*
X349268Y118368D01*
X350847Y115632D01*
X353082Y113398D01*
X355818Y111818D01*
X358870Y111000D01*
X362030D01*
X365082Y111818D01*
X367818Y113398D01*
X370052Y115632D01*
X371632Y118368D01*
X372450Y121420D01*
Y124580D01*
X371632Y127632D01*
X370052Y130368D01*
X367818Y132602D01*
X365293Y134060D01*
Y170325D01*
X380224Y185256D01*
X381397Y184770D01*
Y134230D01*
X381218Y134182D01*
X378482Y132602D01*
X376247Y130368D01*
X374668Y127632D01*
X373850Y124580D01*
Y121420D01*
X374668Y118368D01*
X376247Y115632D01*
X378482Y113398D01*
X381218Y111818D01*
X384270Y111000D01*
X387430D01*
X390482Y111818D01*
X393218Y113398D01*
X395452Y115632D01*
X397032Y118368D01*
X397850Y121420D01*
Y124580D01*
X397032Y127632D01*
X395452Y130368D01*
X393218Y132602D01*
X391083Y133835D01*
Y185881D01*
X410419Y205217D01*
X411118Y206262D01*
X412388Y205877D01*
Y188313D01*
X407341Y183267D01*
X406292Y181695D01*
X405923Y179842D01*
Y133781D01*
X403882Y132602D01*
X401647Y130368D01*
X400068Y127632D01*
X399250Y124580D01*
Y121420D01*
X400068Y118368D01*
X401647Y115632D01*
X403882Y113398D01*
X406618Y111818D01*
X409670Y111000D01*
X412830D01*
X415882Y111818D01*
X418618Y113398D01*
X420852Y115632D01*
X422432Y118368D01*
X423250Y121420D01*
Y124580D01*
X422432Y127632D01*
X420852Y130368D01*
X418618Y132602D01*
X415882Y134182D01*
X415609Y134255D01*
Y177836D01*
X420655Y182882D01*
X421520Y184176D01*
X422550Y184292D01*
X422953Y184215D01*
X423655Y183164D01*
X431807Y175012D01*
Y134060D01*
X429282Y132602D01*
X427047Y130368D01*
X425468Y127632D01*
X424650Y124580D01*
Y121420D01*
X425468Y118368D01*
X427047Y115632D01*
X429282Y113398D01*
X432018Y111818D01*
X435070Y111000D01*
X438230D01*
X441282Y111818D01*
X444018Y113398D01*
X446252Y115632D01*
X447832Y118368D01*
X448650Y121420D01*
Y124580D01*
X447832Y127632D01*
X446252Y130368D01*
X444018Y132602D01*
X441493Y134060D01*
Y177018D01*
X441124Y178871D01*
X440074Y180443D01*
X431923Y188594D01*
Y204832D01*
X433193Y205218D01*
X433735Y204406D01*
X457207Y180934D01*
Y134060D01*
X454682Y132602D01*
X452447Y130368D01*
X450868Y127632D01*
X450050Y124580D01*
Y121420D01*
X450868Y118368D01*
X452447Y115632D01*
X454682Y113398D01*
X457418Y111818D01*
X460470Y111000D01*
X463630D01*
X466682Y111818D01*
X469418Y113398D01*
X471652Y115632D01*
X473232Y118368D01*
X474050Y121420D01*
Y124580D01*
X473232Y127632D01*
X471652Y130368D01*
X469418Y132602D01*
X466893Y134060D01*
Y179833D01*
X468066Y180319D01*
X482607Y165778D01*
Y134060D01*
X480082Y132602D01*
X477847Y130368D01*
X476268Y127632D01*
X475450Y124580D01*
Y121420D01*
X476268Y118368D01*
X477847Y115632D01*
X480082Y113398D01*
X482818Y111818D01*
X485870Y111000D01*
X489030D01*
X492082Y111818D01*
X494818Y113398D01*
X497052Y115632D01*
X498632Y118368D01*
X499450Y121420D01*
Y124580D01*
X498632Y127632D01*
X497052Y130368D01*
X494818Y132602D01*
X492293Y134060D01*
Y165268D01*
X493466Y165754D01*
X508007Y151213D01*
Y134060D01*
X505482Y132602D01*
X503247Y130368D01*
X501668Y127632D01*
X500850Y124580D01*
Y121420D01*
X501668Y118368D01*
X503247Y115632D01*
X505482Y113398D01*
X508218Y111818D01*
X511270Y111000D01*
X514430D01*
X517482Y111818D01*
X520218Y113398D01*
X522452Y115632D01*
X524032Y118368D01*
X524850Y121420D01*
Y124580D01*
X524032Y127632D01*
X522452Y130368D01*
X520218Y132602D01*
X517693Y134060D01*
Y150604D01*
X518866Y151090D01*
X533407Y136549D01*
Y134060D01*
X530882Y132602D01*
X528647Y130368D01*
X527068Y127632D01*
X526250Y124580D01*
Y121420D01*
X527068Y118368D01*
X528647Y115632D01*
X530882Y113398D01*
X533618Y111818D01*
X536670Y111000D01*
X539830D01*
X542882Y111818D01*
X545618Y113398D01*
X547852Y115632D01*
X549432Y118368D01*
X550250Y121420D01*
Y124580D01*
X549432Y127632D01*
X547852Y130368D01*
X545618Y132602D01*
X543093Y134060D01*
Y138555D01*
X542724Y140409D01*
X541674Y141980D01*
X471959Y211695D01*
Y299743D01*
X472717Y300502D01*
X473639Y302098D01*
X474116Y303878D01*
Y305721D01*
X473639Y307502D01*
X472717Y309098D01*
X471414Y310401D01*
X469818Y311323D01*
X468038Y311800D01*
D02*
G37*
G36*
X194103Y311757D02*
X192260D01*
X190479Y311280D01*
X188883Y310358D01*
X187580Y309055D01*
X186658Y307459D01*
X186181Y305678D01*
Y303835D01*
X186658Y302055D01*
X187091Y301306D01*
X186161Y300376D01*
X186034Y300449D01*
X184254Y300926D01*
X182411D01*
X180630Y300449D01*
X180116Y300152D01*
X179186Y301082D01*
X179597Y301793D01*
X180074Y303574D01*
Y305417D01*
X179597Y307197D01*
X178675Y308793D01*
X177372Y310097D01*
X175776Y311018D01*
X173995Y311495D01*
X172152D01*
X170372Y311018D01*
X168776Y310097D01*
X167472Y308793D01*
X166551Y307197D01*
X166074Y305417D01*
Y303574D01*
X166551Y301793D01*
X166983Y301045D01*
X166054Y300115D01*
X165927Y300188D01*
X164146Y300665D01*
X162303D01*
X160523Y300188D01*
X160029Y299903D01*
X159099Y300832D01*
X159668Y301817D01*
X160145Y303598D01*
Y305441D01*
X159668Y307221D01*
X158746Y308817D01*
X157443Y310121D01*
X155847Y311042D01*
X154066Y311519D01*
X152223D01*
X150443Y311042D01*
X148847Y310121D01*
X147544Y308817D01*
X146622Y307221D01*
X146145Y305441D01*
Y303598D01*
X146622Y301817D01*
X147054Y301069D01*
X146125Y300139D01*
X145998Y300212D01*
X144218Y300689D01*
X142374D01*
X140594Y300212D01*
X139803Y299755D01*
X138873Y300685D01*
X139583Y301915D01*
X140060Y303695D01*
Y305538D01*
X139583Y307318D01*
X138661Y308915D01*
X137358Y310218D01*
X135762Y311139D01*
X133981Y311616D01*
X132138D01*
X130358Y311139D01*
X128762Y310218D01*
X128020Y309475D01*
X118227D01*
X117452Y310250D01*
X115856Y311171D01*
X114076Y311649D01*
X112233D01*
X110452Y311171D01*
X108856Y310250D01*
X107553Y308947D01*
X106631Y307350D01*
X106154Y305570D01*
Y303727D01*
X106631Y301947D01*
X107064Y301198D01*
X106134Y300268D01*
X106007Y300341D01*
X104227Y300818D01*
X102384D01*
X100603Y300341D01*
X99007Y299420D01*
X97704Y298116D01*
X96782Y296520D01*
X96305Y294740D01*
Y292897D01*
X96782Y291116D01*
X97704Y289520D01*
X98462Y288762D01*
Y219615D01*
X28072Y149224D01*
X27022Y147653D01*
X26653Y145800D01*
Y135000D01*
X20954D01*
Y111000D01*
X44954D01*
Y135000D01*
X36339D01*
Y143794D01*
X52338Y159792D01*
X53511Y159306D01*
Y134060D01*
X50986Y132602D01*
X48752Y130368D01*
X47172Y127632D01*
X46354Y124580D01*
Y121420D01*
X47172Y118368D01*
X48752Y115632D01*
X50986Y113398D01*
X53723Y111818D01*
X56775Y111000D01*
X59934D01*
X62986Y111818D01*
X65723Y113398D01*
X67957Y115632D01*
X69537Y118368D01*
X70354Y121420D01*
Y124580D01*
X69537Y127632D01*
X67957Y130368D01*
X65723Y132602D01*
X63197Y134060D01*
Y159989D01*
X77738Y174530D01*
X78911Y174044D01*
Y134060D01*
X76386Y132602D01*
X74152Y130368D01*
X72572Y127632D01*
X71754Y124580D01*
Y121420D01*
X72572Y118368D01*
X74152Y115632D01*
X76386Y113398D01*
X79123Y111818D01*
X82175Y111000D01*
X85334D01*
X88386Y111818D01*
X91123Y113398D01*
X93357Y115632D01*
X94937Y118368D01*
X95754Y121420D01*
Y124580D01*
X94937Y127632D01*
X93357Y130368D01*
X91123Y132602D01*
X88597Y134060D01*
Y174969D01*
X103138Y189510D01*
X104311Y189024D01*
Y134060D01*
X101786Y132602D01*
X99552Y130368D01*
X97972Y127632D01*
X97155Y124580D01*
Y121420D01*
X97972Y118368D01*
X99552Y115632D01*
X101786Y113398D01*
X104523Y111818D01*
X107575Y111000D01*
X110734D01*
X113786Y111818D01*
X116523Y113398D01*
X118757Y115632D01*
X120337Y118368D01*
X121154Y121420D01*
Y124580D01*
X120337Y127632D01*
X118757Y130368D01*
X116523Y132602D01*
X113997Y134060D01*
Y189701D01*
X136484Y212188D01*
X136484Y212188D01*
X137183Y213233D01*
X138453Y212848D01*
Y173085D01*
X131130Y165762D01*
X130080Y164191D01*
X129711Y162337D01*
Y134060D01*
X127186Y132602D01*
X124952Y130368D01*
X123372Y127632D01*
X122555Y124580D01*
Y121420D01*
X123372Y118368D01*
X124952Y115632D01*
X127186Y113398D01*
X129923Y111818D01*
X132975Y111000D01*
X136134D01*
X139186Y111818D01*
X141923Y113398D01*
X144157Y115632D01*
X145737Y118368D01*
X146554Y121420D01*
Y124580D01*
X145737Y127632D01*
X144157Y130368D01*
X141923Y132602D01*
X139397Y134060D01*
Y160331D01*
X146721Y167654D01*
X147265Y168469D01*
X148613Y168201D01*
X148671Y167911D01*
X149720Y166340D01*
X155111Y160949D01*
Y134060D01*
X152586Y132602D01*
X150352Y130368D01*
X148772Y127632D01*
X147955Y124580D01*
Y121420D01*
X148772Y118368D01*
X150352Y115632D01*
X152586Y113398D01*
X155323Y111818D01*
X158375Y111000D01*
X161534D01*
X164586Y111818D01*
X167323Y113398D01*
X169557Y115632D01*
X171137Y118368D01*
X171954Y121420D01*
Y124580D01*
X171137Y127632D01*
X169557Y130368D01*
X167323Y132602D01*
X164797Y134060D01*
Y162955D01*
X164797Y162955D01*
X164429Y164808D01*
X163379Y166380D01*
X163379Y166380D01*
X157988Y171770D01*
Y212474D01*
X159258Y212859D01*
X159800Y212047D01*
X180511Y191336D01*
Y134060D01*
X177986Y132602D01*
X175752Y130368D01*
X174172Y127632D01*
X173354Y124580D01*
Y121420D01*
X174172Y118368D01*
X175752Y115632D01*
X177986Y113398D01*
X180723Y111818D01*
X183775Y111000D01*
X186934D01*
X189986Y111818D01*
X192723Y113398D01*
X194957Y115632D01*
X196537Y118368D01*
X197354Y121420D01*
Y124580D01*
X196537Y127632D01*
X194957Y130368D01*
X192723Y132602D01*
X190198Y134060D01*
Y192761D01*
X191467Y193287D01*
X203753Y181001D01*
Y132814D01*
X203386Y132602D01*
X201152Y130368D01*
X199572Y127632D01*
X198755Y124580D01*
Y121420D01*
X199572Y118368D01*
X201152Y115632D01*
X203386Y113398D01*
X206123Y111818D01*
X209175Y111000D01*
X212334D01*
X215386Y111818D01*
X218123Y113398D01*
X220357Y115632D01*
X221937Y118368D01*
X222754Y121420D01*
Y124580D01*
X221937Y127632D01*
X220357Y130368D01*
X218123Y132602D01*
X215386Y134182D01*
X213440Y134704D01*
Y179655D01*
X214613Y180141D01*
X232781Y161973D01*
Y134519D01*
X231523Y134182D01*
X228786Y132602D01*
X226552Y130368D01*
X224972Y127632D01*
X224154Y124580D01*
Y121420D01*
X224972Y118368D01*
X226552Y115632D01*
X228786Y113398D01*
X231523Y111818D01*
X234575Y111000D01*
X237734D01*
X240786Y111818D01*
X243523Y113398D01*
X245757Y115632D01*
X247337Y118368D01*
X248154Y121420D01*
Y124580D01*
X247337Y127632D01*
X245757Y130368D01*
X243523Y132602D01*
X242467Y133212D01*
Y160523D01*
X243640Y161009D01*
X256711Y147938D01*
Y134060D01*
X254186Y132602D01*
X251952Y130368D01*
X250372Y127632D01*
X249555Y124580D01*
Y121420D01*
X250372Y118368D01*
X251952Y115632D01*
X254186Y113398D01*
X256923Y111818D01*
X259975Y111000D01*
X263134D01*
X266186Y111818D01*
X268923Y113398D01*
X271157Y115632D01*
X272737Y118368D01*
X273554Y121420D01*
Y124580D01*
X272737Y127632D01*
X271157Y130368D01*
X268923Y132602D01*
X266397Y134060D01*
Y149944D01*
X266029Y151798D01*
X264979Y153369D01*
X198024Y220323D01*
Y299700D01*
X198783Y300459D01*
X199704Y302055D01*
X200181Y303835D01*
Y305678D01*
X199704Y307459D01*
X198783Y309055D01*
X197479Y310358D01*
X195883Y311280D01*
X194103Y311757D01*
D02*
G37*
G36*
X1088602Y109600D02*
X1085442D01*
X1082390Y108782D01*
X1079654Y107202D01*
X1077420Y104968D01*
X1075840Y102232D01*
X1075022Y99180D01*
Y96020D01*
X1075840Y92968D01*
X1077420Y90232D01*
X1079654Y87998D01*
X1082390Y86418D01*
X1085442Y85600D01*
X1088602D01*
X1091654Y86418D01*
X1094390Y87998D01*
X1096624Y90232D01*
X1098204Y92968D01*
X1099022Y96020D01*
Y99180D01*
X1098204Y102232D01*
X1096624Y104968D01*
X1094390Y107202D01*
X1091654Y108782D01*
X1088602Y109600D01*
D02*
G37*
G36*
X1063202D02*
X1060042D01*
X1056990Y108782D01*
X1054254Y107202D01*
X1052020Y104968D01*
X1050440Y102232D01*
X1049622Y99180D01*
Y96020D01*
X1050440Y92968D01*
X1052020Y90232D01*
X1054254Y87998D01*
X1056990Y86418D01*
X1060042Y85600D01*
X1063202D01*
X1066254Y86418D01*
X1068990Y87998D01*
X1071224Y90232D01*
X1072804Y92968D01*
X1073622Y96020D01*
Y99180D01*
X1072804Y102232D01*
X1071224Y104968D01*
X1068990Y107202D01*
X1066254Y108782D01*
X1063202Y109600D01*
D02*
G37*
G36*
X987002D02*
X983842D01*
X980790Y108782D01*
X978054Y107202D01*
X975820Y104968D01*
X974240Y102232D01*
X973422Y99180D01*
Y96020D01*
X974240Y92968D01*
X975820Y90232D01*
X978054Y87998D01*
X980790Y86418D01*
X983842Y85600D01*
X987002D01*
X990054Y86418D01*
X992790Y87998D01*
X995024Y90232D01*
X996604Y92968D01*
X997422Y96020D01*
Y99180D01*
X996604Y102232D01*
X995024Y104968D01*
X992790Y107202D01*
X990054Y108782D01*
X987002Y109600D01*
D02*
G37*
G36*
X961602D02*
X958442D01*
X955390Y108782D01*
X952654Y107202D01*
X950420Y104968D01*
X948840Y102232D01*
X948022Y99180D01*
Y96020D01*
X948840Y92968D01*
X950420Y90232D01*
X952654Y87998D01*
X955390Y86418D01*
X958442Y85600D01*
X961602D01*
X964654Y86418D01*
X967390Y87998D01*
X969624Y90232D01*
X971204Y92968D01*
X972022Y96020D01*
Y99180D01*
X971204Y102232D01*
X969624Y104968D01*
X967390Y107202D01*
X964654Y108782D01*
X961602Y109600D01*
D02*
G37*
G36*
X936202D02*
X933042D01*
X929990Y108782D01*
X927254Y107202D01*
X925020Y104968D01*
X923440Y102232D01*
X922622Y99180D01*
Y96020D01*
X923440Y92968D01*
X925020Y90232D01*
X927254Y87998D01*
X929990Y86418D01*
X933042Y85600D01*
X936202D01*
X939254Y86418D01*
X941990Y87998D01*
X944224Y90232D01*
X945804Y92968D01*
X946622Y96020D01*
Y99180D01*
X945804Y102232D01*
X944224Y104968D01*
X941990Y107202D01*
X939254Y108782D01*
X936202Y109600D01*
D02*
G37*
G36*
X910802D02*
X907642D01*
X904590Y108782D01*
X901854Y107202D01*
X899620Y104968D01*
X898040Y102232D01*
X897222Y99180D01*
Y96020D01*
X898040Y92968D01*
X899620Y90232D01*
X901854Y87998D01*
X904590Y86418D01*
X907642Y85600D01*
X910802D01*
X913854Y86418D01*
X916590Y87998D01*
X918824Y90232D01*
X920404Y92968D01*
X921222Y96020D01*
Y99180D01*
X920404Y102232D01*
X918824Y104968D01*
X916590Y107202D01*
X913854Y108782D01*
X910802Y109600D01*
D02*
G37*
G36*
X885402D02*
X882242D01*
X879190Y108782D01*
X876454Y107202D01*
X874220Y104968D01*
X872640Y102232D01*
X871822Y99180D01*
Y96020D01*
X872640Y92968D01*
X874220Y90232D01*
X876454Y87998D01*
X879190Y86418D01*
X882242Y85600D01*
X885402D01*
X888454Y86418D01*
X891190Y87998D01*
X893424Y90232D01*
X895004Y92968D01*
X895822Y96020D01*
Y99180D01*
X895004Y102232D01*
X893424Y104968D01*
X891190Y107202D01*
X888454Y108782D01*
X885402Y109600D01*
D02*
G37*
G36*
X860002D02*
X856842D01*
X853790Y108782D01*
X851054Y107202D01*
X848820Y104968D01*
X847240Y102232D01*
X846422Y99180D01*
Y96020D01*
X847240Y92968D01*
X848820Y90232D01*
X851054Y87998D01*
X853790Y86418D01*
X856842Y85600D01*
X860002D01*
X863054Y86418D01*
X865790Y87998D01*
X868024Y90232D01*
X869604Y92968D01*
X870422Y96020D01*
Y99180D01*
X869604Y102232D01*
X868024Y104968D01*
X865790Y107202D01*
X863054Y108782D01*
X860002Y109600D01*
D02*
G37*
G36*
X811755D02*
X808596D01*
X805544Y108782D01*
X802807Y107202D01*
X800573Y104968D01*
X798993Y102232D01*
X798175Y99180D01*
Y96020D01*
X798993Y92968D01*
X800573Y90232D01*
X802807Y87998D01*
X805544Y86418D01*
X808596Y85600D01*
X811755D01*
X814807Y86418D01*
X817543Y87998D01*
X819778Y90232D01*
X821357Y92968D01*
X822175Y96020D01*
Y99180D01*
X821357Y102232D01*
X819778Y104968D01*
X817543Y107202D01*
X814807Y108782D01*
X811755Y109600D01*
D02*
G37*
G36*
X786355D02*
X783195D01*
X780144Y108782D01*
X777407Y107202D01*
X775173Y104968D01*
X773593Y102232D01*
X772775Y99180D01*
Y96020D01*
X773593Y92968D01*
X775173Y90232D01*
X777407Y87998D01*
X780144Y86418D01*
X783195Y85600D01*
X786355D01*
X789407Y86418D01*
X792143Y87998D01*
X794378Y90232D01*
X795957Y92968D01*
X796775Y96020D01*
Y99180D01*
X795957Y102232D01*
X794378Y104968D01*
X792143Y107202D01*
X789407Y108782D01*
X786355Y109600D01*
D02*
G37*
G36*
X760955D02*
X757795D01*
X754743Y108782D01*
X752007Y107202D01*
X749773Y104968D01*
X748193Y102232D01*
X747375Y99180D01*
Y96020D01*
X748193Y92968D01*
X749773Y90232D01*
X752007Y87998D01*
X754743Y86418D01*
X757795Y85600D01*
X760955D01*
X764007Y86418D01*
X766743Y87998D01*
X768978Y90232D01*
X770557Y92968D01*
X771375Y96020D01*
Y99180D01*
X770557Y102232D01*
X768978Y104968D01*
X766743Y107202D01*
X764007Y108782D01*
X760955Y109600D01*
D02*
G37*
G36*
X735555D02*
X732395D01*
X729343Y108782D01*
X726607Y107202D01*
X724373Y104968D01*
X722793Y102232D01*
X721975Y99180D01*
Y96020D01*
X722793Y92968D01*
X724373Y90232D01*
X726607Y87998D01*
X729343Y86418D01*
X732395Y85600D01*
X735555D01*
X738607Y86418D01*
X741344Y87998D01*
X743578Y90232D01*
X745157Y92968D01*
X745975Y96020D01*
Y99180D01*
X745157Y102232D01*
X743578Y104968D01*
X741344Y107202D01*
X738607Y108782D01*
X735555Y109600D01*
D02*
G37*
G36*
X710155D02*
X706995D01*
X703943Y108782D01*
X701207Y107202D01*
X698973Y104968D01*
X697393Y102232D01*
X696575Y99180D01*
Y96020D01*
X697393Y92968D01*
X698973Y90232D01*
X701207Y87998D01*
X703943Y86418D01*
X706995Y85600D01*
X710155D01*
X713207Y86418D01*
X715944Y87998D01*
X718178Y90232D01*
X719758Y92968D01*
X720575Y96020D01*
Y99180D01*
X719758Y102232D01*
X718178Y104968D01*
X715944Y107202D01*
X713207Y108782D01*
X710155Y109600D01*
D02*
G37*
G36*
X608555D02*
X605396D01*
X602343Y108782D01*
X599607Y107202D01*
X597373Y104968D01*
X595793Y102232D01*
X594975Y99180D01*
Y96020D01*
X595793Y92968D01*
X597373Y90232D01*
X599607Y87998D01*
X602343Y86418D01*
X605396Y85600D01*
X608555D01*
X611607Y86418D01*
X614343Y87998D01*
X616578Y90232D01*
X618158Y92968D01*
X618975Y96020D01*
Y99180D01*
X618158Y102232D01*
X616578Y104968D01*
X614343Y107202D01*
X611607Y108782D01*
X608555Y109600D01*
D02*
G37*
G36*
X583155D02*
X579995D01*
X576944Y108782D01*
X574207Y107202D01*
X571973Y104968D01*
X570393Y102232D01*
X569575Y99180D01*
Y96020D01*
X570393Y92968D01*
X571973Y90232D01*
X574207Y87998D01*
X576944Y86418D01*
X579995Y85600D01*
X583155D01*
X586207Y86418D01*
X588943Y87998D01*
X591178Y90232D01*
X592757Y92968D01*
X593575Y96020D01*
Y99180D01*
X592757Y102232D01*
X591178Y104968D01*
X588943Y107202D01*
X586207Y108782D01*
X583155Y109600D01*
D02*
G37*
G36*
X539830D02*
X536670D01*
X533618Y108782D01*
X530882Y107202D01*
X528647Y104968D01*
X527068Y102232D01*
X526250Y99180D01*
Y96020D01*
X527068Y92968D01*
X528647Y90232D01*
X530882Y87998D01*
X533618Y86418D01*
X536670Y85600D01*
X539830D01*
X542882Y86418D01*
X545618Y87998D01*
X547852Y90232D01*
X549432Y92968D01*
X550250Y96020D01*
Y99180D01*
X549432Y102232D01*
X547852Y104968D01*
X545618Y107202D01*
X542882Y108782D01*
X539830Y109600D01*
D02*
G37*
G36*
X514430D02*
X511270D01*
X508218Y108782D01*
X505482Y107202D01*
X503247Y104968D01*
X501668Y102232D01*
X500850Y99180D01*
Y96020D01*
X501668Y92968D01*
X503247Y90232D01*
X505482Y87998D01*
X508218Y86418D01*
X511270Y85600D01*
X514430D01*
X517482Y86418D01*
X520218Y87998D01*
X522452Y90232D01*
X524032Y92968D01*
X524850Y96020D01*
Y99180D01*
X524032Y102232D01*
X522452Y104968D01*
X520218Y107202D01*
X517482Y108782D01*
X514430Y109600D01*
D02*
G37*
G36*
X489030D02*
X485870D01*
X482818Y108782D01*
X480082Y107202D01*
X477847Y104968D01*
X476268Y102232D01*
X475450Y99180D01*
Y96020D01*
X476268Y92968D01*
X477847Y90232D01*
X480082Y87998D01*
X482818Y86418D01*
X485870Y85600D01*
X489030D01*
X492082Y86418D01*
X494818Y87998D01*
X497052Y90232D01*
X498632Y92968D01*
X499450Y96020D01*
Y99180D01*
X498632Y102232D01*
X497052Y104968D01*
X494818Y107202D01*
X492082Y108782D01*
X489030Y109600D01*
D02*
G37*
G36*
X463630D02*
X460470D01*
X457418Y108782D01*
X454682Y107202D01*
X452447Y104968D01*
X450868Y102232D01*
X450050Y99180D01*
Y96020D01*
X450868Y92968D01*
X452447Y90232D01*
X454682Y87998D01*
X457418Y86418D01*
X460470Y85600D01*
X463630D01*
X466682Y86418D01*
X469418Y87998D01*
X471652Y90232D01*
X473232Y92968D01*
X474050Y96020D01*
Y99180D01*
X473232Y102232D01*
X471652Y104968D01*
X469418Y107202D01*
X466682Y108782D01*
X463630Y109600D01*
D02*
G37*
G36*
X438230D02*
X435070D01*
X432018Y108782D01*
X429282Y107202D01*
X427047Y104968D01*
X425468Y102232D01*
X424650Y99180D01*
Y96020D01*
X425468Y92968D01*
X427047Y90232D01*
X429282Y87998D01*
X432018Y86418D01*
X435070Y85600D01*
X438230D01*
X441282Y86418D01*
X444018Y87998D01*
X446252Y90232D01*
X447832Y92968D01*
X448650Y96020D01*
Y99180D01*
X447832Y102232D01*
X446252Y104968D01*
X444018Y107202D01*
X441282Y108782D01*
X438230Y109600D01*
D02*
G37*
G36*
X412830D02*
X409670D01*
X406618Y108782D01*
X403882Y107202D01*
X401647Y104968D01*
X400068Y102232D01*
X399250Y99180D01*
Y96020D01*
X400068Y92968D01*
X401647Y90232D01*
X403882Y87998D01*
X406618Y86418D01*
X409670Y85600D01*
X412830D01*
X415882Y86418D01*
X418618Y87998D01*
X420852Y90232D01*
X422432Y92968D01*
X423250Y96020D01*
Y99180D01*
X422432Y102232D01*
X420852Y104968D01*
X418618Y107202D01*
X415882Y108782D01*
X412830Y109600D01*
D02*
G37*
G36*
X387430D02*
X384270D01*
X381218Y108782D01*
X378482Y107202D01*
X376247Y104968D01*
X374668Y102232D01*
X373850Y99180D01*
Y96020D01*
X374668Y92968D01*
X376247Y90232D01*
X378482Y87998D01*
X381218Y86418D01*
X384270Y85600D01*
X387430D01*
X390482Y86418D01*
X393218Y87998D01*
X395452Y90232D01*
X397032Y92968D01*
X397850Y96020D01*
Y99180D01*
X397032Y102232D01*
X395452Y104968D01*
X393218Y107202D01*
X390482Y108782D01*
X387430Y109600D01*
D02*
G37*
G36*
X362030D02*
X358870D01*
X355818Y108782D01*
X353082Y107202D01*
X350847Y104968D01*
X349268Y102232D01*
X348450Y99180D01*
Y96020D01*
X349268Y92968D01*
X350847Y90232D01*
X353082Y87998D01*
X355818Y86418D01*
X358870Y85600D01*
X362030D01*
X365082Y86418D01*
X367818Y87998D01*
X370052Y90232D01*
X371632Y92968D01*
X372450Y96020D01*
Y99180D01*
X371632Y102232D01*
X370052Y104968D01*
X367818Y107202D01*
X365082Y108782D01*
X362030Y109600D01*
D02*
G37*
G36*
X336630D02*
X333470D01*
X330418Y108782D01*
X327682Y107202D01*
X325447Y104968D01*
X323868Y102232D01*
X323050Y99180D01*
Y96020D01*
X323868Y92968D01*
X325447Y90232D01*
X327682Y87998D01*
X330418Y86418D01*
X333470Y85600D01*
X336630D01*
X339682Y86418D01*
X342418Y87998D01*
X344652Y90232D01*
X346232Y92968D01*
X347050Y96020D01*
Y99180D01*
X346232Y102232D01*
X344652Y104968D01*
X342418Y107202D01*
X339682Y108782D01*
X336630Y109600D01*
D02*
G37*
G36*
X311230D02*
X308070D01*
X305018Y108782D01*
X302282Y107202D01*
X300047Y104968D01*
X298468Y102232D01*
X297650Y99180D01*
Y96020D01*
X298468Y92968D01*
X300047Y90232D01*
X302282Y87998D01*
X305018Y86418D01*
X308070Y85600D01*
X311230D01*
X314282Y86418D01*
X317018Y87998D01*
X319252Y90232D01*
X320832Y92968D01*
X321650Y96020D01*
Y99180D01*
X320832Y102232D01*
X319252Y104968D01*
X317018Y107202D01*
X314282Y108782D01*
X311230Y109600D01*
D02*
G37*
G36*
X263134D02*
X259975D01*
X256923Y108782D01*
X254186Y107202D01*
X251952Y104968D01*
X250372Y102232D01*
X249555Y99180D01*
Y96020D01*
X250372Y92968D01*
X251952Y90232D01*
X254186Y87998D01*
X256923Y86418D01*
X259975Y85600D01*
X263134D01*
X266186Y86418D01*
X268923Y87998D01*
X271157Y90232D01*
X272737Y92968D01*
X273554Y96020D01*
Y99180D01*
X272737Y102232D01*
X271157Y104968D01*
X268923Y107202D01*
X266186Y108782D01*
X263134Y109600D01*
D02*
G37*
G36*
X237734D02*
X234575D01*
X231523Y108782D01*
X228786Y107202D01*
X226552Y104968D01*
X224972Y102232D01*
X224154Y99180D01*
Y96020D01*
X224972Y92968D01*
X226552Y90232D01*
X228786Y87998D01*
X231523Y86418D01*
X234575Y85600D01*
X237734D01*
X240786Y86418D01*
X243523Y87998D01*
X245757Y90232D01*
X247337Y92968D01*
X248154Y96020D01*
Y99180D01*
X247337Y102232D01*
X245757Y104968D01*
X243523Y107202D01*
X240786Y108782D01*
X237734Y109600D01*
D02*
G37*
G36*
X212334D02*
X209175D01*
X206123Y108782D01*
X203386Y107202D01*
X201152Y104968D01*
X199572Y102232D01*
X198755Y99180D01*
Y96020D01*
X199572Y92968D01*
X201152Y90232D01*
X203386Y87998D01*
X206123Y86418D01*
X209175Y85600D01*
X212334D01*
X215386Y86418D01*
X218123Y87998D01*
X220357Y90232D01*
X221937Y92968D01*
X222754Y96020D01*
Y99180D01*
X221937Y102232D01*
X220357Y104968D01*
X218123Y107202D01*
X215386Y108782D01*
X212334Y109600D01*
D02*
G37*
G36*
X186934D02*
X183775D01*
X180723Y108782D01*
X177986Y107202D01*
X175752Y104968D01*
X174172Y102232D01*
X173354Y99180D01*
Y96020D01*
X174172Y92968D01*
X175752Y90232D01*
X177986Y87998D01*
X180723Y86418D01*
X183775Y85600D01*
X186934D01*
X189986Y86418D01*
X192723Y87998D01*
X194957Y90232D01*
X196537Y92968D01*
X197354Y96020D01*
Y99180D01*
X196537Y102232D01*
X194957Y104968D01*
X192723Y107202D01*
X189986Y108782D01*
X186934Y109600D01*
D02*
G37*
G36*
X161534D02*
X158375D01*
X155323Y108782D01*
X152586Y107202D01*
X150352Y104968D01*
X148772Y102232D01*
X147955Y99180D01*
Y96020D01*
X148772Y92968D01*
X150352Y90232D01*
X152586Y87998D01*
X155323Y86418D01*
X158375Y85600D01*
X161534D01*
X164586Y86418D01*
X167323Y87998D01*
X169557Y90232D01*
X171137Y92968D01*
X171954Y96020D01*
Y99180D01*
X171137Y102232D01*
X169557Y104968D01*
X167323Y107202D01*
X164586Y108782D01*
X161534Y109600D01*
D02*
G37*
G36*
X136134D02*
X132975D01*
X129923Y108782D01*
X127186Y107202D01*
X124952Y104968D01*
X123372Y102232D01*
X122555Y99180D01*
Y96020D01*
X123372Y92968D01*
X124952Y90232D01*
X127186Y87998D01*
X129923Y86418D01*
X132975Y85600D01*
X136134D01*
X139186Y86418D01*
X141923Y87998D01*
X144157Y90232D01*
X145737Y92968D01*
X146554Y96020D01*
Y99180D01*
X145737Y102232D01*
X144157Y104968D01*
X141923Y107202D01*
X139186Y108782D01*
X136134Y109600D01*
D02*
G37*
G36*
X110734D02*
X107575D01*
X104523Y108782D01*
X101786Y107202D01*
X99552Y104968D01*
X97972Y102232D01*
X97155Y99180D01*
Y96020D01*
X97972Y92968D01*
X99552Y90232D01*
X101786Y87998D01*
X104523Y86418D01*
X107575Y85600D01*
X110734D01*
X113786Y86418D01*
X116523Y87998D01*
X118757Y90232D01*
X120337Y92968D01*
X121154Y96020D01*
Y99180D01*
X120337Y102232D01*
X118757Y104968D01*
X116523Y107202D01*
X113786Y108782D01*
X110734Y109600D01*
D02*
G37*
G36*
X85334D02*
X82175D01*
X79123Y108782D01*
X76386Y107202D01*
X74152Y104968D01*
X72572Y102232D01*
X71754Y99180D01*
Y96020D01*
X72572Y92968D01*
X74152Y90232D01*
X76386Y87998D01*
X79123Y86418D01*
X82175Y85600D01*
X85334D01*
X88386Y86418D01*
X91123Y87998D01*
X93357Y90232D01*
X94937Y92968D01*
X95754Y96020D01*
Y99180D01*
X94937Y102232D01*
X93357Y104968D01*
X91123Y107202D01*
X88386Y108782D01*
X85334Y109600D01*
D02*
G37*
G36*
X59934D02*
X56775D01*
X53723Y108782D01*
X50986Y107202D01*
X48752Y104968D01*
X47172Y102232D01*
X46354Y99180D01*
Y96020D01*
X47172Y92968D01*
X48752Y90232D01*
X50986Y87998D01*
X53723Y86418D01*
X56775Y85600D01*
X59934D01*
X62986Y86418D01*
X65723Y87998D01*
X67957Y90232D01*
X69537Y92968D01*
X70354Y96020D01*
Y99180D01*
X69537Y102232D01*
X67957Y104968D01*
X65723Y107202D01*
X62986Y108782D01*
X59934Y109600D01*
D02*
G37*
G36*
X34534D02*
X31375D01*
X28323Y108782D01*
X25586Y107202D01*
X23352Y104968D01*
X21772Y102232D01*
X20954Y99180D01*
Y96020D01*
X21772Y92968D01*
X23352Y90232D01*
X25586Y87998D01*
X28323Y86418D01*
X31375Y85600D01*
X34534D01*
X37586Y86418D01*
X40323Y87998D01*
X42557Y90232D01*
X44137Y92968D01*
X44954Y96020D01*
Y99180D01*
X44137Y102232D01*
X42557Y104968D01*
X40323Y107202D01*
X37586Y108782D01*
X34534Y109600D01*
D02*
G37*
G36*
X1092204Y78000D02*
X1087796D01*
X1083443Y77311D01*
X1079252Y75949D01*
X1075325Y73948D01*
X1071759Y71357D01*
X1068643Y68241D01*
X1066052Y64675D01*
X1064051Y60748D01*
X1062690Y56557D01*
X1062000Y52204D01*
Y47796D01*
X1062690Y43443D01*
X1064051Y39252D01*
X1066052Y35325D01*
X1068643Y31759D01*
X1071759Y28643D01*
X1075325Y26052D01*
X1079252Y24051D01*
X1083443Y22689D01*
X1087796Y22000D01*
X1092204D01*
X1096557Y22689D01*
X1100748Y24051D01*
X1104675Y26052D01*
X1108241Y28643D01*
X1111357Y31759D01*
X1113948Y35325D01*
X1115949Y39252D01*
X1117310Y43443D01*
X1118000Y47796D01*
Y52204D01*
X1117310Y56557D01*
X1115949Y60748D01*
X1113948Y64675D01*
X1111357Y68241D01*
X1108241Y71357D01*
X1104675Y73948D01*
X1100748Y75949D01*
X1096557Y77311D01*
X1092204Y78000D01*
D02*
G37*
G36*
X52204D02*
X47796D01*
X43443Y77311D01*
X39252Y75949D01*
X35325Y73948D01*
X31759Y71357D01*
X28643Y68241D01*
X26052Y64675D01*
X24051Y60748D01*
X22689Y56557D01*
X22000Y52204D01*
Y47796D01*
X22689Y43443D01*
X24051Y39252D01*
X26052Y35325D01*
X28643Y31759D01*
X31759Y28643D01*
X35325Y26052D01*
X39252Y24051D01*
X43443Y22689D01*
X47796Y22000D01*
X52204D01*
X56557Y22689D01*
X60748Y24051D01*
X64675Y26052D01*
X68241Y28643D01*
X71357Y31759D01*
X73948Y35325D01*
X75949Y39252D01*
X77311Y43443D01*
X78000Y47796D01*
Y52204D01*
X77311Y56557D01*
X75949Y60748D01*
X73948Y64675D01*
X71357Y68241D01*
X68241Y71357D01*
X64675Y73948D01*
X60748Y75949D01*
X56557Y77311D01*
X52204Y78000D01*
D02*
G37*
%LPD*%
G36*
X486421Y562226D02*
X486119Y561924D01*
X484540Y559188D01*
X483722Y556136D01*
Y552976D01*
X484540Y549924D01*
X486119Y547188D01*
X486361Y546946D01*
X485875Y545773D01*
X483274D01*
X483273Y545773D01*
X481713Y545462D01*
X480390Y544578D01*
X480390Y544578D01*
X430264Y494453D01*
X429091Y494939D01*
Y508280D01*
X484211Y563399D01*
X485935D01*
X486421Y562226D01*
D02*
G37*
G36*
X484927Y536989D02*
X485553Y535542D01*
X484540Y533788D01*
X483722Y530736D01*
Y527576D01*
X484540Y524524D01*
X485417Y523004D01*
X484684Y521734D01*
X482189D01*
X482189Y521734D01*
X480629Y521424D01*
X479305Y520540D01*
X479305Y520540D01*
X436185Y477419D01*
X434915Y477945D01*
Y487568D01*
X484446Y537099D01*
X484927Y536989D01*
D02*
G37*
G36*
X486305Y587509D02*
X486119Y587324D01*
X484540Y584588D01*
X483722Y581536D01*
Y578376D01*
X484540Y575324D01*
X485982Y572826D01*
X485537Y571556D01*
X482521D01*
X480961Y571245D01*
X479638Y570362D01*
X479637Y570361D01*
X424150Y514873D01*
X422976Y515359D01*
Y528863D01*
X482796Y588683D01*
X485819D01*
X486305Y587509D01*
D02*
G37*
G36*
X652932Y201389D02*
Y134060D01*
X650407Y132602D01*
X648173Y130368D01*
X646593Y127632D01*
X645775Y124580D01*
Y121420D01*
X646593Y118368D01*
X648173Y115632D01*
X650407Y113398D01*
X653143Y111818D01*
X656196Y111000D01*
X659355D01*
X661934Y111691D01*
X664701Y108924D01*
X663922Y107908D01*
X662407Y108782D01*
X659355Y109600D01*
X656196D01*
X653143Y108782D01*
X653142Y108781D01*
X643557Y118367D01*
X643558Y118368D01*
X644375Y121420D01*
Y124580D01*
X643558Y127632D01*
X641978Y130368D01*
X639743Y132602D01*
X637218Y134060D01*
Y187471D01*
X651662Y201915D01*
X652932Y201389D01*
D02*
G37*
D10*
X608948Y442800D02*
X641082D01*
X599021Y452727D02*
X608948Y442800D01*
X641082D02*
X656562Y427320D01*
Y372507D02*
Y427320D01*
X699005Y304406D02*
Y330064D01*
X656562Y372507D02*
X699005Y330064D01*
Y304406D02*
X699055Y304356D01*
X438626Y474092D02*
X482189Y517656D01*
X400485Y398170D02*
X438626Y436311D01*
Y474092D01*
X402004Y425090D02*
X430836Y453922D01*
Y489257D02*
X483273Y541694D01*
X430836Y453922D02*
Y489257D01*
X425013Y473498D02*
Y509969D01*
X401297Y449782D02*
X425013Y473498D01*
Y509969D02*
X482521Y567478D01*
X418898Y492784D02*
Y530552D01*
X400485Y474370D02*
X418898Y492784D01*
Y530552D02*
X481107Y592761D01*
X520814Y478365D02*
X521122Y478673D01*
Y503756D01*
X598907Y474224D02*
X599021Y474338D01*
X401297Y445437D02*
Y449782D01*
X365373Y427800D02*
X366541Y426632D01*
X251908Y427800D02*
X365373D01*
X372057Y421116D02*
Y422268D01*
X367694Y426632D02*
X372057Y422268D01*
X366541Y426632D02*
X367694D01*
X481107Y592761D02*
X508527D01*
X482521Y567478D02*
X508643D01*
X483273Y541694D02*
X508260D01*
X482189Y517656D02*
X509622D01*
X517996Y526031D02*
X518564D01*
X509622Y517656D02*
X517996Y526031D01*
X402004Y424773D02*
Y425090D01*
X508260Y541694D02*
X521122Y554556D01*
X508527Y592761D02*
X519297Y603532D01*
X508643Y567478D02*
X521122Y579956D01*
X400109Y498672D02*
Y500146D01*
X388985Y511270D02*
X400109Y500146D01*
X352809Y511270D02*
X388985D01*
X342959Y501420D02*
X352809Y511270D01*
X351446Y526932D02*
X374154Y549640D01*
X248755Y526932D02*
X351446D01*
X374154Y549640D02*
X375049D01*
D19*
X821243Y428739D02*
X826746Y423236D01*
X706587Y428739D02*
X821243D01*
X826746Y423236D02*
X829883D01*
X52997Y429856D02*
X173481D01*
X55749Y511452D02*
X173114D01*
X181241Y519579D01*
X173481Y429856D02*
X182909Y420428D01*
X181241Y519579D02*
X185593D01*
X182909Y420428D02*
X185919D01*
D20*
X955694Y413997D02*
X1002225D01*
X1002644Y413578D01*
X955694Y363197D02*
Y413997D01*
X957782Y363197D02*
X1006494D01*
X659015Y224196D02*
Y254833D01*
X649166Y225641D02*
Y254950D01*
X1001414Y529213D02*
X1006998D01*
X950614D02*
X1001414D01*
X1006998D02*
X1007376Y529591D01*
X948724Y478413D02*
X949730D01*
X950614D02*
Y529213D01*
Y478088D02*
Y478413D01*
X949730Y477205D02*
X950614Y478088D01*
Y478413D02*
X1001414D01*
X946696Y480441D02*
X948724Y478413D01*
X708575Y123000D02*
Y212883D01*
Y122699D02*
Y123000D01*
X581906Y158382D02*
X649166Y225641D01*
X581906Y124795D02*
Y158382D01*
X581311Y124201D02*
X581906Y124795D01*
X606975Y172156D02*
X659015Y224196D01*
X606975Y124303D02*
Y172156D01*
X606575Y123904D02*
X606975Y124303D01*
X709085Y221362D02*
Y293008D01*
X729193Y224890D02*
Y293269D01*
X699005Y222453D02*
Y303862D01*
X31496Y124458D02*
X32954Y123000D01*
X31496Y145800D02*
X103305Y217609D01*
X31496Y124458D02*
Y145800D01*
X1010314Y98097D02*
X1010822Y98605D01*
X975146Y225950D02*
Y304642D01*
Y225950D02*
X985422Y215674D01*
Y123000D02*
Y215674D01*
X960022Y123000D02*
Y221877D01*
X965297Y227152D02*
Y293812D01*
X960022Y221877D02*
X965297Y227152D01*
X934622Y204902D02*
X955938Y226218D01*
Y305703D01*
X934622Y124901D02*
Y204902D01*
X909222Y125337D02*
Y189625D01*
X945214Y225617D02*
Y295921D01*
X909222Y189625D02*
X945214Y225617D01*
X935155Y226781D02*
Y304771D01*
X883822Y123662D02*
Y175448D01*
X935155Y226781D01*
X925306Y226175D02*
Y293941D01*
X858022Y124254D02*
Y158891D01*
X925306Y226175D01*
X1010822Y123000D02*
Y199728D01*
X985226Y225324D02*
Y293787D01*
Y225324D02*
X1010822Y199728D01*
X1036222Y123000D02*
Y184729D01*
X995075Y225876D02*
Y304618D01*
Y225876D02*
X1036222Y184729D01*
X1005333Y224814D02*
Y294049D01*
X1061622Y123392D02*
Y168526D01*
X1005333Y224814D02*
X1061622Y168526D01*
X1015182Y225147D02*
Y304879D01*
X1087022Y123328D02*
Y153308D01*
X1015182Y225147D02*
X1087022Y153308D01*
X1010822Y98605D02*
Y123000D01*
X1036222Y102962D02*
Y123000D01*
X1034290Y101030D02*
X1036222Y102962D01*
X934090Y124370D02*
X934622Y124901D01*
X909222Y125337D02*
X910400Y124158D01*
X681784Y98691D02*
X684205D01*
X657775Y122809D02*
X657858Y122726D01*
X657775Y122699D02*
X681784Y98691D01*
X657775Y122699D02*
X657775D01*
X654742Y100333D02*
X658585D01*
X632375Y122699D02*
X654742Y100333D01*
X810175Y123683D02*
X811614Y122244D01*
X810175Y123683D02*
Y151958D01*
X739042Y223091D02*
X810175Y151958D01*
X729193Y224890D02*
X784775Y169307D01*
Y124073D02*
Y169307D01*
X759375Y122699D02*
Y181498D01*
X709085Y221362D02*
X733824Y196623D01*
Y123765D02*
Y196623D01*
X718934Y221939D02*
X759375Y181498D01*
X739042Y223091D02*
Y304099D01*
X784321Y123619D02*
X784775Y124073D01*
X699005Y222453D02*
X708575Y212883D01*
X718934Y221939D02*
Y303838D01*
X682768Y217426D02*
X689156Y223814D01*
X682768Y121697D02*
Y217426D01*
X689156Y223814D02*
Y293032D01*
X679798Y224543D02*
Y304923D01*
X657775Y122809D02*
Y202521D01*
X679798Y224543D01*
X632375Y189477D02*
X669074Y226175D01*
X632375Y123093D02*
Y189477D01*
X669074Y226175D02*
Y295141D01*
X406995Y208641D02*
Y304660D01*
X387105Y304676D02*
X407452D01*
X407656Y304471D01*
X387089Y304692D02*
X387105Y304676D01*
X261555Y126392D02*
Y149944D01*
X193181Y218317D02*
Y304757D01*
Y218317D02*
X261555Y149944D01*
X237624Y125976D02*
Y163979D01*
X183332Y218271D02*
Y293926D01*
Y218271D02*
X237624Y163979D01*
X185354Y126391D02*
Y193342D01*
X163225Y215472D02*
Y293665D01*
Y215472D02*
X185354Y193342D01*
X109155Y191707D02*
X133060Y215612D01*
X109155Y126222D02*
Y191707D01*
X133060Y215612D02*
Y304616D01*
X309650Y123400D02*
Y142019D01*
X377240Y209609D02*
Y293862D01*
X309650Y142019D02*
X377240Y209609D01*
X467116Y209689D02*
X538250Y138555D01*
Y126276D02*
Y138555D01*
X467116Y209689D02*
Y304800D01*
X512850Y123880D02*
Y153219D01*
X457267Y208802D02*
X512850Y153219D01*
X457267Y208802D02*
Y293970D01*
X335050Y124056D02*
Y156584D01*
X387089Y208623D01*
Y304692D01*
X397146Y209027D02*
Y293829D01*
X360450Y123842D02*
Y172331D01*
X397146Y209027D01*
X447009Y208225D02*
Y304539D01*
X487450Y123400D02*
Y167784D01*
X447009Y208225D02*
X487450Y167784D01*
X462050Y124893D02*
Y182941D01*
X437160Y207831D02*
Y293708D01*
Y207831D02*
X462050Y182941D01*
X427080Y186588D02*
Y304563D01*
X436650Y125700D02*
Y177018D01*
X427080Y186588D02*
X436650Y177018D01*
X538250Y126276D02*
X538441Y126084D01*
X462050Y124893D02*
X462386Y124557D01*
X435812Y124862D02*
X436650Y125700D01*
X410766Y123946D02*
X412293Y122419D01*
X417231Y186307D02*
Y293732D01*
X410766Y179842D02*
X417231Y186307D01*
X410766Y123946D02*
Y179842D01*
X386240Y187887D02*
X406995Y208641D01*
X386240Y125017D02*
Y187887D01*
X113170Y304632D02*
X132421D01*
X132654Y304866D01*
X113154Y304648D02*
X113170Y304632D01*
X58355Y161995D02*
X113154Y216795D01*
Y304648D01*
X58355Y123166D02*
X59601Y121920D01*
X58355Y123166D02*
Y123742D01*
Y161995D01*
X103305Y217609D02*
Y293818D01*
X123211Y216432D02*
Y293786D01*
X83755Y127343D02*
Y176975D01*
X123211Y216432D01*
X153145Y169764D02*
X159955Y162955D01*
X134555Y123800D02*
X134822Y123533D01*
X159955Y123397D02*
X160061Y123290D01*
X153145Y169764D02*
Y304519D01*
X159955Y123397D02*
Y123742D01*
X143296Y171079D02*
Y293689D01*
X134555Y162337D02*
X143296Y171079D01*
X83138Y126727D02*
X83755Y127343D01*
X208596Y125899D02*
Y183007D01*
X173074Y218529D02*
Y304495D01*
Y218529D02*
X208596Y183007D01*
X260054Y124891D02*
X261555Y126392D01*
X235815Y124167D02*
X237624Y125976D01*
X208596Y125899D02*
X210755Y123742D01*
X185354Y126391D02*
X186999Y124746D01*
X159955Y123742D02*
Y162955D01*
X134555Y123800D02*
Y162337D01*
X107836Y124904D02*
X109155Y126222D01*
X114070Y122541D02*
Y123400D01*
X113843Y122314D02*
X114070Y122541D01*
X87835Y124170D02*
X88670Y125005D01*
X63270Y122422D02*
Y123400D01*
Y122422D02*
X63902Y121790D01*
D21*
X950614Y529213D02*
D03*
X1001414D02*
D03*
Y478413D02*
D03*
X950614D02*
D03*
X976014Y503813D02*
D03*
X981094Y388597D02*
D03*
X955694Y363197D02*
D03*
X1006494D02*
D03*
Y413997D02*
D03*
X955694D02*
D03*
D22*
X753382Y418947D02*
D03*
Y518946D02*
D03*
X297120Y537381D02*
D03*
Y417382D02*
D03*
X98404Y419815D02*
D03*
Y519815D02*
D03*
D23*
X829883Y524836D02*
D03*
X855283D02*
D03*
X829883Y550236D02*
D03*
X855283Y499436D02*
D03*
X829883D02*
D03*
X855283Y474036D02*
D03*
X829883D02*
D03*
Y448636D02*
D03*
Y423236D02*
D03*
Y397836D02*
D03*
X855283D02*
D03*
Y423236D02*
D03*
Y448636D02*
D03*
X521122Y478356D02*
D03*
X495722D02*
D03*
X521122Y452956D02*
D03*
X495722D02*
D03*
X521122Y402156D02*
D03*
X495722Y427556D02*
D03*
X521122D02*
D03*
Y503756D02*
D03*
X495722D02*
D03*
Y529156D02*
D03*
X521122D02*
D03*
X495722Y554556D02*
D03*
X521122D02*
D03*
Y579956D02*
D03*
X495722D02*
D03*
Y605356D02*
D03*
X521122D02*
D03*
X495722Y630756D02*
D03*
X521122D02*
D03*
X210817Y425782D02*
D03*
X185417D02*
D03*
X210817Y400382D02*
D03*
X185417Y451182D02*
D03*
X210817D02*
D03*
X185417Y476582D02*
D03*
X210817D02*
D03*
Y501982D02*
D03*
Y527382D02*
D03*
Y552782D02*
D03*
X185417D02*
D03*
Y527382D02*
D03*
Y501982D02*
D03*
X109155Y97600D02*
D03*
Y123000D02*
D03*
X83755Y97600D02*
D03*
Y123000D02*
D03*
X32954Y97600D02*
D03*
X58355Y123000D02*
D03*
Y97600D02*
D03*
X134555D02*
D03*
Y123000D02*
D03*
X159955D02*
D03*
Y97600D02*
D03*
X185354Y123000D02*
D03*
Y97600D02*
D03*
X210755D02*
D03*
Y123000D02*
D03*
X236154D02*
D03*
Y97600D02*
D03*
X261555Y123000D02*
D03*
Y97600D02*
D03*
X1087022D02*
D03*
Y123000D02*
D03*
X1061622Y97600D02*
D03*
Y123000D02*
D03*
X1036222D02*
D03*
Y97600D02*
D03*
X1010822D02*
D03*
Y123000D02*
D03*
X985422Y97600D02*
D03*
Y123000D02*
D03*
X960022D02*
D03*
Y97600D02*
D03*
X883822D02*
D03*
Y123000D02*
D03*
X858422Y97600D02*
D03*
X909222Y123000D02*
D03*
Y97600D02*
D03*
X934622Y123000D02*
D03*
Y97600D02*
D03*
X657775D02*
D03*
Y123000D02*
D03*
X632375Y97600D02*
D03*
Y123000D02*
D03*
X581575Y97600D02*
D03*
X606975Y123000D02*
D03*
Y97600D02*
D03*
X683175D02*
D03*
Y123000D02*
D03*
X708575D02*
D03*
Y97600D02*
D03*
X733975Y123000D02*
D03*
Y97600D02*
D03*
X759375D02*
D03*
Y123000D02*
D03*
X784775D02*
D03*
Y97600D02*
D03*
X810175Y123000D02*
D03*
Y97600D02*
D03*
X538250D02*
D03*
Y123000D02*
D03*
X512850Y97600D02*
D03*
Y123000D02*
D03*
X487450D02*
D03*
Y97600D02*
D03*
X462050D02*
D03*
Y123000D02*
D03*
X436650Y97600D02*
D03*
Y123000D02*
D03*
X411250D02*
D03*
Y97600D02*
D03*
X335050D02*
D03*
Y123000D02*
D03*
X309650Y97600D02*
D03*
X360450Y123000D02*
D03*
Y97600D02*
D03*
X385850Y123000D02*
D03*
Y97600D02*
D03*
X400485Y423570D02*
D03*
X375085D02*
D03*
X400485Y398170D02*
D03*
X375085Y448970D02*
D03*
X400485D02*
D03*
X375085Y474370D02*
D03*
X400485D02*
D03*
Y499770D02*
D03*
Y525170D02*
D03*
Y550570D02*
D03*
Y575970D02*
D03*
X375085D02*
D03*
Y550570D02*
D03*
Y525170D02*
D03*
Y499770D02*
D03*
D24*
X855283Y550236D02*
D03*
X495722Y402156D02*
D03*
X185417Y400382D02*
D03*
X375085Y398170D02*
D03*
D25*
X50000Y630000D02*
D03*
X1090000D02*
D03*
Y50000D02*
D03*
X50000D02*
D03*
D26*
X32954Y123000D02*
D03*
X858422D02*
D03*
X581575D02*
D03*
X309650D02*
D03*
D27*
X619021Y592727D02*
D03*
X599021D02*
D03*
X619021Y572727D02*
D03*
X599021D02*
D03*
X619021Y552727D02*
D03*
X599021D02*
D03*
X619021Y532727D02*
D03*
X599021D02*
D03*
X619021Y512727D02*
D03*
X599021D02*
D03*
X619021Y492727D02*
D03*
X599021D02*
D03*
X619021Y472727D02*
D03*
X599021D02*
D03*
X619021Y452727D02*
D03*
X599021D02*
D03*
X619021Y432727D02*
D03*
X599021D02*
D03*
X619021Y412727D02*
D03*
X599021D02*
D03*
D28*
X249365Y527209D02*
D03*
X251908Y427800D02*
D03*
X658884Y254833D02*
D03*
X649148Y254950D02*
D03*
X709085Y293008D02*
D03*
X729193Y293269D02*
D03*
X342959Y501420D02*
D03*
X706587Y428739D02*
D03*
X52997Y429856D02*
D03*
X55749Y511452D02*
D03*
X985226Y293787D02*
D03*
X925306Y293941D02*
D03*
X935155Y304771D02*
D03*
X995075Y304618D02*
D03*
X1015182Y304879D02*
D03*
X1005333Y294049D02*
D03*
X975146Y304642D02*
D03*
X965297Y293812D02*
D03*
X945214Y295921D02*
D03*
X955938Y305703D02*
D03*
X679798Y304923D02*
D03*
X669074Y295141D02*
D03*
X689156Y293032D02*
D03*
X699005Y303862D02*
D03*
X739042Y304099D02*
D03*
X718934Y303838D02*
D03*
X397146Y293829D02*
D03*
X377240Y293862D02*
D03*
X387089Y304692D02*
D03*
X406995Y304660D02*
D03*
X427080Y304563D02*
D03*
X417231Y293732D02*
D03*
X447009Y304539D02*
D03*
X437160Y293708D02*
D03*
X467116Y304800D02*
D03*
X457267Y293970D02*
D03*
X123211Y293786D02*
D03*
X183332Y293926D02*
D03*
X193181Y304757D02*
D03*
X163225Y293665D02*
D03*
X173074Y304495D02*
D03*
X143296Y293689D02*
D03*
X153145Y304519D02*
D03*
X133060Y304616D02*
D03*
X113154Y304648D02*
D03*
X103305Y293818D02*
D03*
M02*
