G04*
G04 #@! TF.GenerationSoftware,Altium Limited,Altium Designer,23.1.1 (15)*
G04*
G04 Layer_Color=65535*
%FSLAX44Y44*%
%MOMM*%
G71*
G04*
G04 #@! TF.SameCoordinates,885BC21F-CE97-4633-90EB-74F7ABE7E9BF*
G04*
G04*
G04 #@! TF.FilePolarity,Positive*
G04*
G01*
G75*
%ADD10C,0.2000*%
G36*
X973300Y560829D02*
X973448Y560755D01*
X973541Y560718D01*
X973615Y560644D01*
X973633D01*
X973652Y560607D01*
X973726Y560514D01*
X973782Y560384D01*
X973819Y560292D01*
Y560199D01*
Y560181D01*
X973800Y560107D01*
X973782Y559995D01*
X973707Y559847D01*
X970189Y554589D01*
X973707Y549311D01*
X973782Y549126D01*
X973819Y548960D01*
Y548941D01*
Y548923D01*
X973800Y548811D01*
X973726Y548682D01*
X973689Y548608D01*
X973615Y548534D01*
X973578Y548497D01*
X973485Y548441D01*
X973337Y548386D01*
X973152Y548349D01*
X973096D01*
X973041Y548367D01*
X972985Y548386D01*
X972893Y548423D01*
X972819Y548460D01*
X972726Y548534D01*
X972652Y548626D01*
X969430Y553459D01*
X966190Y548626D01*
X966171Y548608D01*
X966134Y548552D01*
X966060Y548478D01*
X965949Y548404D01*
X965671Y548349D01*
X965634D01*
X965542Y548367D01*
X965412Y548423D01*
X965245Y548534D01*
X965208Y548571D01*
X965153Y548663D01*
X965079Y548793D01*
X965060Y548886D01*
X965042Y548978D01*
Y548997D01*
X965060Y549071D01*
X965079Y549182D01*
X965134Y549311D01*
X968671Y554589D01*
X965116Y559866D01*
X965042Y560051D01*
Y560218D01*
Y560236D01*
Y560255D01*
X965060Y560366D01*
X965116Y560495D01*
X965227Y560644D01*
Y560662D01*
X965264Y560681D01*
X965356Y560755D01*
X965505Y560810D01*
X965597Y560847D01*
X965745D01*
X965801Y560829D01*
X965856Y560810D01*
X965949Y560773D01*
X966023Y560718D01*
X966116Y560644D01*
X966190Y560551D01*
X969430Y555718D01*
X972652Y560569D01*
X972671Y560588D01*
X972708Y560644D01*
X972782Y560718D01*
X972874Y560792D01*
X973004Y560847D01*
X973189D01*
X973300Y560829D01*
D02*
G37*
G36*
X985428D02*
X985558Y560810D01*
X985706Y560792D01*
X986040Y560718D01*
X986428Y560607D01*
X986854Y560440D01*
X987058Y560329D01*
X987262Y560199D01*
X987465Y560033D01*
X987669Y559866D01*
X987688Y559847D01*
X987706Y559829D01*
X987762Y559773D01*
X987836Y559699D01*
X987910Y559607D01*
X987984Y559496D01*
X988187Y559218D01*
X988373Y558885D01*
X988521Y558477D01*
X988650Y558033D01*
X988669Y557792D01*
X988687Y557551D01*
Y557514D01*
Y557422D01*
X988669Y557274D01*
X988632Y557070D01*
X988595Y556848D01*
X988521Y556589D01*
X988410Y556311D01*
X988280Y556015D01*
X984243Y549589D01*
X988169D01*
X988280Y549571D01*
X988428Y549497D01*
X988484Y549460D01*
X988558Y549385D01*
X988595Y549348D01*
X988650Y549256D01*
X988706Y549126D01*
X988743Y548960D01*
Y548923D01*
X988724Y548830D01*
X988669Y548700D01*
X988576Y548552D01*
X988558Y548515D01*
X988465Y548460D01*
X988335Y548386D01*
X988243Y548367D01*
X988132Y548349D01*
X983021D01*
X982910Y548367D01*
X982799Y548404D01*
X982670Y548478D01*
X982558Y548552D01*
X982484Y548682D01*
X982447Y548848D01*
Y548886D01*
X982466Y548978D01*
X982503Y549126D01*
X982595Y549311D01*
X987206Y556662D01*
X987225Y556681D01*
X987243Y556755D01*
X987280Y556848D01*
X987336Y556977D01*
X987373Y557107D01*
X987410Y557274D01*
X987428Y557440D01*
X987447Y557607D01*
Y557625D01*
Y557644D01*
Y557737D01*
X987410Y557885D01*
X987373Y558088D01*
X987299Y558292D01*
X987188Y558533D01*
X987021Y558773D01*
X986817Y558996D01*
X986799Y559014D01*
X986762Y559051D01*
X986706Y559088D01*
X986613Y559162D01*
X986410Y559292D01*
X986132Y559440D01*
X986114D01*
X986058Y559459D01*
X985984Y559496D01*
X985873Y559533D01*
X985762Y559551D01*
X985614Y559588D01*
X985280Y559607D01*
X985206D01*
X985114Y559588D01*
X985003Y559570D01*
X984854Y559551D01*
X984706Y559496D01*
X984540Y559440D01*
X984373Y559347D01*
X984354Y559329D01*
X984299Y559292D01*
X984225Y559236D01*
X984114Y559162D01*
X984003Y559051D01*
X983873Y558922D01*
X983651Y558625D01*
X983632Y558607D01*
X983595Y558551D01*
X983521Y558477D01*
X983410Y558403D01*
X983132Y558348D01*
X983095D01*
X982984Y558366D01*
X982836Y558422D01*
X982688Y558514D01*
X982651Y558551D01*
X982595Y558644D01*
X982521Y558773D01*
X982503Y558866D01*
X982484Y558959D01*
Y558977D01*
X982503Y559051D01*
X982540Y559162D01*
X982595Y559310D01*
X982614Y559347D01*
X982670Y559422D01*
X982762Y559551D01*
X982910Y559699D01*
X983077Y559866D01*
X983262Y560051D01*
X983503Y560236D01*
X983762Y560403D01*
X983781Y560421D01*
X983818Y560440D01*
X983892Y560477D01*
X983984Y560514D01*
X984225Y560625D01*
X984484Y560718D01*
X984503D01*
X984540Y560736D01*
X984614Y560755D01*
X984706Y560792D01*
X984947Y560829D01*
X985188Y560847D01*
X985336D01*
X985428Y560829D01*
D02*
G37*
G36*
X979614Y560921D02*
X979725Y560866D01*
X979874Y560755D01*
X979892Y560718D01*
X979966Y560607D01*
X980022Y560440D01*
X980040Y560218D01*
Y548960D01*
Y548941D01*
Y548904D01*
X980022Y548793D01*
X979966Y548645D01*
X979855Y548497D01*
X979818Y548478D01*
X979744Y548423D01*
X979596Y548367D01*
X979410Y548349D01*
X979373D01*
X979262Y548367D01*
X979133Y548404D01*
X978985Y548497D01*
X978948Y548534D01*
X978892Y548608D01*
X978837Y548756D01*
X978800Y548960D01*
Y558718D01*
X977355Y557274D01*
X977318Y557237D01*
X977226Y557181D01*
X977077Y557126D01*
X976911Y557088D01*
X976874D01*
X976781Y557107D01*
X976633Y557163D01*
X976485Y557274D01*
Y557292D01*
X976448Y557311D01*
X976392Y557403D01*
X976318Y557551D01*
X976300Y557625D01*
X976281Y557718D01*
Y557737D01*
Y557755D01*
X976300Y557848D01*
X976355Y557996D01*
X976466Y558144D01*
X978966Y560662D01*
X978985Y560681D01*
X979040Y560736D01*
X979133Y560810D01*
X979225Y560866D01*
X979244Y560884D01*
X979318Y560903D01*
X979410Y560921D01*
X979522Y560940D01*
X979540D01*
X979614Y560921D01*
D02*
G37*
G36*
X978858Y445248D02*
X979006Y445174D01*
X979098Y445137D01*
X979173Y445063D01*
X979191D01*
X979210Y445026D01*
X979284Y444933D01*
X979339Y444804D01*
X979376Y444711D01*
Y444618D01*
Y444600D01*
X979358Y444526D01*
X979339Y444415D01*
X979265Y444267D01*
X975747Y439008D01*
X979265Y433731D01*
X979339Y433545D01*
X979376Y433379D01*
Y433360D01*
Y433342D01*
X979358Y433231D01*
X979284Y433101D01*
X979247Y433027D01*
X979173Y432953D01*
X979136Y432916D01*
X979043Y432860D01*
X978895Y432805D01*
X978710Y432768D01*
X978654D01*
X978598Y432786D01*
X978543Y432805D01*
X978450Y432842D01*
X978376Y432879D01*
X978284Y432953D01*
X978210Y433046D01*
X974988Y437878D01*
X971747Y433046D01*
X971729Y433027D01*
X971692Y432971D01*
X971618Y432897D01*
X971507Y432823D01*
X971229Y432768D01*
X971192D01*
X971099Y432786D01*
X970970Y432842D01*
X970803Y432953D01*
X970766Y432990D01*
X970710Y433083D01*
X970636Y433212D01*
X970618Y433305D01*
X970599Y433397D01*
Y433416D01*
X970618Y433490D01*
X970636Y433601D01*
X970692Y433731D01*
X974229Y439008D01*
X970673Y444285D01*
X970599Y444470D01*
Y444637D01*
Y444655D01*
Y444674D01*
X970618Y444785D01*
X970673Y444915D01*
X970785Y445063D01*
Y445081D01*
X970822Y445100D01*
X970914Y445174D01*
X971062Y445229D01*
X971155Y445266D01*
X971303D01*
X971358Y445248D01*
X971414Y445229D01*
X971507Y445192D01*
X971581Y445137D01*
X971673Y445063D01*
X971747Y444970D01*
X974988Y440137D01*
X978210Y444989D01*
X978228Y445007D01*
X978265Y445063D01*
X978339Y445137D01*
X978432Y445211D01*
X978561Y445266D01*
X978747D01*
X978858Y445248D01*
D02*
G37*
G36*
X991375Y445229D02*
X991505Y445211D01*
X991653Y445192D01*
X991967Y445137D01*
X992356Y445007D01*
X992745Y444841D01*
X992930Y444729D01*
X993115Y444600D01*
X993301Y444452D01*
X993467Y444285D01*
X993486Y444267D01*
X993504Y444248D01*
X993541Y444193D01*
X993597Y444118D01*
X993727Y443933D01*
X993875Y443693D01*
X994004Y443378D01*
X994134Y443007D01*
X994227Y442600D01*
X994264Y442378D01*
Y442137D01*
Y442100D01*
Y442007D01*
X994245Y441859D01*
X994227Y441674D01*
X994171Y441452D01*
X994115Y441230D01*
X994041Y440971D01*
X993949Y440730D01*
X993930Y440711D01*
X993893Y440619D01*
X993819Y440508D01*
X993727Y440359D01*
X993597Y440174D01*
X993449Y439989D01*
X993264Y439785D01*
X993041Y439600D01*
X993060Y439582D01*
X993134Y439526D01*
X993227Y439434D01*
X993338Y439304D01*
X993486Y439156D01*
X993615Y438971D01*
X993764Y438767D01*
X993893Y438526D01*
X993912Y438489D01*
X993949Y438415D01*
X994004Y438286D01*
X994078Y438101D01*
X994134Y437897D01*
X994190Y437656D01*
X994245Y437397D01*
X994264Y437119D01*
Y435878D01*
Y435860D01*
Y435823D01*
Y435749D01*
X994245Y435656D01*
Y435564D01*
X994208Y435434D01*
X994152Y435119D01*
X994041Y434786D01*
X993875Y434416D01*
X993764Y434230D01*
X993652Y434045D01*
X993504Y433860D01*
X993338Y433675D01*
X993319Y433657D01*
X993301Y433638D01*
X993245Y433601D01*
X993171Y433527D01*
X992986Y433397D01*
X992708Y433231D01*
X992393Y433064D01*
X992023Y432916D01*
X991597Y432805D01*
X991375Y432786D01*
X991134Y432768D01*
X988597D01*
X988468Y432786D01*
X988320Y432842D01*
X988172Y432934D01*
Y432953D01*
X988153Y432971D01*
X988098Y433064D01*
X988042Y433212D01*
X988023Y433379D01*
Y433397D01*
Y433416D01*
X988042Y433508D01*
X988079Y433638D01*
X988172Y433786D01*
Y433805D01*
X988209Y433823D01*
X988283Y433897D01*
X988431Y433971D01*
X988523Y434008D01*
X991264D01*
X991412Y434045D01*
X991597Y434082D01*
X991801Y434138D01*
X992023Y434230D01*
X992245Y434360D01*
X992467Y434545D01*
X992486Y434564D01*
X992560Y434638D01*
X992653Y434767D01*
X992745Y434916D01*
X992856Y435119D01*
X992930Y435341D01*
X993004Y435601D01*
X993023Y435878D01*
Y437119D01*
Y437156D01*
Y437249D01*
X992986Y437397D01*
X992949Y437582D01*
X992893Y437786D01*
X992782Y438008D01*
X992653Y438230D01*
X992467Y438452D01*
X992449Y438471D01*
X992375Y438545D01*
X992264Y438638D01*
X992097Y438730D01*
X991912Y438841D01*
X991671Y438915D01*
X991412Y438989D01*
X991134Y439008D01*
X989838D01*
X989727Y439026D01*
X989579Y439082D01*
X989431Y439174D01*
Y439193D01*
X989412Y439212D01*
X989357Y439304D01*
X989283Y439452D01*
X989264Y439619D01*
Y439637D01*
Y439656D01*
X989283Y439748D01*
X989320Y439878D01*
X989412Y440026D01*
Y440045D01*
X989449Y440063D01*
X989542Y440137D01*
X989690Y440211D01*
X989782Y440248D01*
X991171D01*
X991282Y440267D01*
X991431Y440285D01*
X991616Y440322D01*
X991838Y440397D01*
X992060Y440508D01*
X992301Y440637D01*
X992504Y440841D01*
X992523Y440859D01*
X992579Y440933D01*
X992653Y441045D01*
X992745Y441211D01*
X992819Y441396D01*
X992893Y441619D01*
X992949Y441878D01*
X992967Y442156D01*
Y442193D01*
Y442285D01*
X992949Y442415D01*
X992912Y442600D01*
X992856Y442804D01*
X992782Y443007D01*
X992671Y443230D01*
X992523Y443433D01*
X992504Y443452D01*
X992430Y443526D01*
X992319Y443618D01*
X992171Y443730D01*
X991967Y443822D01*
X991727Y443915D01*
X991449Y443989D01*
X991134Y444007D01*
X988597D01*
X988468Y444026D01*
X988320Y444081D01*
X988172Y444174D01*
X988153Y444211D01*
X988098Y444304D01*
X988042Y444433D01*
X988023Y444618D01*
Y444637D01*
Y444655D01*
X988042Y444748D01*
X988079Y444896D01*
X988172Y445044D01*
Y445063D01*
X988209Y445081D01*
X988301Y445155D01*
X988431Y445211D01*
X988523Y445248D01*
X991282D01*
X991375Y445229D01*
D02*
G37*
G36*
X985172Y445340D02*
X985283Y445285D01*
X985431Y445174D01*
X985450Y445137D01*
X985524Y445026D01*
X985579Y444859D01*
X985598Y444637D01*
Y433379D01*
Y433360D01*
Y433323D01*
X985579Y433212D01*
X985524Y433064D01*
X985413Y432916D01*
X985376Y432897D01*
X985302Y432842D01*
X985153Y432786D01*
X984968Y432768D01*
X984931D01*
X984820Y432786D01*
X984690Y432823D01*
X984542Y432916D01*
X984505Y432953D01*
X984450Y433027D01*
X984394Y433175D01*
X984357Y433379D01*
Y443137D01*
X982913Y441693D01*
X982876Y441656D01*
X982783Y441600D01*
X982635Y441545D01*
X982468Y441507D01*
X982431D01*
X982339Y441526D01*
X982191Y441582D01*
X982043Y441693D01*
Y441711D01*
X982005Y441730D01*
X981950Y441822D01*
X981876Y441970D01*
X981857Y442044D01*
X981839Y442137D01*
Y442156D01*
Y442174D01*
X981857Y442267D01*
X981913Y442415D01*
X982024Y442563D01*
X984524Y445081D01*
X984542Y445100D01*
X984598Y445155D01*
X984690Y445229D01*
X984783Y445285D01*
X984801Y445303D01*
X984876Y445322D01*
X984968Y445340D01*
X985079Y445359D01*
X985098D01*
X985172Y445340D01*
D02*
G37*
G36*
X92793Y607647D02*
X93209Y607601D01*
X93672Y607508D01*
X94181Y607369D01*
X94736Y607230D01*
X94829D01*
X95014Y607138D01*
X95292Y607045D01*
X95662Y606906D01*
X96079Y606768D01*
X96541Y606536D01*
X97467Y606027D01*
X97513Y605981D01*
X97606Y605934D01*
X97745Y605796D01*
X97883Y605611D01*
X97930Y605564D01*
X98022Y605379D01*
X98161Y605101D01*
X98254Y604731D01*
Y604685D01*
Y604639D01*
X98207Y604361D01*
X98022Y603945D01*
X97930Y603759D01*
X97745Y603528D01*
X97652Y603435D01*
X97421Y603297D01*
X97004Y603111D01*
X96773Y603065D01*
X96495Y603019D01*
X95708Y603297D01*
X95616Y603343D01*
X95431Y603482D01*
X95060Y603667D01*
X94598Y603898D01*
X94042Y604130D01*
X93394Y604315D01*
X92700Y604454D01*
X91960Y604500D01*
X88304D01*
X87980Y604454D01*
X87563Y604361D01*
X87100Y604176D01*
X86591Y603991D01*
X86129Y603667D01*
X85666Y603250D01*
X85619Y603204D01*
X85481Y603019D01*
X85295Y602788D01*
X85110Y602417D01*
X84925Y602001D01*
X84740Y601492D01*
X84601Y600936D01*
X84555Y600288D01*
X84601Y599548D01*
X84694Y599132D01*
X84787Y598807D01*
Y598761D01*
X84833Y598715D01*
X85018Y598437D01*
X85295Y598021D01*
X85758Y597465D01*
X96079Y586960D01*
X96125Y586914D01*
X96217Y586821D01*
X96402Y586636D01*
X96634Y586405D01*
X96865Y586081D01*
X97097Y585711D01*
X97328Y585294D01*
X97559Y584831D01*
X97745Y584322D01*
X98022Y583350D01*
X98115Y582795D01*
Y582101D01*
Y582055D01*
Y581962D01*
Y581823D01*
X98069Y581592D01*
X98022Y581360D01*
X97976Y581083D01*
X97837Y580342D01*
X97559Y579556D01*
X97143Y578676D01*
X96865Y578260D01*
X96541Y577797D01*
X96171Y577334D01*
X95754Y576918D01*
X95662Y576825D01*
X95431Y576594D01*
X95014Y576270D01*
X94459Y575900D01*
X93765Y575483D01*
X92885Y575159D01*
X91913Y574928D01*
X91358Y574881D01*
X90756Y574835D01*
X87147D01*
X86915Y574881D01*
X86638D01*
X86360Y574928D01*
X85619Y575066D01*
X84787Y575252D01*
X83861Y575576D01*
X82889Y575992D01*
X81964Y576547D01*
X81454Y577103D01*
X81316Y577751D01*
Y577797D01*
Y577843D01*
X81362Y578121D01*
X81501Y578445D01*
X81732Y578861D01*
Y578908D01*
X81825Y578954D01*
X82056Y579185D01*
X82426Y579370D01*
X82658Y579417D01*
X82889Y579463D01*
X83676Y579185D01*
X83768Y579139D01*
X84000Y579000D01*
X84324Y578815D01*
X84787Y578630D01*
X85342Y578399D01*
X85990Y578213D01*
X86684Y578075D01*
X87378Y578028D01*
X90988D01*
X91312Y578075D01*
X91682Y578167D01*
X92145Y578306D01*
X92654Y578537D01*
X93163Y578815D01*
X93626Y579232D01*
X93672Y579278D01*
X93811Y579463D01*
X94042Y579694D01*
X94274Y580065D01*
X94459Y580481D01*
X94690Y580990D01*
X94829Y581499D01*
X94875Y582101D01*
X94783Y582841D01*
Y582888D01*
Y582934D01*
X94690Y583165D01*
Y583212D01*
X94644Y583304D01*
X94551Y583535D01*
Y583582D01*
X94505Y583674D01*
X94459Y583813D01*
X94366Y583998D01*
X94042Y584461D01*
X93626Y585016D01*
X83444Y595198D01*
X83398Y595244D01*
X83306Y595337D01*
X83120Y595568D01*
X82935Y595799D01*
X82704Y596170D01*
X82426Y596586D01*
X82102Y597049D01*
X81825Y597604D01*
Y597650D01*
X81732Y597836D01*
X81686Y598113D01*
X81593Y598437D01*
X81501Y598854D01*
X81408Y599317D01*
X81362Y599826D01*
X81316Y600381D01*
Y600427D01*
Y600520D01*
Y600659D01*
X81362Y600890D01*
X81408Y601121D01*
X81454Y601445D01*
X81593Y602140D01*
X81871Y602926D01*
X82334Y603806D01*
X82565Y604222D01*
X82889Y604685D01*
X83259Y605148D01*
X83676Y605564D01*
Y605611D01*
X83768Y605657D01*
X84000Y605888D01*
X84416Y606258D01*
X84972Y606629D01*
X85666Y606999D01*
X86499Y607369D01*
X87517Y607601D01*
X88026Y607693D01*
X92423D01*
X92793Y607647D01*
D02*
G37*
G36*
X111998D02*
X112276D01*
X112554Y607601D01*
X113248Y607415D01*
X114081Y607184D01*
X114960Y606768D01*
X115840Y606258D01*
X116256Y605888D01*
X116673Y605518D01*
X116719Y605472D01*
X116765Y605425D01*
X117043Y605148D01*
X117367Y604685D01*
X117783Y604083D01*
X118200Y603343D01*
X118570Y602463D01*
X118801Y601445D01*
X118848Y600936D01*
X118894Y600381D01*
Y582101D01*
Y582055D01*
Y581962D01*
Y581823D01*
X118848Y581592D01*
Y581360D01*
X118801Y581036D01*
X118616Y580342D01*
X118385Y579556D01*
X117968Y578676D01*
X117459Y577797D01*
X117089Y577380D01*
X116719Y576964D01*
X116673D01*
X116626Y576871D01*
X116487Y576779D01*
X116349Y576640D01*
X115886Y576270D01*
X115284Y575900D01*
X114497Y575529D01*
X113618Y575159D01*
X112600Y574928D01*
X112045Y574881D01*
X111489Y574835D01*
X103437D01*
X103252Y574881D01*
X102974Y574928D01*
X102696Y575020D01*
X102419Y575205D01*
X102141Y575483D01*
X101956Y575900D01*
X101910Y576409D01*
Y606073D01*
Y606166D01*
X101956Y606351D01*
X102002Y606582D01*
X102095Y606906D01*
X102280Y607184D01*
X102557Y607462D01*
X102974Y607647D01*
X103483Y607693D01*
X111767D01*
X111998Y607647D01*
D02*
G37*
G36*
X1009031Y59312D02*
X1009402Y59127D01*
X1009633Y59034D01*
X1009818Y58849D01*
X1009864D01*
X1009911Y58756D01*
X1010096Y58525D01*
X1010281Y58201D01*
X1010374Y57970D01*
Y57738D01*
Y57646D01*
X1010327Y57414D01*
X1010235Y57137D01*
X1010050Y56813D01*
X1001997Y46215D01*
X1010188Y28721D01*
X1010281Y28305D01*
Y28259D01*
X1010327Y28166D01*
Y28120D01*
Y28027D01*
X1010281Y27888D01*
Y27750D01*
X1010096Y27333D01*
X1010003Y27102D01*
X1009818Y26916D01*
X1009726Y26870D01*
X1009494Y26731D01*
X1009078Y26546D01*
X1008569Y26500D01*
X1007828Y26639D01*
X1007273Y27333D01*
X999822Y43762D01*
X996629Y38949D01*
Y28073D01*
Y28027D01*
Y27935D01*
X996582Y27657D01*
X996444Y27287D01*
X996166Y26916D01*
X996073Y26870D01*
X995842Y26731D01*
X995425Y26546D01*
X994963Y26500D01*
X994916D01*
X994731Y26546D01*
X994407Y26639D01*
X993944Y26778D01*
X993852Y26870D01*
X993667Y27102D01*
X993482Y27518D01*
X993436Y27796D01*
X993389Y28073D01*
Y57738D01*
Y57785D01*
Y57831D01*
X993436Y58062D01*
X993574Y58432D01*
X993852Y58803D01*
Y58849D01*
X993944Y58895D01*
X994176Y59080D01*
X994500Y59265D01*
X994731Y59358D01*
X995055D01*
X995333Y59312D01*
X995703Y59173D01*
X996073Y58895D01*
X996120D01*
X996166Y58803D01*
X996351Y58618D01*
X996536Y58247D01*
X996629Y58016D01*
Y57738D01*
Y43392D01*
X1007365Y58618D01*
X1007412Y58664D01*
X1007458Y58756D01*
X1007736Y58988D01*
X1008106Y59265D01*
X1008383Y59312D01*
X1008661Y59358D01*
X1008754D01*
X1009031Y59312D01*
D02*
G37*
G36*
X988437D02*
X988808Y59127D01*
X989039Y59034D01*
X989224Y58849D01*
X989270D01*
X989317Y58756D01*
X989502Y58525D01*
X989687Y58201D01*
X989779Y57970D01*
Y57738D01*
Y57646D01*
X989733Y57414D01*
X989641Y57137D01*
X989455Y56813D01*
X981403Y46215D01*
X989594Y28721D01*
X989687Y28305D01*
Y28259D01*
X989733Y28166D01*
Y28120D01*
Y28027D01*
X989687Y27888D01*
Y27750D01*
X989502Y27333D01*
X989409Y27102D01*
X989224Y26916D01*
X989131Y26870D01*
X988900Y26731D01*
X988484Y26546D01*
X987975Y26500D01*
X987234Y26639D01*
X986679Y27333D01*
X979228Y43762D01*
X976035Y38949D01*
Y28073D01*
Y28027D01*
Y27935D01*
X975988Y27657D01*
X975850Y27287D01*
X975572Y26916D01*
X975479Y26870D01*
X975248Y26731D01*
X974831Y26546D01*
X974369Y26500D01*
X974322D01*
X974137Y26546D01*
X973813Y26639D01*
X973351Y26778D01*
X973258Y26870D01*
X973073Y27102D01*
X972888Y27518D01*
X972841Y27796D01*
X972795Y28073D01*
Y57738D01*
Y57785D01*
Y57831D01*
X972841Y58062D01*
X972980Y58432D01*
X973258Y58803D01*
Y58849D01*
X973351Y58895D01*
X973582Y59080D01*
X973906Y59265D01*
X974137Y59358D01*
X974461D01*
X974739Y59312D01*
X975109Y59173D01*
X975479Y58895D01*
X975526D01*
X975572Y58803D01*
X975757Y58618D01*
X975942Y58247D01*
X976035Y58016D01*
Y57738D01*
Y43392D01*
X986771Y58618D01*
X986818Y58664D01*
X986864Y58756D01*
X987141Y58988D01*
X987512Y59265D01*
X987789Y59312D01*
X988067Y59358D01*
X988160D01*
X988437Y59312D01*
D02*
G37*
G36*
X967890D02*
X968260Y59173D01*
X968630Y58895D01*
X968676D01*
X968723Y58803D01*
X968908Y58618D01*
X969093Y58247D01*
X969185Y58016D01*
Y57738D01*
Y28073D01*
Y27981D01*
X969139Y27796D01*
X969000Y27426D01*
X968723Y26963D01*
X968676D01*
X968630Y26870D01*
X968352Y26731D01*
X967936Y26593D01*
X967427Y26500D01*
X966686Y26639D01*
X966085Y27333D01*
X955441Y52092D01*
Y28073D01*
Y28027D01*
Y27935D01*
X955394Y27657D01*
X955255Y27287D01*
X954978Y26916D01*
X954885Y26870D01*
X954654Y26731D01*
X954237Y26546D01*
X953774Y26500D01*
X953728D01*
X953543Y26546D01*
X953219Y26639D01*
X952756Y26824D01*
X952664Y26916D01*
X952479Y27148D01*
X952294Y27518D01*
X952247Y27796D01*
X952201Y28073D01*
Y57738D01*
Y57785D01*
Y57831D01*
X952247Y58062D01*
X952386Y58432D01*
X952664Y58803D01*
Y58849D01*
X952756Y58895D01*
X952988Y59080D01*
X953312Y59265D01*
X953543Y59358D01*
X953867D01*
X954052Y59312D01*
X954284Y59265D01*
X954607Y59127D01*
X954700Y59080D01*
X954746Y59034D01*
X954839Y58895D01*
X954978Y58756D01*
X955070Y58525D01*
X955209Y58247D01*
X955302Y57877D01*
X965946Y33766D01*
Y57738D01*
Y57785D01*
Y57831D01*
X965992Y58062D01*
X966131Y58432D01*
X966409Y58803D01*
Y58849D01*
X966501Y58895D01*
X966733Y59080D01*
X967057Y59265D01*
X967288Y59358D01*
X967612D01*
X967890Y59312D01*
D02*
G37*
G36*
X473896D02*
X474313Y59265D01*
X474776Y59173D01*
X475285Y59034D01*
X475840Y58895D01*
X475933D01*
X476118Y58803D01*
X476395Y58710D01*
X476766Y58571D01*
X477182Y58432D01*
X477645Y58201D01*
X478571Y57692D01*
X478617Y57646D01*
X478709Y57599D01*
X478848Y57460D01*
X478987Y57275D01*
X479033Y57229D01*
X479126Y57044D01*
X479265Y56766D01*
X479357Y56396D01*
Y56350D01*
Y56304D01*
X479311Y56026D01*
X479126Y55609D01*
X479033Y55424D01*
X478848Y55193D01*
X478756Y55100D01*
X478524Y54962D01*
X478108Y54776D01*
X477877Y54730D01*
X477599Y54684D01*
X476812Y54962D01*
X476720Y55008D01*
X476534Y55147D01*
X476164Y55332D01*
X475701Y55563D01*
X475146Y55795D01*
X474498Y55980D01*
X473804Y56118D01*
X473064Y56165D01*
X469407D01*
X469084Y56118D01*
X468667Y56026D01*
X468204Y55841D01*
X467695Y55656D01*
X467232Y55332D01*
X466770Y54915D01*
X466723Y54869D01*
X466584Y54684D01*
X466399Y54452D01*
X466214Y54082D01*
X466029Y53666D01*
X465844Y53157D01*
X465705Y52601D01*
X465659Y51953D01*
X465705Y51213D01*
X465798Y50796D01*
X465890Y50472D01*
Y50426D01*
X465937Y50380D01*
X466122Y50102D01*
X466399Y49686D01*
X466862Y49130D01*
X477182Y38625D01*
X477229Y38579D01*
X477321Y38486D01*
X477506Y38301D01*
X477738Y38070D01*
X477969Y37746D01*
X478200Y37376D01*
X478432Y36959D01*
X478663Y36496D01*
X478848Y35987D01*
X479126Y35015D01*
X479218Y34460D01*
Y33766D01*
Y33719D01*
Y33627D01*
Y33488D01*
X479172Y33257D01*
X479126Y33025D01*
X479080Y32748D01*
X478941Y32007D01*
X478663Y31220D01*
X478247Y30341D01*
X477969Y29925D01*
X477645Y29462D01*
X477275Y28999D01*
X476858Y28582D01*
X476766Y28490D01*
X476534Y28259D01*
X476118Y27935D01*
X475563Y27564D01*
X474868Y27148D01*
X473989Y26824D01*
X473017Y26593D01*
X472462Y26546D01*
X471860Y26500D01*
X468251D01*
X468019Y26546D01*
X467741D01*
X467464Y26593D01*
X466723Y26731D01*
X465890Y26916D01*
X464965Y27241D01*
X463993Y27657D01*
X463067Y28212D01*
X462558Y28768D01*
X462419Y29416D01*
Y29462D01*
Y29508D01*
X462466Y29786D01*
X462604Y30110D01*
X462836Y30526D01*
Y30573D01*
X462928Y30619D01*
X463160Y30850D01*
X463530Y31035D01*
X463761Y31082D01*
X463993Y31128D01*
X464780Y30850D01*
X464872Y30804D01*
X465103Y30665D01*
X465428Y30480D01*
X465890Y30295D01*
X466446Y30064D01*
X467094Y29878D01*
X467788Y29739D01*
X468482Y29693D01*
X472092D01*
X472416Y29739D01*
X472786Y29832D01*
X473249Y29971D01*
X473758Y30202D01*
X474267Y30480D01*
X474729Y30896D01*
X474776Y30943D01*
X474915Y31128D01*
X475146Y31359D01*
X475377Y31730D01*
X475563Y32146D01*
X475794Y32655D01*
X475933Y33164D01*
X475979Y33766D01*
X475886Y34506D01*
Y34553D01*
Y34599D01*
X475794Y34830D01*
Y34876D01*
X475748Y34969D01*
X475655Y35200D01*
Y35247D01*
X475609Y35339D01*
X475563Y35478D01*
X475470Y35663D01*
X475146Y36126D01*
X474729Y36681D01*
X464548Y46863D01*
X464502Y46909D01*
X464409Y47002D01*
X464224Y47233D01*
X464039Y47464D01*
X463808Y47835D01*
X463530Y48251D01*
X463206Y48714D01*
X462928Y49269D01*
Y49315D01*
X462836Y49501D01*
X462790Y49778D01*
X462697Y50102D01*
X462604Y50519D01*
X462512Y50981D01*
X462466Y51491D01*
X462419Y52046D01*
Y52092D01*
Y52185D01*
Y52324D01*
X462466Y52555D01*
X462512Y52786D01*
X462558Y53110D01*
X462697Y53804D01*
X462975Y54591D01*
X463438Y55470D01*
X463669Y55887D01*
X463993Y56350D01*
X464363Y56813D01*
X464780Y57229D01*
Y57275D01*
X464872Y57322D01*
X465103Y57553D01*
X465520Y57923D01*
X466075Y58293D01*
X466770Y58664D01*
X467603Y59034D01*
X468621Y59265D01*
X469130Y59358D01*
X473526D01*
X473896Y59312D01*
D02*
G37*
G36*
X412114D02*
X412531Y59265D01*
X412994Y59173D01*
X413503Y59034D01*
X414058Y58895D01*
X414151D01*
X414336Y58803D01*
X414613Y58710D01*
X414984Y58571D01*
X415400Y58432D01*
X415863Y58201D01*
X416788Y57692D01*
X416835Y57646D01*
X416927Y57599D01*
X417066Y57460D01*
X417205Y57275D01*
X417251Y57229D01*
X417344Y57044D01*
X417483Y56766D01*
X417575Y56396D01*
Y56350D01*
Y56304D01*
X417529Y56026D01*
X417344Y55609D01*
X417251Y55424D01*
X417066Y55193D01*
X416974Y55100D01*
X416742Y54962D01*
X416326Y54776D01*
X416094Y54730D01*
X415817Y54684D01*
X415030Y54962D01*
X414937Y55008D01*
X414752Y55147D01*
X414382Y55332D01*
X413919Y55563D01*
X413364Y55795D01*
X412716Y55980D01*
X412022Y56118D01*
X411281Y56165D01*
X407625D01*
X407301Y56118D01*
X406885Y56026D01*
X406422Y55841D01*
X405913Y55656D01*
X405450Y55332D01*
X404987Y54915D01*
X404941Y54869D01*
X404802Y54684D01*
X404617Y54452D01*
X404432Y54082D01*
X404247Y53666D01*
X404062Y53157D01*
X403923Y52601D01*
X403877Y51953D01*
X403923Y51213D01*
X404016Y50796D01*
X404108Y50472D01*
Y50426D01*
X404154Y50380D01*
X404339Y50102D01*
X404617Y49686D01*
X405080Y49130D01*
X415400Y38625D01*
X415446Y38579D01*
X415539Y38486D01*
X415724Y38301D01*
X415955Y38070D01*
X416187Y37746D01*
X416418Y37376D01*
X416650Y36959D01*
X416881Y36496D01*
X417066Y35987D01*
X417344Y35015D01*
X417436Y34460D01*
Y33766D01*
Y33719D01*
Y33627D01*
Y33488D01*
X417390Y33257D01*
X417344Y33025D01*
X417298Y32748D01*
X417159Y32007D01*
X416881Y31220D01*
X416465Y30341D01*
X416187Y29925D01*
X415863Y29462D01*
X415493Y28999D01*
X415076Y28582D01*
X414984Y28490D01*
X414752Y28259D01*
X414336Y27935D01*
X413780Y27564D01*
X413086Y27148D01*
X412207Y26824D01*
X411235Y26593D01*
X410680Y26546D01*
X410078Y26500D01*
X406468D01*
X406237Y26546D01*
X405959D01*
X405681Y26593D01*
X404941Y26731D01*
X404108Y26916D01*
X403182Y27241D01*
X402211Y27657D01*
X401285Y28212D01*
X400776Y28768D01*
X400637Y29416D01*
Y29462D01*
Y29508D01*
X400683Y29786D01*
X400822Y30110D01*
X401054Y30526D01*
Y30573D01*
X401146Y30619D01*
X401378Y30850D01*
X401748Y31035D01*
X401979Y31082D01*
X402211Y31128D01*
X402997Y30850D01*
X403090Y30804D01*
X403321Y30665D01*
X403645Y30480D01*
X404108Y30295D01*
X404663Y30064D01*
X405311Y29878D01*
X406006Y29739D01*
X406700Y29693D01*
X410309D01*
X410633Y29739D01*
X411004Y29832D01*
X411466Y29971D01*
X411976Y30202D01*
X412485Y30480D01*
X412947Y30896D01*
X412994Y30943D01*
X413132Y31128D01*
X413364Y31359D01*
X413595Y31730D01*
X413780Y32146D01*
X414012Y32655D01*
X414151Y33164D01*
X414197Y33766D01*
X414104Y34506D01*
Y34553D01*
Y34599D01*
X414012Y34830D01*
Y34876D01*
X413965Y34969D01*
X413873Y35200D01*
Y35247D01*
X413827Y35339D01*
X413780Y35478D01*
X413688Y35663D01*
X413364Y36126D01*
X412947Y36681D01*
X402766Y46863D01*
X402720Y46909D01*
X402627Y47002D01*
X402442Y47233D01*
X402257Y47464D01*
X402025Y47835D01*
X401748Y48251D01*
X401424Y48714D01*
X401146Y49269D01*
Y49315D01*
X401054Y49501D01*
X401007Y49778D01*
X400915Y50102D01*
X400822Y50519D01*
X400730Y50981D01*
X400683Y51491D01*
X400637Y52046D01*
Y52092D01*
Y52185D01*
Y52324D01*
X400683Y52555D01*
X400730Y52786D01*
X400776Y53110D01*
X400915Y53804D01*
X401193Y54591D01*
X401655Y55470D01*
X401887Y55887D01*
X402211Y56350D01*
X402581Y56813D01*
X402997Y57229D01*
Y57275D01*
X403090Y57322D01*
X403321Y57553D01*
X403738Y57923D01*
X404293Y58293D01*
X404987Y58664D01*
X405820Y59034D01*
X406838Y59265D01*
X407348Y59358D01*
X411744D01*
X412114Y59312D01*
D02*
G37*
G36*
X395778Y59497D02*
X396148Y59312D01*
X396333Y59173D01*
X396518Y58988D01*
X396611Y58895D01*
X396750Y58664D01*
X396889Y58247D01*
X396981Y57738D01*
Y28073D01*
Y28027D01*
Y27935D01*
X396935Y27657D01*
X396796Y27287D01*
X396518Y26916D01*
X396426Y26870D01*
X396194Y26731D01*
X395778Y26546D01*
X395315Y26500D01*
X395269D01*
X395084Y26546D01*
X394714Y26639D01*
X394251Y26824D01*
X394158Y26916D01*
X394019Y27148D01*
X393834Y27518D01*
X393788Y27796D01*
X393742Y28073D01*
Y53249D01*
X387587Y42096D01*
X387540Y42050D01*
X387494Y41957D01*
X387355Y41818D01*
X387216Y41679D01*
X386754Y41356D01*
X386476Y41263D01*
X386152Y41217D01*
X386013D01*
X385874Y41263D01*
X385689Y41356D01*
X385458Y41448D01*
X385226Y41633D01*
X384995Y41865D01*
X384763Y42189D01*
X378747Y53249D01*
Y28073D01*
Y28027D01*
Y27935D01*
X378701Y27657D01*
X378516Y27241D01*
X378423Y27055D01*
X378238Y26870D01*
X378146Y26824D01*
X377914Y26685D01*
X377544Y26546D01*
X377081Y26500D01*
X377035D01*
X376850Y26546D01*
X376526Y26639D01*
X376063Y26778D01*
X375970Y26870D01*
X375785Y27102D01*
X375600Y27518D01*
X375554Y27796D01*
X375508Y28073D01*
Y57738D01*
Y57785D01*
Y57877D01*
Y58016D01*
X375554Y58201D01*
X375647Y58618D01*
X375878Y59034D01*
Y59080D01*
X375970Y59127D01*
X376156Y59312D01*
X376526Y59450D01*
X376757Y59543D01*
X377266D01*
X377498Y59450D01*
X377729Y59358D01*
X377775D01*
X377914Y59265D01*
X378007Y59173D01*
X378099Y59034D01*
X378284Y58849D01*
X378470Y58618D01*
X386198Y45613D01*
X393927Y58571D01*
X393973Y58618D01*
X394019Y58710D01*
X394158Y58895D01*
X394343Y59080D01*
X394806Y59404D01*
X395084Y59497D01*
X395408Y59543D01*
X395500D01*
X395778Y59497D01*
D02*
G37*
G36*
X457467Y59312D02*
X457838Y59127D01*
X458069Y59034D01*
X458254Y58849D01*
X458301D01*
X458347Y58756D01*
X458532Y58525D01*
X458671Y58155D01*
X458763Y57970D01*
Y57738D01*
Y57692D01*
Y57646D01*
X458717Y57414D01*
X458578Y57044D01*
X458301Y56674D01*
X458208Y56581D01*
X457977Y56442D01*
X457606Y56257D01*
X457375Y56211D01*
X457097Y56165D01*
X451914D01*
Y28073D01*
Y28027D01*
Y27935D01*
X451868Y27657D01*
X451729Y27287D01*
X451451Y26916D01*
X451359Y26870D01*
X451127Y26731D01*
X450711Y26546D01*
X450248Y26500D01*
X450202D01*
X450017Y26546D01*
X449693Y26639D01*
X449230Y26778D01*
X449137Y26870D01*
X448952Y27102D01*
X448767Y27518D01*
X448721Y27796D01*
X448675Y28073D01*
Y56165D01*
X443260D01*
X442982Y56211D01*
X442612Y56350D01*
X442242Y56581D01*
Y56627D01*
X442196Y56674D01*
X442057Y56905D01*
X441872Y57275D01*
X441825Y57738D01*
Y57785D01*
X441872Y58016D01*
X441964Y58293D01*
X442196Y58710D01*
Y58756D01*
X442288Y58803D01*
X442473Y59034D01*
X442843Y59265D01*
X443121Y59312D01*
X443399Y59358D01*
X457190D01*
X457467Y59312D01*
D02*
G37*
G36*
X431320D02*
X431598D01*
X431875Y59265D01*
X432570Y59080D01*
X433402Y58849D01*
X434282Y58432D01*
X435161Y57923D01*
X435578Y57553D01*
X435994Y57183D01*
X436040Y57137D01*
X436087Y57090D01*
X436364Y56813D01*
X436688Y56350D01*
X437105Y55748D01*
X437521Y55008D01*
X437892Y54128D01*
X438123Y53110D01*
X438169Y52601D01*
X438215Y52046D01*
Y47464D01*
Y47418D01*
Y47326D01*
Y47187D01*
X438169Y46955D01*
Y46724D01*
X438123Y46400D01*
X437938Y45706D01*
X437706Y44873D01*
X437290Y44040D01*
X436781Y43160D01*
X436411Y42744D01*
X436040Y42327D01*
X435994D01*
X435948Y42235D01*
X435809Y42142D01*
X435670Y42003D01*
X435207Y41633D01*
X434606Y41263D01*
X433819Y40893D01*
X432940Y40522D01*
X431922Y40291D01*
X431366Y40245D01*
X430811Y40198D01*
X431042D01*
X438030Y28768D01*
X438077Y28721D01*
X438123Y28582D01*
X438169Y28351D01*
X438215Y28027D01*
Y27981D01*
Y27935D01*
X438169Y27657D01*
X437984Y27287D01*
X437845Y27102D01*
X437660Y26870D01*
X437568Y26824D01*
X437336Y26685D01*
X436966Y26546D01*
X436503Y26500D01*
X436272D01*
X435994Y26546D01*
X435717Y26639D01*
X435670Y26685D01*
X435531Y26824D01*
X435346Y27009D01*
X435115Y27333D01*
X427618Y40198D01*
X424471D01*
Y28073D01*
Y28027D01*
Y27935D01*
X424424Y27657D01*
X424286Y27287D01*
X424008Y26916D01*
X423915Y26870D01*
X423684Y26731D01*
X423268Y26546D01*
X422805Y26500D01*
X422758D01*
X422573Y26546D01*
X422249Y26639D01*
X421787Y26778D01*
X421694Y26870D01*
X421509Y27102D01*
X421324Y27518D01*
X421278Y27796D01*
X421231Y28073D01*
Y57738D01*
Y57831D01*
X421278Y58016D01*
X421324Y58247D01*
X421416Y58571D01*
X421601Y58849D01*
X421879Y59127D01*
X422296Y59312D01*
X422805Y59358D01*
X431089D01*
X431320Y59312D01*
D02*
G37*
G36*
X163050Y59497D02*
X163420Y59312D01*
X163605Y59173D01*
X163790Y58988D01*
X163883Y58895D01*
X164022Y58664D01*
X164161Y58247D01*
X164253Y57738D01*
Y28073D01*
Y28027D01*
Y27935D01*
X164207Y27657D01*
X164068Y27287D01*
X163790Y26916D01*
X163698Y26870D01*
X163466Y26731D01*
X163050Y26546D01*
X162587Y26500D01*
X162541D01*
X162356Y26546D01*
X161986Y26639D01*
X161523Y26824D01*
X161430Y26916D01*
X161291Y27148D01*
X161106Y27518D01*
X161060Y27796D01*
X161014Y28073D01*
Y53249D01*
X154859Y42096D01*
X154812Y42050D01*
X154766Y41957D01*
X154627Y41818D01*
X154488Y41679D01*
X154026Y41356D01*
X153748Y41263D01*
X153424Y41217D01*
X153285D01*
X153146Y41263D01*
X152961Y41356D01*
X152730Y41448D01*
X152499Y41633D01*
X152267Y41865D01*
X152036Y42189D01*
X146019Y53249D01*
Y28073D01*
Y28027D01*
Y27935D01*
X145973Y27657D01*
X145788Y27241D01*
X145695Y27055D01*
X145510Y26870D01*
X145418Y26824D01*
X145186Y26685D01*
X144816Y26546D01*
X144353Y26500D01*
X144307D01*
X144122Y26546D01*
X143798Y26639D01*
X143335Y26778D01*
X143243Y26870D01*
X143058Y27102D01*
X142872Y27518D01*
X142826Y27796D01*
X142780Y28073D01*
Y57738D01*
Y57785D01*
Y57877D01*
Y58016D01*
X142826Y58201D01*
X142919Y58618D01*
X143150Y59034D01*
Y59080D01*
X143243Y59127D01*
X143428Y59312D01*
X143798Y59450D01*
X144029Y59543D01*
X144538D01*
X144770Y59450D01*
X145001Y59358D01*
X145048D01*
X145186Y59265D01*
X145279Y59173D01*
X145372Y59034D01*
X145557Y58849D01*
X145742Y58618D01*
X153470Y45613D01*
X161199Y58571D01*
X161245Y58618D01*
X161291Y58710D01*
X161430Y58895D01*
X161615Y59080D01*
X162078Y59404D01*
X162356Y59497D01*
X162680Y59543D01*
X162772D01*
X163050Y59497D01*
D02*
G37*
G36*
X137828Y59312D02*
X138198Y59127D01*
X138430Y59034D01*
X138615Y58849D01*
X138661D01*
X138707Y58756D01*
X138892Y58525D01*
X139078Y58201D01*
X139170Y57970D01*
Y57738D01*
Y57646D01*
X139124Y57414D01*
X139031Y57137D01*
X138846Y56813D01*
X130794Y46215D01*
X138985Y28721D01*
X139078Y28305D01*
Y28259D01*
X139124Y28166D01*
Y28120D01*
Y28027D01*
X139078Y27888D01*
Y27750D01*
X138892Y27333D01*
X138800Y27102D01*
X138615Y26916D01*
X138522Y26870D01*
X138291Y26731D01*
X137874Y26546D01*
X137365Y26500D01*
X136625Y26639D01*
X136069Y27333D01*
X128619Y43762D01*
X125425Y38949D01*
Y28073D01*
Y28027D01*
Y27935D01*
X125379Y27657D01*
X125240Y27287D01*
X124963Y26916D01*
X124870Y26870D01*
X124639Y26731D01*
X124222Y26546D01*
X123759Y26500D01*
X123713D01*
X123528Y26546D01*
X123204Y26639D01*
X122741Y26778D01*
X122649Y26870D01*
X122464Y27102D01*
X122278Y27518D01*
X122232Y27796D01*
X122186Y28073D01*
Y57738D01*
Y57785D01*
Y57831D01*
X122232Y58062D01*
X122371Y58432D01*
X122649Y58803D01*
Y58849D01*
X122741Y58895D01*
X122973Y59080D01*
X123296Y59265D01*
X123528Y59358D01*
X123852D01*
X124129Y59312D01*
X124500Y59173D01*
X124870Y58895D01*
X124916D01*
X124963Y58803D01*
X125148Y58618D01*
X125333Y58247D01*
X125425Y58016D01*
Y57738D01*
Y43392D01*
X136162Y58618D01*
X136208Y58664D01*
X136255Y58756D01*
X136532Y58988D01*
X136903Y59265D01*
X137180Y59312D01*
X137458Y59358D01*
X137550D01*
X137828Y59312D01*
D02*
G37*
G36*
X729911D02*
X730281Y59127D01*
X730512Y59034D01*
X730697Y58849D01*
X730744D01*
X730790Y58756D01*
X730975Y58525D01*
X731114Y58155D01*
X731207Y57970D01*
Y57738D01*
Y57692D01*
Y57646D01*
X731160Y57414D01*
X731021Y57044D01*
X730744Y56674D01*
X730651Y56581D01*
X730420Y56442D01*
X730050Y56257D01*
X729818Y56211D01*
X729540Y56165D01*
X719776D01*
Y45613D01*
X729633D01*
X729911Y45567D01*
X730281Y45382D01*
X730512Y45289D01*
X730697Y45104D01*
X730744D01*
X730790Y45012D01*
X730975Y44780D01*
X731114Y44410D01*
X731207Y44225D01*
Y43993D01*
Y43947D01*
Y43901D01*
X731160Y43669D01*
X731021Y43299D01*
X730744Y42929D01*
X730651Y42836D01*
X730420Y42698D01*
X730050Y42512D01*
X729818Y42466D01*
X729540Y42420D01*
X719776D01*
Y28073D01*
Y28027D01*
Y27935D01*
X719729Y27657D01*
X719591Y27287D01*
X719313Y26916D01*
X719220Y26870D01*
X718989Y26731D01*
X718572Y26546D01*
X718110Y26500D01*
X718063D01*
X717878Y26546D01*
X717554Y26639D01*
X717092Y26778D01*
X716999Y26870D01*
X716814Y27102D01*
X716629Y27518D01*
X716582Y27796D01*
X716536Y28073D01*
Y57738D01*
Y57831D01*
X716582Y58016D01*
X716629Y58247D01*
X716721Y58571D01*
X716906Y58849D01*
X717184Y59127D01*
X717601Y59312D01*
X718110Y59358D01*
X729633D01*
X729911Y59312D01*
D02*
G37*
G36*
X706031D02*
X706309D01*
X706586Y59265D01*
X707280Y59080D01*
X708113Y58849D01*
X708993Y58432D01*
X709872Y57923D01*
X710288Y57553D01*
X710705Y57183D01*
X710751Y57137D01*
X710798Y57090D01*
X711075Y56813D01*
X711399Y56350D01*
X711816Y55748D01*
X712232Y55008D01*
X712602Y54128D01*
X712834Y53110D01*
X712880Y52601D01*
X712926Y52046D01*
Y33766D01*
Y33719D01*
Y33627D01*
Y33488D01*
X712880Y33257D01*
Y33025D01*
X712834Y32701D01*
X712649Y32007D01*
X712417Y31220D01*
X712001Y30341D01*
X711492Y29462D01*
X711122Y29045D01*
X710751Y28629D01*
X710705D01*
X710659Y28536D01*
X710520Y28444D01*
X710381Y28305D01*
X709918Y27935D01*
X709317Y27564D01*
X708530Y27194D01*
X707651Y26824D01*
X706633Y26593D01*
X706077Y26546D01*
X705522Y26500D01*
X702977D01*
X702791Y26546D01*
X702514D01*
X702236Y26593D01*
X701542Y26778D01*
X700755Y27009D01*
X699922Y27379D01*
X699043Y27888D01*
X698580Y28212D01*
X698164Y28582D01*
X698117Y28629D01*
X698071Y28675D01*
X697978Y28814D01*
X697840Y28953D01*
X697469Y29416D01*
X697053Y30017D01*
X696636Y30804D01*
X696312Y31683D01*
X696035Y32655D01*
X695988Y33210D01*
X695942Y33766D01*
Y52046D01*
Y52092D01*
Y52185D01*
Y52324D01*
X695988Y52555D01*
Y52786D01*
X696035Y53064D01*
X696220Y53758D01*
X696451Y54591D01*
X696821Y55424D01*
X697330Y56304D01*
X697654Y56720D01*
X698025Y57137D01*
X698071Y57183D01*
X698117Y57229D01*
X698256Y57322D01*
X698395Y57507D01*
X698858Y57831D01*
X699459Y58247D01*
X700246Y58664D01*
X701125Y59034D01*
X702143Y59265D01*
X702699Y59312D01*
X703254Y59358D01*
X705799D01*
X706031Y59312D01*
D02*
G37*
G36*
X685437D02*
X685714D01*
X685992Y59265D01*
X686686Y59080D01*
X687519Y58849D01*
X688399Y58432D01*
X689278Y57923D01*
X689695Y57553D01*
X690111Y57183D01*
X690157Y57137D01*
X690203Y57090D01*
X690481Y56813D01*
X690805Y56350D01*
X691222Y55748D01*
X691638Y55008D01*
X692008Y54128D01*
X692240Y53110D01*
X692286Y52601D01*
X692332Y52046D01*
Y33766D01*
Y33719D01*
Y33627D01*
Y33488D01*
X692286Y33257D01*
Y33025D01*
X692240Y32701D01*
X692055Y32007D01*
X691823Y31220D01*
X691407Y30341D01*
X690898Y29462D01*
X690527Y29045D01*
X690157Y28629D01*
X690111D01*
X690065Y28536D01*
X689926Y28444D01*
X689787Y28305D01*
X689324Y27935D01*
X688723Y27564D01*
X687936Y27194D01*
X687057Y26824D01*
X686039Y26593D01*
X685483Y26546D01*
X684928Y26500D01*
X676875D01*
X676690Y26546D01*
X676413Y26593D01*
X676135Y26685D01*
X675857Y26870D01*
X675579Y27148D01*
X675394Y27564D01*
X675348Y28073D01*
Y57738D01*
Y57831D01*
X675394Y58016D01*
X675441Y58247D01*
X675533Y58571D01*
X675718Y58849D01*
X675996Y59127D01*
X676413Y59312D01*
X676921Y59358D01*
X685205D01*
X685437Y59312D01*
D02*
G37*
G36*
X745511Y604208D02*
X745928Y604161D01*
X746391Y604069D01*
X746900Y603930D01*
X747455Y603791D01*
X747548D01*
X747733Y603699D01*
X748010Y603606D01*
X748381Y603467D01*
X748797Y603329D01*
X749260Y603097D01*
X750185Y602588D01*
X750232Y602542D01*
X750324Y602495D01*
X750463Y602357D01*
X750602Y602172D01*
X750648Y602125D01*
X750741Y601940D01*
X750880Y601662D01*
X750972Y601292D01*
Y601246D01*
Y601200D01*
X750926Y600922D01*
X750741Y600505D01*
X750648Y600320D01*
X750463Y600089D01*
X750371Y599996D01*
X750139Y599858D01*
X749723Y599673D01*
X749491Y599626D01*
X749214Y599580D01*
X748427Y599858D01*
X748334Y599904D01*
X748149Y600043D01*
X747779Y600228D01*
X747316Y600459D01*
X746761Y600691D01*
X746113Y600876D01*
X745419Y601015D01*
X744678Y601061D01*
X741022D01*
X740698Y601015D01*
X740282Y600922D01*
X739819Y600737D01*
X739310Y600552D01*
X738847Y600228D01*
X738384Y599811D01*
X738338Y599765D01*
X738199Y599580D01*
X738014Y599348D01*
X737829Y598978D01*
X737644Y598562D01*
X737459Y598053D01*
X737320Y597497D01*
X737274Y596850D01*
X737320Y596109D01*
X737412Y595692D01*
X737505Y595369D01*
Y595322D01*
X737551Y595276D01*
X737736Y594998D01*
X738014Y594582D01*
X738477Y594026D01*
X748797Y583521D01*
X748843Y583475D01*
X748936Y583382D01*
X749121Y583197D01*
X749352Y582966D01*
X749584Y582642D01*
X749815Y582272D01*
X750047Y581855D01*
X750278Y581392D01*
X750463Y580883D01*
X750741Y579911D01*
X750833Y579356D01*
Y578662D01*
Y578616D01*
Y578523D01*
Y578384D01*
X750787Y578153D01*
X750741Y577921D01*
X750695Y577644D01*
X750556Y576903D01*
X750278Y576117D01*
X749862Y575237D01*
X749584Y574821D01*
X749260Y574358D01*
X748890Y573895D01*
X748473Y573479D01*
X748381Y573386D01*
X748149Y573155D01*
X747733Y572831D01*
X747177Y572461D01*
X746483Y572044D01*
X745604Y571720D01*
X744632Y571489D01*
X744077Y571442D01*
X743475Y571396D01*
X739865D01*
X739634Y571442D01*
X739356D01*
X739079Y571489D01*
X738338Y571628D01*
X737505Y571813D01*
X736580Y572137D01*
X735608Y572553D01*
X734682Y573108D01*
X734173Y573664D01*
X734034Y574312D01*
Y574358D01*
Y574404D01*
X734080Y574682D01*
X734219Y575006D01*
X734451Y575422D01*
Y575469D01*
X734543Y575515D01*
X734775Y575746D01*
X735145Y575932D01*
X735376Y575978D01*
X735608Y576024D01*
X736394Y575746D01*
X736487Y575700D01*
X736718Y575561D01*
X737042Y575376D01*
X737505Y575191D01*
X738060Y574960D01*
X738708Y574775D01*
X739402Y574636D01*
X740097Y574589D01*
X743706D01*
X744030Y574636D01*
X744401Y574728D01*
X744863Y574867D01*
X745372Y575098D01*
X745882Y575376D01*
X746344Y575793D01*
X746391Y575839D01*
X746529Y576024D01*
X746761Y576255D01*
X746992Y576626D01*
X747177Y577042D01*
X747409Y577551D01*
X747548Y578060D01*
X747594Y578662D01*
X747501Y579402D01*
Y579449D01*
Y579495D01*
X747409Y579726D01*
Y579773D01*
X747362Y579865D01*
X747270Y580097D01*
Y580143D01*
X747224Y580235D01*
X747177Y580374D01*
X747085Y580559D01*
X746761Y581022D01*
X746344Y581577D01*
X736163Y591759D01*
X736117Y591805D01*
X736024Y591898D01*
X735839Y592129D01*
X735654Y592360D01*
X735423Y592731D01*
X735145Y593147D01*
X734821Y593610D01*
X734543Y594165D01*
Y594212D01*
X734451Y594397D01*
X734404Y594674D01*
X734312Y594998D01*
X734219Y595415D01*
X734127Y595878D01*
X734080Y596387D01*
X734034Y596942D01*
Y596988D01*
Y597081D01*
Y597220D01*
X734080Y597451D01*
X734127Y597682D01*
X734173Y598006D01*
X734312Y598701D01*
X734589Y599487D01*
X735052Y600367D01*
X735284Y600783D01*
X735608Y601246D01*
X735978Y601709D01*
X736394Y602125D01*
Y602172D01*
X736487Y602218D01*
X736718Y602449D01*
X737135Y602819D01*
X737690Y603190D01*
X738384Y603560D01*
X739217Y603930D01*
X740236Y604161D01*
X740745Y604254D01*
X745141D01*
X745511Y604208D01*
D02*
G37*
G36*
X768003D02*
X768373Y604023D01*
X768604Y603930D01*
X768790Y603745D01*
X768836D01*
X768882Y603652D01*
X769067Y603421D01*
X769206Y603051D01*
X769299Y602866D01*
Y602634D01*
Y602588D01*
Y602542D01*
X769252Y602310D01*
X769113Y601940D01*
X768836Y601570D01*
X768743Y601477D01*
X768512Y601339D01*
X768142Y601153D01*
X767910Y601107D01*
X767633Y601061D01*
X761663D01*
X761339Y601015D01*
X760968Y600922D01*
X760506Y600783D01*
X760043Y600552D01*
X759534Y600274D01*
X759071Y599858D01*
X759025Y599811D01*
X758886Y599673D01*
X758701Y599395D01*
X758469Y599071D01*
X758238Y598654D01*
X758053Y598145D01*
X757914Y597590D01*
X757868Y596942D01*
Y578662D01*
Y578569D01*
Y578384D01*
X757914Y578060D01*
X758007Y577644D01*
X758145Y577181D01*
X758377Y576718D01*
X758654Y576209D01*
X759071Y575746D01*
X759117Y575700D01*
X759302Y575561D01*
X759534Y575376D01*
X759904Y575191D01*
X760321Y574960D01*
X760783Y574775D01*
X761339Y574636D01*
X761940Y574589D01*
X767725D01*
X768003Y574543D01*
X768373Y574358D01*
X768604Y574265D01*
X768790Y574080D01*
X768836D01*
X768882Y573988D01*
X769067Y573756D01*
X769206Y573386D01*
X769299Y573201D01*
Y572970D01*
Y572923D01*
Y572877D01*
X769252Y572646D01*
X769113Y572275D01*
X768836Y571905D01*
X768743Y571813D01*
X768512Y571674D01*
X768142Y571489D01*
X767910Y571442D01*
X767633Y571396D01*
X761663D01*
X761478Y571442D01*
X761200D01*
X760922Y571489D01*
X760228Y571674D01*
X759441Y571905D01*
X758562Y572275D01*
X757729Y572785D01*
X757266Y573108D01*
X756850Y573479D01*
X756803Y573525D01*
X756757Y573571D01*
X756665Y573710D01*
X756526Y573849D01*
X756155Y574312D01*
X755739Y574913D01*
X755322Y575700D01*
X754998Y576579D01*
X754721Y577551D01*
X754675Y578107D01*
X754628Y578662D01*
Y596942D01*
Y596988D01*
Y597081D01*
Y597220D01*
X754675Y597451D01*
Y597682D01*
X754721Y597960D01*
X754906Y598654D01*
X755137Y599487D01*
X755508Y600320D01*
X756017Y601200D01*
X756340Y601616D01*
X756711Y602033D01*
X756757Y602079D01*
X756803Y602125D01*
X756942Y602218D01*
X757081Y602403D01*
X757544Y602727D01*
X758145Y603143D01*
X758932Y603560D01*
X759811Y603930D01*
X760830Y604161D01*
X761385Y604208D01*
X761940Y604254D01*
X767725D01*
X768003Y604208D01*
D02*
G37*
G36*
X621509Y661034D02*
X621972Y660988D01*
X622481Y660895D01*
X623036Y660757D01*
X623591Y660571D01*
X624193Y660294D01*
X624286Y660247D01*
X624471Y660155D01*
X624748Y659970D01*
X625119Y659738D01*
X625535Y659414D01*
X625998Y659044D01*
X626461Y658581D01*
X626877Y658072D01*
X627155Y657609D01*
Y657147D01*
Y657101D01*
Y657054D01*
X627109Y656777D01*
X626970Y656406D01*
X626692Y656036D01*
X626646D01*
X626600Y655944D01*
X626322Y655805D01*
X625952Y655666D01*
X625443Y655573D01*
X624795Y655620D01*
X624748Y655666D01*
X624702Y655712D01*
X624517Y655851D01*
X624471Y655897D01*
X624425Y655944D01*
X624286Y656082D01*
X624147Y656267D01*
Y656314D01*
X624054Y656406D01*
X623777Y656684D01*
X623360Y657008D01*
X622758Y657378D01*
X621740Y657748D01*
X621648Y657795D01*
X621463Y657841D01*
X621185Y657887D01*
X617575D01*
X617390Y657841D01*
X617159Y657795D01*
X616650Y657609D01*
X616372Y657471D01*
X616141Y657239D01*
Y657193D01*
X616048Y657147D01*
X615956Y657008D01*
X615863Y656823D01*
X615678Y656314D01*
X615631Y655990D01*
X615585Y655666D01*
Y655620D01*
Y655527D01*
X615631Y655342D01*
X615678Y655110D01*
X615770Y654833D01*
X615909Y654555D01*
X616094Y654324D01*
X616326Y654046D01*
X625257Y646780D01*
X625304Y646734D01*
X625396Y646641D01*
X625582Y646503D01*
X625767Y646318D01*
X625998Y646040D01*
X626229Y645716D01*
X626414Y645392D01*
X626600Y644975D01*
X626646Y644929D01*
X626692Y644790D01*
X626785Y644559D01*
X626877Y644281D01*
X626970Y643957D01*
X627062Y643587D01*
X627155Y643170D01*
Y642754D01*
Y642708D01*
Y642662D01*
Y642384D01*
X627062Y641967D01*
X626970Y641458D01*
X626785Y640903D01*
X626553Y640255D01*
X626183Y639607D01*
X625674Y639006D01*
X625582Y638913D01*
X625396Y638728D01*
X625072Y638496D01*
X624610Y638172D01*
X624008Y637849D01*
X623314Y637617D01*
X622573Y637432D01*
X621694Y637339D01*
X618269D01*
X617946Y637386D01*
X617483Y637432D01*
X616974Y637524D01*
X616418Y637617D01*
X615817Y637802D01*
X615261Y638034D01*
X615215Y638080D01*
X615030Y638172D01*
X614752Y638358D01*
X614382Y638589D01*
X613965Y638867D01*
X613549Y639283D01*
X613086Y639700D01*
X612623Y640255D01*
X612392Y640718D01*
X612346Y641181D01*
Y641273D01*
X612392Y641505D01*
X612531Y641829D01*
X612762Y642245D01*
Y642291D01*
X612855Y642337D01*
X613086Y642569D01*
X613456Y642754D01*
X613688Y642800D01*
X613965Y642847D01*
X614197D01*
X614428Y642754D01*
X614660Y642662D01*
X614706D01*
X614845Y642569D01*
X615030Y642430D01*
X615261Y642152D01*
Y642106D01*
X615354Y642060D01*
X615446Y641921D01*
X615585Y641782D01*
X615817Y641597D01*
X616048Y641412D01*
X616372Y641134D01*
X616742Y640903D01*
X616788D01*
X616881Y640857D01*
X617066Y640810D01*
X617251Y640718D01*
X617529Y640671D01*
X617853Y640579D01*
X618593Y640533D01*
X621879D01*
X622064Y640579D01*
X622296Y640625D01*
X622758Y640810D01*
X623036Y640949D01*
X623268Y641181D01*
X623314Y641227D01*
X623360Y641319D01*
X623453Y641412D01*
X623591Y641597D01*
X623823Y642106D01*
X623869Y642384D01*
X623915Y642708D01*
Y642754D01*
Y642847D01*
X623869Y642985D01*
X623823Y643217D01*
X623730Y643448D01*
X623545Y643726D01*
X623360Y644050D01*
X623082Y644374D01*
X614336Y651501D01*
X614289Y651547D01*
X614151Y651640D01*
X613965Y651825D01*
X613780Y652056D01*
X613503Y652334D01*
X613271Y652658D01*
X613040Y653028D01*
X612808Y653444D01*
X612438Y654601D01*
Y654648D01*
Y654694D01*
X612392Y654972D01*
X612346Y655296D01*
Y655620D01*
Y655666D01*
Y655712D01*
X612392Y655990D01*
X612438Y656406D01*
X612531Y656915D01*
X612716Y657517D01*
X612947Y658119D01*
X613318Y658766D01*
X613780Y659368D01*
X613873Y659461D01*
X614058Y659646D01*
X614382Y659923D01*
X614845Y660247D01*
X615446Y660525D01*
X616094Y660803D01*
X616881Y660988D01*
X617714Y661080D01*
X621185D01*
X621509Y661034D01*
D02*
G37*
G36*
X634837Y670151D02*
X635207Y670012D01*
X635578Y669735D01*
X635624D01*
X635670Y669642D01*
X635855Y669457D01*
X636040Y669087D01*
X636133Y668855D01*
Y668578D01*
Y661080D01*
X639187D01*
X639465Y661034D01*
X639835Y660849D01*
X640021Y660710D01*
X640206Y660525D01*
X640252D01*
X640298Y660433D01*
X640483Y660201D01*
X640668Y659877D01*
X640761Y659646D01*
Y659461D01*
Y659414D01*
Y659368D01*
X640715Y659137D01*
X640576Y658766D01*
X640298Y658396D01*
X640206Y658304D01*
X639974Y658165D01*
X639604Y657980D01*
X639373Y657934D01*
X639095Y657887D01*
X636133D01*
Y638913D01*
Y638867D01*
Y638774D01*
X636087Y638496D01*
X635948Y638126D01*
X635670Y637756D01*
X635578Y637710D01*
X635346Y637571D01*
X634930Y637386D01*
X634467Y637339D01*
X634421D01*
X634236Y637386D01*
X633912Y637478D01*
X633449Y637617D01*
X633356Y637710D01*
X633171Y637941D01*
X632986Y638358D01*
X632940Y638635D01*
X632893Y638913D01*
Y657887D01*
X632107D01*
X631829Y657934D01*
X631459Y658072D01*
X631089Y658304D01*
Y658350D01*
X631042Y658396D01*
X630904Y658674D01*
X630718Y659044D01*
X630672Y659461D01*
Y659507D01*
X630718Y659738D01*
X630811Y660016D01*
X631042Y660433D01*
Y660479D01*
X631135Y660525D01*
X631320Y660757D01*
X631690Y660988D01*
X631968Y661034D01*
X632246Y661080D01*
X632893D01*
Y668578D01*
Y668624D01*
Y668670D01*
X632940Y668902D01*
X633079Y669272D01*
X633356Y669642D01*
Y669688D01*
X633449Y669735D01*
X633680Y669920D01*
X634004Y670105D01*
X634236Y670197D01*
X634560D01*
X634837Y670151D01*
D02*
G37*
G36*
X604293Y660988D02*
X604802Y660895D01*
X605358Y660710D01*
X605959Y660479D01*
X606561Y660109D01*
X607163Y659600D01*
X607209Y659553D01*
X607394Y659322D01*
X607625Y659044D01*
X607903Y658581D01*
X608181Y658072D01*
X608412Y657471D01*
X608597Y656777D01*
X608643Y656036D01*
Y649187D01*
Y649140D01*
X608597Y648955D01*
X608551Y648678D01*
X608412Y648400D01*
X608227Y648122D01*
X607903Y647845D01*
X607486Y647660D01*
X606931Y647613D01*
X597213D01*
Y642337D01*
Y642291D01*
Y642199D01*
X597259Y642060D01*
Y641875D01*
X597444Y641458D01*
X597537Y641227D01*
X597722Y641042D01*
X597768D01*
X597814Y640949D01*
X598092Y640810D01*
X598462Y640625D01*
X598694Y640579D01*
X598971Y640533D01*
X607070D01*
X607348Y640486D01*
X607718Y640301D01*
X607903Y640209D01*
X608088Y640024D01*
X608134D01*
X608181Y639931D01*
X608366Y639700D01*
X608551Y639329D01*
X608643Y639144D01*
Y638913D01*
Y638867D01*
Y638820D01*
X608597Y638589D01*
X608458Y638219D01*
X608181Y637849D01*
X608088Y637756D01*
X607857Y637617D01*
X607486Y637432D01*
X607255Y637386D01*
X606977Y637339D01*
X598879D01*
X598601Y637386D01*
X598231Y637432D01*
X597722Y637524D01*
X597166Y637710D01*
X596565Y637941D01*
X595963Y638311D01*
X595408Y638774D01*
X595361Y638820D01*
X595176Y639052D01*
X594945Y639329D01*
X594714Y639746D01*
X594436Y640255D01*
X594204Y640903D01*
X594019Y641597D01*
X593973Y642337D01*
Y656036D01*
Y656129D01*
X594019Y656360D01*
X594066Y656730D01*
X594158Y657193D01*
X594297Y657702D01*
X594575Y658304D01*
X594899Y658905D01*
X595361Y659507D01*
X595408Y659553D01*
X595639Y659738D01*
X595917Y660016D01*
X596333Y660294D01*
X596889Y660571D01*
X597490Y660849D01*
X598184Y661034D01*
X598971Y661080D01*
X603923D01*
X604293Y660988D01*
D02*
G37*
G36*
X584440Y670151D02*
X584810Y670012D01*
X585180Y669735D01*
X585226D01*
X585273Y669642D01*
X585458Y669457D01*
X585643Y669087D01*
X585735Y668855D01*
Y668578D01*
Y661080D01*
X588790D01*
X589067Y661034D01*
X589438Y660849D01*
X589623Y660710D01*
X589808Y660525D01*
X589854D01*
X589901Y660433D01*
X590086Y660201D01*
X590271Y659877D01*
X590363Y659646D01*
Y659461D01*
Y659414D01*
Y659368D01*
X590317Y659137D01*
X590178Y658766D01*
X589901Y658396D01*
X589808Y658304D01*
X589577Y658165D01*
X589206Y657980D01*
X588975Y657934D01*
X588697Y657887D01*
X585735D01*
Y638913D01*
Y638867D01*
Y638774D01*
X585689Y638496D01*
X585550Y638126D01*
X585273Y637756D01*
X585180Y637710D01*
X584949Y637571D01*
X584532Y637386D01*
X584069Y637339D01*
X584023D01*
X583838Y637386D01*
X583514Y637478D01*
X583051Y637617D01*
X582959Y637710D01*
X582774Y637941D01*
X582589Y638358D01*
X582542Y638635D01*
X582496Y638913D01*
Y657887D01*
X581709D01*
X581432Y657934D01*
X581061Y658072D01*
X580691Y658304D01*
Y658350D01*
X580645Y658396D01*
X580506Y658674D01*
X580321Y659044D01*
X580275Y659461D01*
Y659507D01*
X580321Y659738D01*
X580413Y660016D01*
X580645Y660433D01*
Y660479D01*
X580737Y660525D01*
X580922Y660757D01*
X581293Y660988D01*
X581570Y661034D01*
X581848Y661080D01*
X582496D01*
Y668578D01*
Y668624D01*
Y668670D01*
X582542Y668902D01*
X582681Y669272D01*
X582959Y669642D01*
Y669688D01*
X583051Y669735D01*
X583283Y669920D01*
X583607Y670105D01*
X583838Y670197D01*
X584162D01*
X584440Y670151D01*
D02*
G37*
G36*
X318823Y623510D02*
X319193Y623371D01*
X319563Y623094D01*
X319610D01*
X319656Y623001D01*
X319841Y622816D01*
X320026Y622446D01*
X320118Y622215D01*
Y621937D01*
Y592272D01*
Y592226D01*
X320072Y592041D01*
X320026Y591763D01*
X319933Y591485D01*
X319702Y591208D01*
X319424Y590930D01*
X319008Y590745D01*
X318452Y590699D01*
X310400D01*
X310122Y590745D01*
X309752Y590791D01*
X309243Y590884D01*
X308688Y591069D01*
X308086Y591300D01*
X307484Y591670D01*
X306883Y592133D01*
X306836Y592179D01*
X306651Y592411D01*
X306420Y592735D01*
X306189Y593151D01*
X305911Y593661D01*
X305680Y594262D01*
X305494Y594956D01*
X305448Y595697D01*
Y609395D01*
Y609441D01*
Y609488D01*
X305494Y609766D01*
X305541Y610136D01*
X305633Y610645D01*
X305818Y611200D01*
X306050Y611802D01*
X306420Y612403D01*
X306883Y612959D01*
X306929Y613005D01*
X307160Y613190D01*
X307484Y613422D01*
X307901Y613699D01*
X308410Y613977D01*
X309012Y614208D01*
X309706Y614393D01*
X310492Y614440D01*
X316879D01*
Y621937D01*
Y621983D01*
Y622029D01*
X316925Y622261D01*
X317064Y622631D01*
X317342Y623001D01*
Y623047D01*
X317434Y623094D01*
X317666Y623279D01*
X317990Y623464D01*
X318221Y623557D01*
X318545D01*
X318823Y623510D01*
D02*
G37*
G36*
X297442Y614347D02*
X297951Y614254D01*
X298506Y614069D01*
X299108Y613838D01*
X299710Y613468D01*
X300311Y612959D01*
X300357Y612912D01*
X300543Y612681D01*
X300774Y612403D01*
X301052Y611941D01*
X301329Y611432D01*
X301561Y610830D01*
X301746Y610136D01*
X301792Y609395D01*
Y602546D01*
Y602500D01*
X301746Y602315D01*
X301700Y602037D01*
X301561Y601759D01*
X301376Y601482D01*
X301052Y601204D01*
X300635Y601019D01*
X300080Y600973D01*
X290361D01*
Y595697D01*
Y595650D01*
Y595558D01*
X290408Y595419D01*
Y595234D01*
X290593Y594817D01*
X290685Y594586D01*
X290870Y594401D01*
X290917D01*
X290963Y594308D01*
X291241Y594170D01*
X291611Y593984D01*
X291842Y593938D01*
X292120Y593892D01*
X300219D01*
X300496Y593846D01*
X300867Y593661D01*
X301052Y593568D01*
X301237Y593383D01*
X301283D01*
X301329Y593290D01*
X301514Y593059D01*
X301700Y592689D01*
X301792Y592504D01*
Y592272D01*
Y592226D01*
Y592179D01*
X301746Y591948D01*
X301607Y591578D01*
X301329Y591208D01*
X301237Y591115D01*
X301005Y590976D01*
X300635Y590791D01*
X300404Y590745D01*
X300126Y590699D01*
X292027D01*
X291750Y590745D01*
X291379Y590791D01*
X290870Y590884D01*
X290315Y591069D01*
X289713Y591300D01*
X289112Y591670D01*
X288556Y592133D01*
X288510Y592179D01*
X288325Y592411D01*
X288094Y592689D01*
X287862Y593105D01*
X287584Y593614D01*
X287353Y594262D01*
X287168Y594956D01*
X287122Y595697D01*
Y609395D01*
Y609488D01*
X287168Y609719D01*
X287214Y610089D01*
X287307Y610552D01*
X287446Y611061D01*
X287723Y611663D01*
X288047Y612265D01*
X288510Y612866D01*
X288556Y612912D01*
X288788Y613098D01*
X289065Y613375D01*
X289482Y613653D01*
X290037Y613931D01*
X290639Y614208D01*
X291333Y614393D01*
X292120Y614440D01*
X297072D01*
X297442Y614347D01*
D02*
G37*
G36*
X273053Y623510D02*
X273423Y623371D01*
X273794Y623094D01*
X273840D01*
X273886Y623001D01*
X274071Y622816D01*
X274256Y622446D01*
X274349Y622215D01*
Y621937D01*
Y593892D01*
X281938D01*
X282216Y593846D01*
X282586Y593661D01*
X282771Y593568D01*
X282957Y593383D01*
X283003D01*
X283049Y593290D01*
X283234Y593059D01*
X283373Y592689D01*
X283466Y592504D01*
Y592272D01*
Y592226D01*
Y592179D01*
X283419Y591948D01*
X283281Y591578D01*
X283049Y591208D01*
X282957Y591115D01*
X282725Y590976D01*
X282355Y590791D01*
X282124Y590745D01*
X281846Y590699D01*
X272637D01*
X272451Y590745D01*
X272174Y590791D01*
X271896Y590884D01*
X271618Y591069D01*
X271341Y591347D01*
X271156Y591763D01*
X271109Y592272D01*
Y621937D01*
Y621983D01*
Y622029D01*
X271156Y622261D01*
X271294Y622631D01*
X271572Y623001D01*
Y623047D01*
X271665Y623094D01*
X271896Y623279D01*
X272220Y623464D01*
X272451Y623557D01*
X272775D01*
X273053Y623510D01*
D02*
G37*
G36*
X1118472Y513520D02*
X1118842Y513381D01*
X1119212Y513103D01*
X1119259Y513011D01*
X1119397Y512826D01*
X1119536Y512456D01*
X1119583Y511993D01*
Y511900D01*
X1119536Y511623D01*
X1119444Y511299D01*
X1119212Y510928D01*
X1119120Y510836D01*
X1118935Y510697D01*
X1118564Y510558D01*
X1118055Y510466D01*
X1093666D01*
X1097276Y506856D01*
X1097369Y506763D01*
X1097508Y506532D01*
X1097646Y506162D01*
X1097739Y505745D01*
Y505653D01*
X1097693Y505421D01*
X1097554Y505051D01*
X1097276Y504681D01*
X1097230D01*
X1097184Y504588D01*
X1096952Y504449D01*
X1096582Y504264D01*
X1096397Y504218D01*
X1096165Y504172D01*
X1096119D01*
X1096073D01*
X1095842Y504218D01*
X1095471Y504357D01*
X1095101Y504635D01*
X1088807Y510882D01*
X1088761Y510928D01*
X1088622Y511067D01*
X1088437Y511299D01*
X1088298Y511530D01*
X1088252Y511576D01*
X1088205Y511761D01*
X1088159Y511993D01*
X1088113Y512271D01*
Y512317D01*
X1088159Y512502D01*
X1088298Y512780D01*
X1088576Y513150D01*
X1088668Y513196D01*
X1088946Y513381D01*
X1089362Y513520D01*
X1089918Y513566D01*
X1118055D01*
X1118102D01*
X1118194D01*
X1118472Y513520D01*
D02*
G37*
G36*
X1113196Y497878D02*
X1113705Y497831D01*
X1114353Y497693D01*
X1115140Y497415D01*
X1115927Y497045D01*
X1116760Y496582D01*
X1117176Y496258D01*
X1117546Y495888D01*
X1117639Y495795D01*
X1117870Y495518D01*
X1118194Y495101D01*
X1118564Y494546D01*
X1118935Y493852D01*
X1119259Y493018D01*
X1119490Y492047D01*
X1119536Y491538D01*
X1119583Y491029D01*
Y488900D01*
X1119536Y488715D01*
X1119490Y488205D01*
X1119351Y487558D01*
X1119120Y486771D01*
X1118750Y485984D01*
X1118287Y485151D01*
X1117639Y484364D01*
X1117593D01*
X1117546Y484272D01*
X1117269Y484040D01*
X1116852Y483717D01*
X1116297Y483346D01*
X1115556Y482976D01*
X1114723Y482652D01*
X1113798Y482421D01*
X1113289Y482374D01*
X1112733Y482328D01*
X1095240D01*
X1095194D01*
X1095101D01*
X1094962D01*
X1094777Y482374D01*
X1094268Y482421D01*
X1093620Y482560D01*
X1092880Y482837D01*
X1092047Y483161D01*
X1091214Y483670D01*
X1090843Y483948D01*
X1090427Y484318D01*
X1090381Y484364D01*
X1090334Y484411D01*
X1090103Y484688D01*
X1089779Y485105D01*
X1089362Y485660D01*
X1088992Y486401D01*
X1088668Y487187D01*
X1088437Y488159D01*
X1088344Y488668D01*
Y491306D01*
X1088391Y491491D01*
X1088437Y492000D01*
X1088576Y492695D01*
X1088853Y493435D01*
X1089224Y494222D01*
X1089687Y495055D01*
X1090010Y495471D01*
X1090381Y495841D01*
Y495888D01*
X1090473Y495934D01*
X1090751Y496166D01*
X1091167Y496489D01*
X1091723Y496906D01*
X1092417Y497276D01*
X1093250Y497600D01*
X1094222Y497831D01*
X1094731Y497924D01*
X1095240D01*
X1112733D01*
X1112780D01*
X1112872D01*
X1113011D01*
X1113196Y497878D01*
D02*
G37*
G36*
Y476034D02*
X1113705Y475988D01*
X1114353Y475849D01*
X1115140Y475571D01*
X1115927Y475201D01*
X1116760Y474738D01*
X1117176Y474414D01*
X1117546Y474044D01*
X1117639Y473952D01*
X1117870Y473674D01*
X1118194Y473257D01*
X1118564Y472702D01*
X1118935Y472008D01*
X1119259Y471175D01*
X1119490Y470203D01*
X1119536Y469694D01*
X1119583Y469185D01*
Y467056D01*
X1119536Y466871D01*
X1119490Y466362D01*
X1119351Y465714D01*
X1119120Y464927D01*
X1118750Y464141D01*
X1118287Y463307D01*
X1117639Y462521D01*
X1117593D01*
X1117546Y462428D01*
X1117269Y462197D01*
X1116852Y461873D01*
X1116297Y461503D01*
X1115556Y461132D01*
X1114723Y460808D01*
X1113798Y460577D01*
X1113289Y460531D01*
X1112733Y460485D01*
X1095240D01*
X1095194D01*
X1095101D01*
X1094962D01*
X1094777Y460531D01*
X1094268Y460577D01*
X1093620Y460716D01*
X1092880Y460994D01*
X1092047Y461317D01*
X1091214Y461827D01*
X1090843Y462104D01*
X1090427Y462475D01*
X1090381Y462521D01*
X1090334Y462567D01*
X1090103Y462845D01*
X1089779Y463261D01*
X1089362Y463817D01*
X1088992Y464557D01*
X1088668Y465344D01*
X1088437Y466316D01*
X1088344Y466825D01*
Y469463D01*
X1088391Y469648D01*
X1088437Y470157D01*
X1088576Y470851D01*
X1088853Y471591D01*
X1089224Y472378D01*
X1089687Y473211D01*
X1090010Y473628D01*
X1090381Y473998D01*
Y474044D01*
X1090473Y474090D01*
X1090751Y474322D01*
X1091167Y474646D01*
X1091723Y475062D01*
X1092417Y475433D01*
X1093250Y475756D01*
X1094222Y475988D01*
X1094731Y476081D01*
X1095240D01*
X1112733D01*
X1112780D01*
X1112872D01*
X1113011D01*
X1113196Y476034D01*
D02*
G37*
G36*
X1118379Y454191D02*
X1118750Y454052D01*
X1119120Y453774D01*
X1119212Y453681D01*
X1119351Y453450D01*
X1119490Y453126D01*
X1119583Y452663D01*
Y452571D01*
X1119536Y452293D01*
X1119398Y451923D01*
X1119120Y451553D01*
X1119027Y451506D01*
X1118796Y451368D01*
X1118472Y451183D01*
X1118055Y451136D01*
X1118009D01*
X1117963D01*
X1117685Y451183D01*
X1117315Y451321D01*
X1116945Y451553D01*
X1116852Y451645D01*
X1116713Y451877D01*
X1116574Y452201D01*
X1116482Y452663D01*
Y452756D01*
X1116528Y452987D01*
X1116667Y453311D01*
X1116945Y453681D01*
Y453728D01*
X1117037Y453774D01*
X1117269Y453959D01*
X1117593Y454144D01*
X1117824Y454237D01*
X1118055D01*
X1118102D01*
X1118148D01*
X1118379Y454191D01*
D02*
G37*
G36*
X1112363Y444703D02*
X1112595D01*
X1112918Y444611D01*
X1113705Y444472D01*
X1114538Y444194D01*
X1115464Y443778D01*
X1115927Y443500D01*
X1116389Y443223D01*
X1116852Y442852D01*
X1117315Y442436D01*
X1117361Y442389D01*
X1117408Y442343D01*
X1117500Y442204D01*
X1117685Y442019D01*
X1118009Y441557D01*
X1118426Y440862D01*
X1118842Y440075D01*
X1119212Y439150D01*
X1119490Y438086D01*
X1119536Y437530D01*
X1119583Y436929D01*
Y430588D01*
X1119536Y430264D01*
X1119398Y429894D01*
X1119166Y429524D01*
X1119120D01*
X1119073Y429478D01*
X1118842Y429339D01*
X1118472Y429200D01*
X1118055Y429154D01*
X1118009D01*
X1117963D01*
X1117731Y429200D01*
X1117408Y429293D01*
X1117037Y429524D01*
X1116991D01*
X1116945Y429617D01*
X1116760Y429802D01*
X1116574Y430172D01*
X1116482Y430403D01*
Y437253D01*
X1116389Y437623D01*
X1116297Y438086D01*
X1116158Y438595D01*
X1115927Y439150D01*
X1115603Y439705D01*
X1115140Y440261D01*
X1115094Y440307D01*
X1114908Y440492D01*
X1114585Y440723D01*
X1114214Y440955D01*
X1113705Y441232D01*
X1113150Y441418D01*
X1112502Y441603D01*
X1111808Y441649D01*
X1108707D01*
X1108615D01*
X1108383D01*
X1108013Y441557D01*
X1107550Y441464D01*
X1107041Y441325D01*
X1106486Y441047D01*
X1105930Y440723D01*
X1105375Y440261D01*
X1105329Y440214D01*
X1105144Y440029D01*
X1104912Y439752D01*
X1104681Y439335D01*
X1104403Y438872D01*
X1104218Y438271D01*
X1104033Y437623D01*
X1103987Y436929D01*
Y433689D01*
X1103940Y433411D01*
X1103801Y433041D01*
X1103570Y432671D01*
X1103524D01*
X1103477Y432625D01*
X1103246Y432486D01*
X1102876Y432301D01*
X1102459Y432254D01*
X1102413D01*
X1102367D01*
X1102135Y432301D01*
X1101812Y432393D01*
X1101441Y432625D01*
X1101395D01*
X1101349Y432717D01*
X1101164Y432949D01*
X1100978Y433319D01*
X1100886Y433550D01*
Y437021D01*
X1100840Y437299D01*
X1100793Y437669D01*
X1100701Y438132D01*
X1100516Y438687D01*
X1100238Y439243D01*
X1099914Y439844D01*
X1099405Y440353D01*
X1099359Y440400D01*
X1099174Y440538D01*
X1098896Y440723D01*
X1098479Y440955D01*
X1098017Y441140D01*
X1097461Y441325D01*
X1096813Y441464D01*
X1096119Y441510D01*
X1096027D01*
X1095795D01*
X1095471Y441464D01*
X1095008Y441371D01*
X1094500Y441232D01*
X1093990Y441047D01*
X1093435Y440770D01*
X1092926Y440400D01*
X1092880Y440353D01*
X1092695Y440168D01*
X1092463Y439890D01*
X1092186Y439520D01*
X1091954Y439011D01*
X1091723Y438410D01*
X1091538Y437715D01*
X1091491Y436929D01*
Y430588D01*
X1091445Y430264D01*
X1091306Y429894D01*
X1091075Y429524D01*
X1090982Y429478D01*
X1090751Y429339D01*
X1090427Y429200D01*
X1089964Y429154D01*
X1089918D01*
X1089872D01*
X1089640Y429200D01*
X1089270Y429293D01*
X1088900Y429524D01*
X1088853D01*
X1088807Y429617D01*
X1088622Y429848D01*
X1088483Y430172D01*
X1088391Y430403D01*
Y437299D01*
X1088437Y437530D01*
X1088483Y437854D01*
X1088530Y438224D01*
X1088668Y439011D01*
X1088992Y439983D01*
X1089409Y440955D01*
X1089687Y441418D01*
X1090010Y441880D01*
X1090381Y442343D01*
X1090797Y442760D01*
X1090843Y442806D01*
X1090890Y442852D01*
X1091029Y442945D01*
X1091214Y443084D01*
X1091676Y443408D01*
X1092278Y443778D01*
X1093065Y444102D01*
X1093990Y444426D01*
X1095008Y444657D01*
X1095564Y444750D01*
X1096165D01*
X1096258D01*
X1096489D01*
X1096860Y444703D01*
X1097322Y444657D01*
X1097878Y444518D01*
X1098433Y444380D01*
X1099081Y444194D01*
X1099683Y443963D01*
X1099729Y443917D01*
X1099960Y443824D01*
X1100238Y443639D01*
X1100608Y443408D01*
X1101071Y443084D01*
X1101534Y442713D01*
X1102043Y442251D01*
X1102506Y441695D01*
X1102552Y441742D01*
X1102691Y441927D01*
X1102922Y442158D01*
X1103246Y442436D01*
X1103616Y442806D01*
X1104079Y443130D01*
X1104588Y443500D01*
X1105190Y443824D01*
X1105282Y443870D01*
X1105468Y443963D01*
X1105791Y444102D01*
X1106254Y444287D01*
X1106763Y444426D01*
X1107365Y444565D01*
X1108013Y444703D01*
X1108707Y444750D01*
X1111808D01*
X1111854D01*
X1111947D01*
X1112132D01*
X1112363Y444703D01*
D02*
G37*
G36*
X1118379Y422952D02*
X1118703Y422814D01*
X1119073Y422582D01*
X1119166Y422536D01*
X1119305Y422304D01*
X1119490Y421981D01*
X1119536Y421749D01*
X1119583Y421471D01*
Y408699D01*
X1119536Y408421D01*
X1119444Y408143D01*
X1119259Y407819D01*
X1119073Y407542D01*
X1118750Y407356D01*
X1118333Y407264D01*
X1118241D01*
X1118009Y407310D01*
X1117639Y407403D01*
X1117176Y407634D01*
X1098803Y419157D01*
X1098757Y419204D01*
X1098572Y419250D01*
X1098341Y419343D01*
X1098017Y419482D01*
X1097693Y419574D01*
X1097276Y419667D01*
X1096860Y419713D01*
X1096443Y419759D01*
X1096397D01*
X1096351D01*
X1096119D01*
X1095749Y419667D01*
X1095240Y419574D01*
X1094731Y419389D01*
X1094129Y419111D01*
X1093528Y418695D01*
X1092972Y418186D01*
X1092926Y418139D01*
X1092833Y418047D01*
X1092741Y417908D01*
X1092556Y417677D01*
X1092232Y417168D01*
X1091862Y416473D01*
Y416427D01*
X1091815Y416288D01*
X1091723Y416103D01*
X1091630Y415826D01*
X1091584Y415548D01*
X1091491Y415178D01*
X1091445Y414344D01*
Y414159D01*
X1091491Y413928D01*
X1091538Y413650D01*
X1091584Y413280D01*
X1091723Y412910D01*
X1091862Y412493D01*
X1092093Y412077D01*
X1092139Y412031D01*
X1092232Y411892D01*
X1092371Y411707D01*
X1092556Y411429D01*
X1092833Y411151D01*
X1093157Y410827D01*
X1093898Y410272D01*
X1093944Y410226D01*
X1094083Y410133D01*
X1094268Y409948D01*
X1094453Y409670D01*
X1094592Y408976D01*
Y408884D01*
X1094546Y408606D01*
X1094407Y408236D01*
X1094175Y407865D01*
X1094083Y407773D01*
X1093852Y407634D01*
X1093528Y407449D01*
X1093296Y407403D01*
X1093065Y407356D01*
X1093018D01*
X1092833Y407403D01*
X1092556Y407495D01*
X1092186Y407634D01*
X1092093Y407680D01*
X1091908Y407819D01*
X1091584Y408051D01*
X1091214Y408421D01*
X1090797Y408837D01*
X1090334Y409300D01*
X1089872Y409902D01*
X1089455Y410550D01*
X1089409Y410596D01*
X1089362Y410689D01*
X1089270Y410874D01*
X1089177Y411105D01*
X1088900Y411707D01*
X1088668Y412355D01*
Y412401D01*
X1088622Y412493D01*
X1088576Y412678D01*
X1088483Y412910D01*
X1088391Y413512D01*
X1088344Y414113D01*
Y414483D01*
X1088391Y414715D01*
X1088437Y415039D01*
X1088483Y415409D01*
X1088668Y416242D01*
X1088946Y417214D01*
X1089362Y418278D01*
X1089640Y418787D01*
X1089964Y419296D01*
X1090381Y419805D01*
X1090797Y420314D01*
X1090843Y420361D01*
X1090890Y420407D01*
X1091029Y420546D01*
X1091214Y420731D01*
X1091445Y420916D01*
X1091723Y421101D01*
X1092417Y421610D01*
X1093250Y422073D01*
X1094268Y422443D01*
X1095379Y422767D01*
X1095980Y422814D01*
X1096582Y422860D01*
X1096675D01*
X1096906D01*
X1097276Y422814D01*
X1097785Y422721D01*
X1098341Y422628D01*
X1098988Y422443D01*
X1099683Y422166D01*
X1100423Y421842D01*
X1116482Y411753D01*
Y421564D01*
X1116528Y421842D01*
X1116713Y422212D01*
X1116806Y422351D01*
X1116991Y422536D01*
X1117084Y422628D01*
X1117315Y422767D01*
X1117639Y422906D01*
X1118055Y422999D01*
X1118148D01*
X1118379Y422952D01*
D02*
G37*
G36*
X1112363Y401016D02*
X1112595D01*
X1112918Y400924D01*
X1113705Y400785D01*
X1114538Y400507D01*
X1115464Y400091D01*
X1115927Y399813D01*
X1116389Y399535D01*
X1116852Y399165D01*
X1117315Y398749D01*
X1117361Y398702D01*
X1117408Y398656D01*
X1117500Y398517D01*
X1117685Y398332D01*
X1118009Y397869D01*
X1118426Y397175D01*
X1118842Y396388D01*
X1119212Y395463D01*
X1119490Y394398D01*
X1119536Y393843D01*
X1119583Y393241D01*
Y386901D01*
X1119536Y386577D01*
X1119398Y386207D01*
X1119166Y385837D01*
X1119120D01*
X1119073Y385790D01*
X1118842Y385652D01*
X1118472Y385513D01*
X1118055Y385467D01*
X1118009D01*
X1117963D01*
X1117731Y385513D01*
X1117408Y385605D01*
X1117037Y385837D01*
X1116991D01*
X1116945Y385929D01*
X1116760Y386115D01*
X1116574Y386485D01*
X1116482Y386716D01*
Y393565D01*
X1116389Y393936D01*
X1116297Y394398D01*
X1116158Y394907D01*
X1115927Y395463D01*
X1115603Y396018D01*
X1115140Y396573D01*
X1115094Y396620D01*
X1114908Y396805D01*
X1114585Y397036D01*
X1114214Y397268D01*
X1113705Y397545D01*
X1113150Y397730D01*
X1112502Y397916D01*
X1111808Y397962D01*
X1108707D01*
X1108615D01*
X1108383D01*
X1108013Y397869D01*
X1107550Y397777D01*
X1107041Y397638D01*
X1106486Y397360D01*
X1105930Y397036D01*
X1105375Y396573D01*
X1105329Y396527D01*
X1105144Y396342D01*
X1104912Y396064D01*
X1104681Y395648D01*
X1104403Y395185D01*
X1104218Y394584D01*
X1104033Y393936D01*
X1103987Y393241D01*
Y390002D01*
X1103940Y389724D01*
X1103801Y389354D01*
X1103570Y388984D01*
X1103524D01*
X1103477Y388937D01*
X1103246Y388799D01*
X1102876Y388614D01*
X1102459Y388567D01*
X1102413D01*
X1102367D01*
X1102135Y388614D01*
X1101812Y388706D01*
X1101441Y388937D01*
X1101395D01*
X1101349Y389030D01*
X1101164Y389261D01*
X1100978Y389632D01*
X1100886Y389863D01*
Y393334D01*
X1100840Y393612D01*
X1100793Y393982D01*
X1100701Y394445D01*
X1100516Y395000D01*
X1100238Y395555D01*
X1099914Y396157D01*
X1099405Y396666D01*
X1099359Y396712D01*
X1099174Y396851D01*
X1098896Y397036D01*
X1098479Y397268D01*
X1098017Y397453D01*
X1097461Y397638D01*
X1096813Y397777D01*
X1096119Y397823D01*
X1096027D01*
X1095795D01*
X1095471Y397777D01*
X1095008Y397684D01*
X1094500Y397545D01*
X1093990Y397360D01*
X1093435Y397082D01*
X1092926Y396712D01*
X1092880Y396666D01*
X1092695Y396481D01*
X1092463Y396203D01*
X1092186Y395833D01*
X1091954Y395324D01*
X1091723Y394722D01*
X1091538Y394028D01*
X1091491Y393241D01*
Y386901D01*
X1091445Y386577D01*
X1091306Y386207D01*
X1091075Y385837D01*
X1090982Y385790D01*
X1090751Y385652D01*
X1090427Y385513D01*
X1089964Y385467D01*
X1089918D01*
X1089872D01*
X1089640Y385513D01*
X1089270Y385605D01*
X1088900Y385837D01*
X1088853D01*
X1088807Y385929D01*
X1088622Y386161D01*
X1088483Y386485D01*
X1088391Y386716D01*
Y393612D01*
X1088437Y393843D01*
X1088483Y394167D01*
X1088530Y394537D01*
X1088668Y395324D01*
X1088992Y396296D01*
X1089409Y397268D01*
X1089687Y397730D01*
X1090010Y398193D01*
X1090381Y398656D01*
X1090797Y399072D01*
X1090843Y399119D01*
X1090890Y399165D01*
X1091029Y399258D01*
X1091214Y399397D01*
X1091676Y399720D01*
X1092278Y400091D01*
X1093065Y400415D01*
X1093990Y400739D01*
X1095008Y400970D01*
X1095564Y401063D01*
X1096165D01*
X1096258D01*
X1096489D01*
X1096860Y401016D01*
X1097322Y400970D01*
X1097878Y400831D01*
X1098433Y400692D01*
X1099081Y400507D01*
X1099683Y400276D01*
X1099729Y400229D01*
X1099960Y400137D01*
X1100238Y399952D01*
X1100608Y399720D01*
X1101071Y399397D01*
X1101534Y399026D01*
X1102043Y398563D01*
X1102506Y398008D01*
X1102552Y398054D01*
X1102691Y398240D01*
X1102922Y398471D01*
X1103246Y398749D01*
X1103616Y399119D01*
X1104079Y399443D01*
X1104588Y399813D01*
X1105190Y400137D01*
X1105282Y400183D01*
X1105468Y400276D01*
X1105791Y400415D01*
X1106254Y400600D01*
X1106763Y400739D01*
X1107365Y400877D01*
X1108013Y401016D01*
X1108707Y401063D01*
X1111808D01*
X1111854D01*
X1111947D01*
X1112132D01*
X1112363Y401016D01*
D02*
G37*
G36*
X1110836Y379311D02*
X1111160Y379265D01*
X1111530Y379219D01*
X1112409Y379080D01*
X1113428Y378802D01*
X1114492Y378386D01*
X1115047Y378108D01*
X1115603Y377784D01*
X1116158Y377414D01*
X1116667Y376997D01*
X1116713Y376951D01*
X1116806Y376859D01*
X1116945Y376720D01*
X1117130Y376535D01*
X1117361Y376257D01*
X1117593Y375933D01*
X1117870Y375563D01*
X1118102Y375146D01*
X1118379Y374684D01*
X1118657Y374128D01*
X1118888Y373573D01*
X1119120Y372925D01*
X1119305Y372277D01*
X1119444Y371537D01*
X1119536Y370796D01*
X1119583Y369963D01*
Y369547D01*
X1119536Y369223D01*
X1119490Y368853D01*
X1119444Y368436D01*
X1119351Y367973D01*
X1119212Y367418D01*
X1118888Y366307D01*
X1118657Y365752D01*
X1118379Y365150D01*
X1118055Y364548D01*
X1117639Y363993D01*
X1117222Y363438D01*
X1116713Y362929D01*
X1116667Y362882D01*
X1116574Y362836D01*
X1116436Y362697D01*
X1116251Y362559D01*
X1115973Y362373D01*
X1115695Y362188D01*
X1115325Y362003D01*
X1114908Y361772D01*
X1113983Y361355D01*
X1112872Y360985D01*
X1111623Y360707D01*
X1110928Y360661D01*
X1110234Y360615D01*
X1110188D01*
X1110142D01*
X1110003D01*
X1109818D01*
X1109355Y360661D01*
X1108753Y360754D01*
X1108059Y360846D01*
X1107272Y361031D01*
X1106439Y361309D01*
X1105653Y361633D01*
X1105606D01*
X1105560Y361679D01*
X1105282Y361818D01*
X1104912Y362049D01*
X1104403Y362420D01*
X1103894Y362836D01*
X1103292Y363392D01*
X1102737Y364039D01*
X1102228Y364780D01*
X1102182Y364734D01*
X1102043Y364595D01*
X1101812Y364363D01*
X1101488Y364086D01*
X1101117Y363762D01*
X1100655Y363438D01*
X1100145Y363114D01*
X1099544Y362836D01*
X1099451Y362790D01*
X1099266Y362744D01*
X1098942Y362651D01*
X1098526Y362512D01*
X1098017Y362373D01*
X1097461Y362281D01*
X1096860Y362235D01*
X1096212Y362188D01*
X1096165D01*
X1096073D01*
X1095888D01*
X1095703Y362235D01*
X1095425D01*
X1095101Y362281D01*
X1094361Y362420D01*
X1093528Y362651D01*
X1092602Y362975D01*
X1091676Y363438D01*
X1090797Y364086D01*
X1090751Y364132D01*
X1090705Y364178D01*
X1090566Y364317D01*
X1090427Y364502D01*
X1090242Y364687D01*
X1090010Y364965D01*
X1089548Y365659D01*
X1089131Y366492D01*
X1088715Y367464D01*
X1088437Y368667D01*
X1088391Y369269D01*
X1088344Y369963D01*
Y370333D01*
X1088391Y370565D01*
X1088437Y370889D01*
X1088483Y371213D01*
X1088668Y372046D01*
X1088946Y372971D01*
X1089362Y373943D01*
X1089640Y374452D01*
X1089964Y374915D01*
X1090381Y375378D01*
X1090797Y375794D01*
X1090843Y375841D01*
X1090890Y375887D01*
X1091029Y375979D01*
X1091214Y376118D01*
X1091676Y376442D01*
X1092324Y376812D01*
X1093111Y377136D01*
X1094037Y377460D01*
X1095055Y377692D01*
X1095610Y377784D01*
X1096212D01*
X1096304D01*
X1096489D01*
X1096860Y377738D01*
X1097276Y377692D01*
X1097785Y377599D01*
X1098341Y377507D01*
X1098942Y377322D01*
X1099544Y377090D01*
X1099636Y377044D01*
X1099821Y376951D01*
X1100099Y376812D01*
X1100469Y376627D01*
X1100932Y376350D01*
X1101395Y375979D01*
X1101858Y375609D01*
X1102274Y375146D01*
Y375193D01*
X1102321Y375239D01*
X1102506Y375470D01*
X1102783Y375841D01*
X1103154Y376303D01*
X1103616Y376812D01*
X1104218Y377322D01*
X1104866Y377831D01*
X1105653Y378247D01*
X1105745Y378293D01*
X1106023Y378432D01*
X1106439Y378617D01*
X1107041Y378802D01*
X1107689Y378988D01*
X1108476Y379173D01*
X1109309Y379311D01*
X1110234Y379358D01*
X1110281D01*
X1110419D01*
X1110604D01*
X1110836Y379311D01*
D02*
G37*
G36*
X1113798Y354321D02*
X1114260Y354275D01*
X1114862Y354136D01*
X1115556Y353904D01*
X1116297Y353581D01*
X1117037Y353118D01*
X1117778Y352516D01*
X1117870Y352424D01*
X1118055Y352192D01*
X1118333Y351822D01*
X1118657Y351313D01*
X1119027Y350665D01*
X1119305Y349924D01*
X1119490Y349045D01*
X1119583Y348120D01*
Y344741D01*
X1119536Y344556D01*
X1119490Y344093D01*
X1119351Y343492D01*
X1119120Y342798D01*
X1118842Y342103D01*
X1118379Y341363D01*
X1117778Y340622D01*
X1117685Y340530D01*
X1117454Y340345D01*
X1117084Y340021D01*
X1116528Y339697D01*
X1115927Y339373D01*
X1115140Y339049D01*
X1114307Y338864D01*
X1113381Y338771D01*
X1105560D01*
X1105514D01*
X1105375D01*
X1105144D01*
X1104820Y338817D01*
X1104403D01*
X1103940Y338864D01*
X1103431Y338910D01*
X1102830Y339003D01*
X1102228Y339049D01*
X1101534Y339188D01*
X1100145Y339465D01*
X1098618Y339882D01*
X1097137Y340437D01*
X1097091D01*
X1096999Y340484D01*
X1096860Y340576D01*
X1096675Y340669D01*
X1096119Y340946D01*
X1095471Y341317D01*
X1094685Y341779D01*
X1093852Y342381D01*
X1092972Y343075D01*
X1092093Y343862D01*
X1092047Y343908D01*
X1092000Y343955D01*
X1091862Y344093D01*
X1091723Y344278D01*
X1091306Y344741D01*
X1090797Y345389D01*
X1090242Y346130D01*
X1089640Y347009D01*
X1089039Y348027D01*
X1088530Y349091D01*
X1088344Y349739D01*
Y349832D01*
X1088391Y350110D01*
X1088576Y350480D01*
X1088668Y350665D01*
X1088853Y350850D01*
X1088946Y350896D01*
X1089177Y351035D01*
X1089548Y351174D01*
X1090010Y351220D01*
X1090057D01*
X1090242D01*
X1090519Y351128D01*
X1090751Y351035D01*
X1090797Y350989D01*
X1090936Y350896D01*
X1091167Y350665D01*
X1091399Y350295D01*
Y350248D01*
X1091445Y350202D01*
X1091584Y349924D01*
X1091769Y349554D01*
X1091954Y349138D01*
X1092000Y349045D01*
X1092093Y348814D01*
X1092324Y348490D01*
X1092556Y348073D01*
X1092602Y348027D01*
X1092648Y347888D01*
X1092833Y347703D01*
X1093018Y347472D01*
X1093528Y346824D01*
X1094175Y346130D01*
X1094268Y346037D01*
X1094500Y345806D01*
X1094870Y345482D01*
X1095379Y345065D01*
X1096027Y344649D01*
X1096721Y344140D01*
X1097508Y343723D01*
X1098387Y343307D01*
X1099636Y342844D01*
X1100886Y342474D01*
Y348351D01*
X1100932Y348536D01*
X1100978Y349045D01*
X1101117Y349647D01*
X1101349Y350295D01*
X1101673Y351035D01*
X1102135Y351776D01*
X1102737Y352516D01*
X1102830Y352609D01*
X1103061Y352794D01*
X1103431Y353118D01*
X1103940Y353442D01*
X1104588Y353766D01*
X1105329Y354090D01*
X1106208Y354275D01*
X1107134Y354367D01*
X1113381D01*
X1113428D01*
X1113474D01*
X1113613D01*
X1113798Y354321D01*
D02*
G37*
G36*
X1112178Y332477D02*
X1112502Y332338D01*
X1112872Y332107D01*
X1112965Y332061D01*
X1113103Y331829D01*
X1113289Y331459D01*
X1113335Y331228D01*
X1113381Y330950D01*
Y327850D01*
X1118055D01*
X1118102D01*
X1118194D01*
X1118472Y327803D01*
X1118842Y327664D01*
X1119212Y327387D01*
X1119259Y327294D01*
X1119398Y327109D01*
X1119536Y326739D01*
X1119583Y326276D01*
Y326183D01*
X1119536Y325906D01*
X1119444Y325582D01*
X1119212Y325212D01*
X1119120Y325119D01*
X1118935Y324980D01*
X1118564Y324841D01*
X1118055Y324749D01*
X1113381D01*
Y315123D01*
X1113335Y314845D01*
X1113242Y314567D01*
X1113057Y314244D01*
X1112872Y314012D01*
X1112548Y313827D01*
X1112132Y313734D01*
X1111761D01*
X1111391Y313827D01*
X1089501Y320075D01*
X1089409Y320121D01*
X1089224Y320214D01*
X1088946Y320352D01*
X1088668Y320630D01*
X1088483Y320908D01*
X1088437Y320954D01*
X1088391Y321093D01*
X1088344Y321278D01*
Y321648D01*
X1088391Y321926D01*
X1088530Y322296D01*
X1088807Y322666D01*
X1088900Y322759D01*
X1089085Y322898D01*
X1089455Y323036D01*
X1089918Y323129D01*
X1090381Y323083D01*
X1110281Y317390D01*
Y324749D01*
X1105606D01*
X1105560D01*
X1105514D01*
X1105236Y324795D01*
X1104866Y324934D01*
X1104449Y325212D01*
X1104403Y325304D01*
X1104218Y325536D01*
X1104079Y325859D01*
X1104033Y326276D01*
Y326368D01*
X1104079Y326646D01*
X1104218Y326970D01*
X1104449Y327340D01*
Y327387D01*
X1104496Y327433D01*
X1104727Y327618D01*
X1105097Y327757D01*
X1105329Y327850D01*
X1105606D01*
X1110281D01*
Y331043D01*
X1110327Y331320D01*
X1110512Y331691D01*
X1110604Y331876D01*
X1110790Y332061D01*
X1110882Y332153D01*
X1111114Y332292D01*
X1111438Y332431D01*
X1111854Y332524D01*
X1111947D01*
X1112178Y332477D01*
D02*
G37*
G36*
X1118379Y307487D02*
X1118750Y307348D01*
X1119120Y307070D01*
X1119212Y306978D01*
X1119351Y306746D01*
X1119490Y306422D01*
X1119583Y305960D01*
Y305867D01*
X1119536Y305589D01*
X1119398Y305219D01*
X1119120Y304849D01*
X1119027Y304803D01*
X1118796Y304664D01*
X1118472Y304479D01*
X1118055Y304432D01*
X1118009D01*
X1117963D01*
X1117685Y304479D01*
X1117315Y304618D01*
X1116945Y304849D01*
X1116852Y304942D01*
X1116713Y305173D01*
X1116574Y305497D01*
X1116482Y305960D01*
Y306052D01*
X1116528Y306283D01*
X1116667Y306607D01*
X1116945Y306978D01*
Y307024D01*
X1117037Y307070D01*
X1117269Y307255D01*
X1117593Y307440D01*
X1117824Y307533D01*
X1118055D01*
X1118102D01*
X1118148D01*
X1118379Y307487D01*
D02*
G37*
G36*
X1113798Y298139D02*
X1114260Y298092D01*
X1114862Y297953D01*
X1115556Y297722D01*
X1116297Y297398D01*
X1117037Y296935D01*
X1117778Y296334D01*
X1117870Y296241D01*
X1118055Y296010D01*
X1118333Y295593D01*
X1118657Y295084D01*
X1119027Y294436D01*
X1119305Y293696D01*
X1119490Y292863D01*
X1119583Y291937D01*
Y280923D01*
X1119536Y280738D01*
X1119490Y280506D01*
X1119398Y280229D01*
X1119212Y279905D01*
X1118935Y279673D01*
X1118564Y279488D01*
X1118055Y279442D01*
X1089918D01*
X1089872D01*
X1089687Y279488D01*
X1089409Y279534D01*
X1089131Y279627D01*
X1088853Y279812D01*
X1088576Y280090D01*
X1088391Y280460D01*
X1088344Y280969D01*
Y290595D01*
X1088391Y290780D01*
X1088437Y291289D01*
X1088576Y291891D01*
X1088807Y292585D01*
X1089131Y293326D01*
X1089594Y294066D01*
X1090195Y294760D01*
X1090288Y294853D01*
X1090519Y295038D01*
X1090936Y295362D01*
X1091445Y295686D01*
X1092093Y296010D01*
X1092833Y296334D01*
X1093713Y296519D01*
X1094638Y296611D01*
X1097739D01*
X1097785D01*
X1097924D01*
X1098156D01*
X1098433Y296565D01*
X1098757Y296519D01*
X1099081Y296472D01*
X1099868Y296241D01*
X1099914D01*
X1100053Y296195D01*
X1100238Y296102D01*
X1100469Y296010D01*
X1101117Y295639D01*
X1101812Y295177D01*
X1101858Y295223D01*
X1101950Y295408D01*
X1102135Y295639D01*
X1102367Y295963D01*
X1102691Y296287D01*
X1103107Y296658D01*
X1103570Y297028D01*
X1104079Y297352D01*
X1104126Y297398D01*
X1104311Y297491D01*
X1104634Y297629D01*
X1105005Y297768D01*
X1105468Y297907D01*
X1105977Y298046D01*
X1106532Y298139D01*
X1107134Y298185D01*
X1113381D01*
X1113428D01*
X1113474D01*
X1113613D01*
X1113798Y298139D01*
D02*
G37*
G36*
X1090242Y273148D02*
X1090566Y273009D01*
X1090936Y272778D01*
X1091029Y272731D01*
X1091167Y272500D01*
X1091352Y272130D01*
X1091399Y271898D01*
X1091445Y271621D01*
Y265373D01*
X1118055D01*
X1118102D01*
X1118194D01*
X1118472Y265327D01*
X1118842Y265188D01*
X1119212Y264910D01*
X1119259Y264818D01*
X1119398Y264633D01*
X1119536Y264262D01*
X1119583Y263800D01*
Y263707D01*
X1119536Y263429D01*
X1119444Y263105D01*
X1119212Y262735D01*
X1119120Y262643D01*
X1118935Y262504D01*
X1118564Y262365D01*
X1118055Y262272D01*
X1091445D01*
Y255886D01*
X1091399Y255562D01*
X1091260Y255192D01*
X1091029Y254821D01*
X1090982D01*
X1090936Y254775D01*
X1090705Y254636D01*
X1090334Y254498D01*
X1089918Y254451D01*
X1089872D01*
X1089825D01*
X1089594Y254498D01*
X1089270Y254590D01*
X1088900Y254821D01*
X1088853D01*
X1088807Y254914D01*
X1088622Y255099D01*
X1088437Y255469D01*
X1088344Y255701D01*
Y271713D01*
X1088391Y271991D01*
X1088576Y272361D01*
X1088668Y272546D01*
X1088853Y272731D01*
X1088946Y272824D01*
X1089177Y272963D01*
X1089501Y273102D01*
X1089918Y273194D01*
X1090010D01*
X1090242Y273148D01*
D02*
G37*
G36*
X1101256Y248157D02*
X1101765Y248111D01*
X1102367Y247972D01*
X1103061Y247741D01*
X1103801Y247417D01*
X1104542Y246954D01*
X1105282Y246353D01*
X1105375Y246260D01*
X1105560Y246028D01*
X1105838Y245612D01*
X1106162Y245103D01*
X1106532Y244455D01*
X1106810Y243715D01*
X1106995Y242835D01*
X1107087Y241910D01*
Y232561D01*
X1118055D01*
X1118102D01*
X1118194D01*
X1118472Y232515D01*
X1118842Y232376D01*
X1119212Y232099D01*
X1119259Y232006D01*
X1119398Y231821D01*
X1119536Y231451D01*
X1119583Y230988D01*
Y230895D01*
X1119536Y230618D01*
X1119444Y230294D01*
X1119212Y229923D01*
X1119120Y229831D01*
X1118935Y229692D01*
X1118564Y229553D01*
X1118055Y229461D01*
X1089918D01*
X1089872D01*
X1089687Y229507D01*
X1089409Y229553D01*
X1089131Y229646D01*
X1088853Y229831D01*
X1088576Y230109D01*
X1088391Y230479D01*
X1088344Y230988D01*
Y242187D01*
X1088391Y242372D01*
X1088437Y242882D01*
X1088576Y243483D01*
X1088807Y244177D01*
X1089131Y244918D01*
X1089594Y245658D01*
X1090195Y246353D01*
X1090288Y246445D01*
X1090519Y246630D01*
X1090936Y246954D01*
X1091445Y247278D01*
X1092093Y247602D01*
X1092833Y247926D01*
X1093666Y248111D01*
X1094592Y248204D01*
X1100840D01*
X1100886D01*
X1100932D01*
X1101071D01*
X1101256Y248157D01*
D02*
G37*
G36*
X1090242Y223167D02*
X1090566Y223028D01*
X1090936Y222797D01*
X1091029Y222750D01*
X1091167Y222519D01*
X1091352Y222149D01*
X1091399Y221917D01*
X1091445Y221640D01*
Y210718D01*
X1118055D01*
X1118102D01*
X1118194D01*
X1118472Y210672D01*
X1118842Y210533D01*
X1119212Y210255D01*
X1119259Y210163D01*
X1119398Y209977D01*
X1119536Y209607D01*
X1119583Y209144D01*
Y209052D01*
X1119536Y208774D01*
X1119444Y208450D01*
X1119212Y208080D01*
X1119120Y207987D01*
X1118935Y207848D01*
X1118564Y207710D01*
X1118055Y207617D01*
X1089918D01*
X1089872D01*
X1089687Y207663D01*
X1089409Y207710D01*
X1089131Y207802D01*
X1088853Y207987D01*
X1088576Y208265D01*
X1088391Y208635D01*
X1088344Y209144D01*
Y221778D01*
X1088391Y222056D01*
X1088576Y222426D01*
X1088668Y222565D01*
X1088853Y222750D01*
X1088946Y222843D01*
X1089177Y222982D01*
X1089501Y223120D01*
X1089918Y223213D01*
X1090010D01*
X1090242Y223167D01*
D02*
G37*
%LPC*%
G36*
X111489Y604500D02*
X105149D01*
Y578028D01*
X111767D01*
X112091Y578075D01*
X112461Y578167D01*
X112924Y578306D01*
X113433Y578537D01*
X113942Y578815D01*
X114405Y579185D01*
X114451Y579232D01*
X114590Y579417D01*
X114821Y579648D01*
X115053Y579972D01*
X115238Y580389D01*
X115469Y580898D01*
X115608Y581453D01*
X115654Y582101D01*
Y600381D01*
Y600474D01*
Y600659D01*
X115608Y600983D01*
X115516Y601353D01*
X115330Y601816D01*
X115145Y602278D01*
X114821Y602788D01*
X114405Y603250D01*
X114359Y603297D01*
X114173Y603435D01*
X113942Y603667D01*
X113572Y603898D01*
X113155Y604083D01*
X112646Y604315D01*
X112091Y604454D01*
X111489Y604500D01*
D02*
G37*
G36*
X430811Y56165D02*
X424471D01*
Y43392D01*
X431089D01*
X431413Y43438D01*
X431783Y43531D01*
X432246Y43669D01*
X432755Y43901D01*
X433264Y44179D01*
X433727Y44549D01*
X433773Y44595D01*
X433912Y44780D01*
X434143Y45012D01*
X434374Y45335D01*
X434560Y45752D01*
X434791Y46261D01*
X434930Y46816D01*
X434976Y47464D01*
Y52046D01*
Y52139D01*
Y52324D01*
X434930Y52648D01*
X434837Y53018D01*
X434652Y53481D01*
X434467Y53943D01*
X434143Y54452D01*
X433727Y54915D01*
X433680Y54962D01*
X433495Y55100D01*
X433264Y55332D01*
X432893Y55563D01*
X432477Y55748D01*
X431968Y55980D01*
X431413Y56118D01*
X430811Y56165D01*
D02*
G37*
G36*
X705522D02*
X702977D01*
X702653Y56118D01*
X702236Y56026D01*
X701773Y55887D01*
X701311Y55656D01*
X700801Y55378D01*
X700339Y54962D01*
X700292Y54915D01*
X700154Y54730D01*
X699968Y54499D01*
X699783Y54128D01*
X699552Y53712D01*
X699367Y53203D01*
X699228Y52648D01*
X699182Y52046D01*
Y33766D01*
Y33673D01*
Y33488D01*
X699228Y33164D01*
X699321Y32794D01*
X699459Y32331D01*
X699691Y31868D01*
X699968Y31359D01*
X700385Y30896D01*
X700431Y30850D01*
X700616Y30711D01*
X700848Y30526D01*
X701218Y30295D01*
X701634Y30064D01*
X702143Y29878D01*
X702653Y29739D01*
X703254Y29693D01*
X705799D01*
X706124Y29739D01*
X706494Y29832D01*
X706956Y29971D01*
X707466Y30202D01*
X707975Y30480D01*
X708437Y30850D01*
X708484Y30896D01*
X708623Y31082D01*
X708854Y31313D01*
X709085Y31637D01*
X709270Y32053D01*
X709502Y32562D01*
X709641Y33118D01*
X709687Y33766D01*
Y52046D01*
Y52139D01*
Y52324D01*
X709641Y52648D01*
X709548Y53018D01*
X709363Y53481D01*
X709178Y53943D01*
X708854Y54452D01*
X708437Y54915D01*
X708391Y54962D01*
X708206Y55100D01*
X707975Y55332D01*
X707604Y55563D01*
X707188Y55748D01*
X706679Y55980D01*
X706124Y56118D01*
X705522Y56165D01*
D02*
G37*
G36*
X684928D02*
X678588D01*
Y29693D01*
X685205D01*
X685529Y29739D01*
X685900Y29832D01*
X686362Y29971D01*
X686871Y30202D01*
X687381Y30480D01*
X687843Y30850D01*
X687890Y30896D01*
X688028Y31082D01*
X688260Y31313D01*
X688491Y31637D01*
X688676Y32053D01*
X688908Y32562D01*
X689047Y33118D01*
X689093Y33766D01*
Y52046D01*
Y52139D01*
Y52324D01*
X689047Y52648D01*
X688954Y53018D01*
X688769Y53481D01*
X688584Y53943D01*
X688260Y54452D01*
X687843Y54915D01*
X687797Y54962D01*
X687612Y55100D01*
X687381Y55332D01*
X687010Y55563D01*
X686594Y55748D01*
X686085Y55980D01*
X685529Y56118D01*
X684928Y56165D01*
D02*
G37*
G36*
X603830Y657887D02*
X598832D01*
X598694Y657841D01*
X598555D01*
X598138Y657656D01*
X597907Y657517D01*
X597722Y657332D01*
X597629Y657239D01*
X597490Y656962D01*
X597305Y656591D01*
X597259Y656314D01*
X597213Y656036D01*
Y650807D01*
X605404D01*
Y656036D01*
Y656082D01*
Y656175D01*
X605358Y656314D01*
Y656499D01*
X605173Y656915D01*
X605034Y657101D01*
X604849Y657332D01*
X604802Y657378D01*
X604756Y657424D01*
X604478Y657609D01*
X604062Y657795D01*
X603830Y657887D01*
D02*
G37*
G36*
X316879Y611246D02*
X310354D01*
X310215Y611200D01*
X310076D01*
X309613Y611015D01*
X309428Y610876D01*
X309197Y610691D01*
Y610645D01*
X309104Y610598D01*
X308965Y610321D01*
X308780Y609904D01*
X308734Y609673D01*
X308688Y609395D01*
Y595697D01*
Y595650D01*
Y595558D01*
X308734Y595419D01*
Y595234D01*
X308919Y594817D01*
X309012Y594586D01*
X309197Y594401D01*
X309243D01*
X309289Y594308D01*
X309567Y594170D01*
X309937Y593984D01*
X310215Y593938D01*
X310492Y593892D01*
X316879D01*
Y611246D01*
D02*
G37*
G36*
X296979D02*
X291981D01*
X291842Y611200D01*
X291703D01*
X291287Y611015D01*
X291056Y610876D01*
X290870Y610691D01*
X290778Y610598D01*
X290639Y610321D01*
X290454Y609951D01*
X290408Y609673D01*
X290361Y609395D01*
Y604166D01*
X298553D01*
Y609395D01*
Y609441D01*
Y609534D01*
X298506Y609673D01*
Y609858D01*
X298321Y610275D01*
X298182Y610460D01*
X297997Y610691D01*
X297951Y610737D01*
X297905Y610784D01*
X297627Y610969D01*
X297211Y611154D01*
X296979Y611246D01*
D02*
G37*
G36*
X1112733Y494823D02*
X1095240D01*
X1095147D01*
X1094962D01*
X1094685Y494777D01*
X1094314Y494684D01*
X1093898Y494546D01*
X1093435Y494361D01*
X1092972Y494083D01*
X1092556Y493713D01*
X1092510Y493666D01*
X1092371Y493528D01*
X1092186Y493296D01*
X1092000Y492972D01*
X1091815Y492602D01*
X1091630Y492139D01*
X1091491Y491630D01*
X1091445Y491029D01*
Y488900D01*
X1091491Y488622D01*
X1091584Y488252D01*
X1091723Y487835D01*
X1091908Y487373D01*
X1092186Y486910D01*
X1092556Y486493D01*
X1092602Y486447D01*
X1092741Y486308D01*
X1092972Y486169D01*
X1093296Y485984D01*
X1093713Y485753D01*
X1094175Y485614D01*
X1094685Y485475D01*
X1095240Y485429D01*
X1112733D01*
X1112780D01*
X1113011D01*
X1113289Y485475D01*
X1113659Y485568D01*
X1114075Y485706D01*
X1114538Y485892D01*
X1115001Y486123D01*
X1115417Y486493D01*
X1115464Y486539D01*
X1115603Y486678D01*
X1115741Y486910D01*
X1115927Y487234D01*
X1116158Y487650D01*
X1116297Y488113D01*
X1116436Y488622D01*
X1116482Y489177D01*
Y491306D01*
X1116436Y491584D01*
X1116343Y491954D01*
X1116204Y492324D01*
X1116019Y492787D01*
X1115788Y493250D01*
X1115417Y493666D01*
X1115371Y493713D01*
X1115232Y493852D01*
X1115001Y494037D01*
X1114677Y494268D01*
X1114307Y494453D01*
X1113844Y494638D01*
X1113335Y494777D01*
X1112733Y494823D01*
D02*
G37*
G36*
Y472980D02*
X1095240D01*
X1095147D01*
X1094962D01*
X1094685Y472934D01*
X1094314Y472841D01*
X1093898Y472702D01*
X1093435Y472517D01*
X1092972Y472239D01*
X1092556Y471869D01*
X1092510Y471823D01*
X1092371Y471684D01*
X1092186Y471453D01*
X1092000Y471129D01*
X1091815Y470758D01*
X1091630Y470296D01*
X1091491Y469786D01*
X1091445Y469185D01*
Y467056D01*
X1091491Y466778D01*
X1091584Y466408D01*
X1091723Y465992D01*
X1091908Y465529D01*
X1092186Y465066D01*
X1092556Y464650D01*
X1092602Y464603D01*
X1092741Y464464D01*
X1092972Y464326D01*
X1093296Y464141D01*
X1093713Y463909D01*
X1094175Y463770D01*
X1094685Y463632D01*
X1095240Y463585D01*
X1112733D01*
X1112780D01*
X1113011D01*
X1113289Y463632D01*
X1113659Y463724D01*
X1114075Y463863D01*
X1114538Y464048D01*
X1115001Y464279D01*
X1115417Y464650D01*
X1115464Y464696D01*
X1115603Y464835D01*
X1115741Y465066D01*
X1115927Y465390D01*
X1116158Y465807D01*
X1116297Y466269D01*
X1116436Y466778D01*
X1116482Y467334D01*
Y469463D01*
X1116436Y469740D01*
X1116343Y470111D01*
X1116204Y470481D01*
X1116019Y470943D01*
X1115788Y471406D01*
X1115417Y471823D01*
X1115371Y471869D01*
X1115232Y472008D01*
X1115001Y472193D01*
X1114677Y472424D01*
X1114307Y472609D01*
X1113844Y472795D01*
X1113335Y472934D01*
X1112733Y472980D01*
D02*
G37*
G36*
X1096165Y374684D02*
X1096073D01*
X1095842D01*
X1095518Y374637D01*
X1095055Y374545D01*
X1094546Y374406D01*
X1094037Y374174D01*
X1093481Y373897D01*
X1092972Y373480D01*
X1092926Y373434D01*
X1092741Y373249D01*
X1092510Y372971D01*
X1092186Y372555D01*
X1091908Y372092D01*
X1091676Y371490D01*
X1091491Y370750D01*
X1091445Y369963D01*
Y369639D01*
X1091538Y369223D01*
X1091630Y368760D01*
X1091815Y368205D01*
X1092093Y367603D01*
X1092463Y367001D01*
X1092972Y366446D01*
X1093018Y366400D01*
X1093204Y366261D01*
X1093481Y366076D01*
X1093852Y365891D01*
X1094361Y365659D01*
X1094870Y365474D01*
X1095518Y365335D01*
X1096165Y365289D01*
X1096258D01*
X1096489D01*
X1096860Y365335D01*
X1097276Y365428D01*
X1097831Y365567D01*
X1098341Y365798D01*
X1098896Y366076D01*
X1099405Y366446D01*
X1099451Y366492D01*
X1099636Y366677D01*
X1099868Y366955D01*
X1100145Y367372D01*
X1100423Y367834D01*
X1100655Y368436D01*
X1100840Y369176D01*
X1100886Y369963D01*
Y370056D01*
X1100840Y370333D01*
X1100793Y370704D01*
X1100701Y371213D01*
X1100516Y371768D01*
X1100238Y372370D01*
X1099914Y372925D01*
X1099405Y373480D01*
X1099359Y373527D01*
X1099174Y373666D01*
X1098896Y373851D01*
X1098479Y374082D01*
X1098017Y374313D01*
X1097461Y374498D01*
X1096860Y374637D01*
X1096165Y374684D01*
D02*
G37*
G36*
X1110234Y376257D02*
X1110188D01*
X1110142D01*
X1110003D01*
X1109818D01*
X1109355Y376165D01*
X1108800Y376072D01*
X1108105Y375887D01*
X1107411Y375609D01*
X1106671Y375193D01*
X1105977Y374684D01*
X1105930D01*
X1105884Y374591D01*
X1105653Y374360D01*
X1105329Y373989D01*
X1104958Y373434D01*
X1104634Y372740D01*
X1104311Y371953D01*
X1104079Y371028D01*
X1103987Y370518D01*
Y369686D01*
X1104033Y369454D01*
X1104079Y368945D01*
X1104218Y368251D01*
X1104449Y367510D01*
X1104820Y366724D01*
X1105282Y365937D01*
X1105930Y365243D01*
X1106023Y365196D01*
X1106254Y365011D01*
X1106625Y364780D01*
X1107134Y364502D01*
X1107782Y364178D01*
X1108522Y363947D01*
X1109309Y363762D01*
X1110234Y363716D01*
X1110281D01*
X1110327D01*
X1110466D01*
X1110651Y363762D01*
X1111114Y363808D01*
X1111715Y363901D01*
X1112409Y364086D01*
X1113103Y364363D01*
X1113844Y364734D01*
X1114538Y365243D01*
X1114631Y365335D01*
X1114862Y365567D01*
X1115140Y365983D01*
X1115510Y366492D01*
X1115880Y367186D01*
X1116158Y368019D01*
X1116389Y368945D01*
X1116482Y369963D01*
Y370241D01*
X1116436Y370472D01*
X1116389Y370981D01*
X1116251Y371675D01*
X1116019Y372416D01*
X1115695Y373203D01*
X1115232Y373989D01*
X1114585Y374684D01*
X1114492Y374730D01*
X1114260Y374915D01*
X1113890Y375193D01*
X1113381Y375470D01*
X1112733Y375748D01*
X1111993Y376026D01*
X1111160Y376211D01*
X1110234Y376257D01*
D02*
G37*
G36*
X1113381Y351267D02*
X1107134D01*
X1107087D01*
X1106902D01*
X1106671Y351220D01*
X1106347Y351174D01*
X1106023Y351035D01*
X1105653Y350896D01*
X1105282Y350665D01*
X1104912Y350341D01*
X1104866Y350295D01*
X1104773Y350202D01*
X1104634Y349971D01*
X1104449Y349739D01*
X1104264Y349415D01*
X1104126Y349045D01*
X1104033Y348582D01*
X1103987Y348120D01*
Y341918D01*
X1105560Y341872D01*
X1113381D01*
X1113428D01*
X1113613D01*
X1113844Y341918D01*
X1114122Y341964D01*
X1114492Y342103D01*
X1114862Y342242D01*
X1115232Y342474D01*
X1115603Y342751D01*
X1115649Y342844D01*
X1115834Y343075D01*
X1116065Y343399D01*
X1116297Y343769D01*
Y343816D01*
X1116343Y343862D01*
X1116389Y344186D01*
X1116436Y344556D01*
X1116482Y344973D01*
Y348351D01*
X1116436Y348582D01*
X1116389Y348906D01*
X1116297Y349230D01*
X1116112Y349600D01*
X1115927Y349971D01*
X1115649Y350341D01*
X1115603Y350387D01*
X1115510Y350480D01*
X1115279Y350619D01*
X1115047Y350804D01*
X1114723Y350989D01*
X1114307Y351128D01*
X1113890Y351220D01*
X1113381Y351267D01*
D02*
G37*
G36*
Y295084D02*
X1107134D01*
X1107087D01*
X1106902D01*
X1106671Y295038D01*
X1106347Y294991D01*
X1106023Y294853D01*
X1105653Y294714D01*
X1105282Y294482D01*
X1104912Y294158D01*
X1104866Y294112D01*
X1104773Y294020D01*
X1104634Y293788D01*
X1104449Y293557D01*
X1104264Y293233D01*
X1104126Y292863D01*
X1104033Y292400D01*
X1103987Y291937D01*
Y282542D01*
X1116482D01*
Y292169D01*
X1116436Y292400D01*
X1116389Y292724D01*
X1116297Y293048D01*
X1116112Y293418D01*
X1115927Y293788D01*
X1115649Y294158D01*
X1115603Y294205D01*
X1115510Y294297D01*
X1115279Y294436D01*
X1115047Y294621D01*
X1114723Y294806D01*
X1114307Y294945D01*
X1113890Y295038D01*
X1113381Y295084D01*
D02*
G37*
G36*
X1097739Y293511D02*
X1094592D01*
X1094546D01*
X1094361D01*
X1094129Y293464D01*
X1093805Y293418D01*
X1093481Y293279D01*
X1093111Y293140D01*
X1092741Y292909D01*
X1092371Y292585D01*
X1092324Y292539D01*
X1092232Y292446D01*
X1092093Y292215D01*
X1091908Y291983D01*
X1091723Y291659D01*
X1091584Y291289D01*
X1091491Y290826D01*
X1091445Y290364D01*
Y282542D01*
X1100886D01*
Y290595D01*
X1100840Y290826D01*
X1100793Y291150D01*
X1100655Y291474D01*
X1100516Y291845D01*
X1100284Y292215D01*
X1100007Y292585D01*
X1099960Y292631D01*
X1099868Y292724D01*
X1099636Y292863D01*
X1099405Y293048D01*
X1099081Y293233D01*
X1098665Y293372D01*
X1098248Y293464D01*
X1097739Y293511D01*
D02*
G37*
G36*
X1100886Y245103D02*
X1094592D01*
X1094546D01*
X1094361D01*
X1094129Y245057D01*
X1093805Y245010D01*
X1093481Y244872D01*
X1093111Y244733D01*
X1092741Y244501D01*
X1092371Y244177D01*
X1092324Y244131D01*
X1092232Y244039D01*
X1092093Y243807D01*
X1091908Y243576D01*
X1091723Y243252D01*
X1091584Y242882D01*
X1091491Y242419D01*
X1091445Y241956D01*
Y232561D01*
X1103987D01*
Y242187D01*
X1103940Y242419D01*
X1103894Y242743D01*
X1103801Y243067D01*
X1103616Y243437D01*
X1103431Y243807D01*
X1103154Y244177D01*
X1103107Y244224D01*
X1103015Y244316D01*
X1102783Y244455D01*
X1102552Y244640D01*
X1102228Y244825D01*
X1101812Y244964D01*
X1101395Y245057D01*
X1100886Y245103D01*
D02*
G37*
%LPD*%
D10*
X936014Y463413D02*
Y543413D01*
Y463413D02*
X1016014D01*
Y543413D01*
X936014D02*
X1016014D01*
X941094Y428197D02*
X1021094D01*
Y348197D02*
Y428197D01*
X941094Y348197D02*
X1021094D01*
X941094D02*
Y428197D01*
X859352Y139169D02*
X862018D01*
X860685D01*
Y147167D01*
X859352Y145834D01*
X882011D02*
X883344Y147167D01*
X886010D01*
X887343Y145834D01*
Y144501D01*
X886010Y143168D01*
X884677D01*
X886010D01*
X887343Y141835D01*
Y140502D01*
X886010Y139169D01*
X883344D01*
X882011Y140502D01*
X911335Y147167D02*
X906003D01*
Y143168D01*
X908669Y144501D01*
X910002D01*
X911335Y143168D01*
Y140502D01*
X910002Y139169D01*
X907336D01*
X906003Y140502D01*
X929996Y147167D02*
X935327D01*
Y145834D01*
X929996Y140502D01*
Y139169D01*
X953988Y140502D02*
X955321Y139169D01*
X957987D01*
X959320Y140502D01*
Y145834D01*
X957987Y147167D01*
X955321D01*
X953988Y145834D01*
Y144501D01*
X955321Y143168D01*
X959320D01*
X860084Y76865D02*
X854753D01*
X860084Y82197D01*
Y83530D01*
X858751Y84862D01*
X856086D01*
X854753Y83530D01*
X882744Y76865D02*
Y84862D01*
X878745Y80864D01*
X884076D01*
X908069Y84862D02*
X905403Y83530D01*
X902737Y80864D01*
Y78198D01*
X904070Y76865D01*
X906736D01*
X908069Y78198D01*
Y79531D01*
X906736Y80864D01*
X902737D01*
X926729Y83530D02*
X928062Y84862D01*
X930728D01*
X932061Y83530D01*
Y82197D01*
X930728Y80864D01*
X932061Y79531D01*
Y78198D01*
X930728Y76865D01*
X928062D01*
X926729Y78198D01*
Y79531D01*
X928062Y80864D01*
X926729Y82197D01*
Y83530D01*
X928062Y80864D02*
X930728D01*
X951638Y76696D02*
X954304D01*
X952971D01*
Y84694D01*
X951638Y83361D01*
X958302D02*
X959635Y84694D01*
X962301D01*
X963634Y83361D01*
Y78029D01*
X962301Y76696D01*
X959635D01*
X958302Y78029D01*
Y83361D01*
X982295Y76696D02*
X984960D01*
X983628D01*
Y84694D01*
X982295Y83361D01*
X994291Y76696D02*
X988959D01*
X994291Y82028D01*
Y83361D01*
X992958Y84694D01*
X990292D01*
X988959Y83361D01*
X1004954Y76696D02*
X1007620D01*
X1006287D01*
Y84694D01*
X1004954Y83361D01*
X1015617Y76696D02*
Y84694D01*
X1011619Y80695D01*
X1016950D01*
X1027613Y76696D02*
X1030279D01*
X1028946D01*
Y84694D01*
X1027613Y83361D01*
X1039610Y84694D02*
X1036944Y83361D01*
X1034278Y80695D01*
Y78029D01*
X1035611Y76696D01*
X1038277D01*
X1039610Y78029D01*
Y79362D01*
X1038277Y80695D01*
X1034278D01*
X1050273Y76696D02*
X1052939D01*
X1051606D01*
Y84694D01*
X1050273Y83361D01*
X1056937D02*
X1058270Y84694D01*
X1060936D01*
X1062269Y83361D01*
Y82028D01*
X1060936Y80695D01*
X1062269Y79362D01*
Y78029D01*
X1060936Y76696D01*
X1058270D01*
X1056937Y78029D01*
Y79362D01*
X1058270Y80695D01*
X1056937Y82028D01*
Y83361D01*
X1058270Y80695D02*
X1060936D01*
X1086261Y76696D02*
X1080929D01*
X1086261Y82028D01*
Y83361D01*
X1084928Y84694D01*
X1082262D01*
X1080929Y83361D01*
X1088927D02*
X1090260Y84694D01*
X1092926D01*
X1094259Y83361D01*
Y78029D01*
X1092926Y76696D01*
X1090260D01*
X1088927Y78029D01*
Y83361D01*
X974380Y140031D02*
X977046D01*
X975713D01*
Y148029D01*
X974380Y146696D01*
X981045Y140031D02*
X983710D01*
X982378D01*
Y148029D01*
X981045Y146696D01*
X1003704Y140031D02*
X1006370D01*
X1005037D01*
Y148029D01*
X1003704Y146696D01*
X1010368D02*
X1011702Y148029D01*
X1014367D01*
X1015700Y146696D01*
Y145363D01*
X1014367Y144030D01*
X1013034D01*
X1014367D01*
X1015700Y142697D01*
Y141364D01*
X1014367Y140031D01*
X1011702D01*
X1010368Y141364D01*
X1034361Y140031D02*
X1037027D01*
X1035694D01*
Y148029D01*
X1034361Y146696D01*
X1046357Y148029D02*
X1041025D01*
Y144030D01*
X1043691Y145363D01*
X1045024D01*
X1046357Y144030D01*
Y141364D01*
X1045024Y140031D01*
X1042358D01*
X1041025Y141364D01*
X1065018Y140031D02*
X1067683D01*
X1066350D01*
Y148029D01*
X1065018Y146696D01*
X1071682Y148029D02*
X1077014D01*
Y146696D01*
X1071682Y141364D01*
Y140031D01*
X1087677D02*
X1090343D01*
X1089010D01*
Y148029D01*
X1087677Y146696D01*
X1094342Y141364D02*
X1095674Y140031D01*
X1098340D01*
X1099673Y141364D01*
Y146696D01*
X1098340Y148029D01*
X1095674D01*
X1094342Y146696D01*
Y145363D01*
X1095674Y144030D01*
X1099673D01*
X579715Y138263D02*
X582381D01*
X581048D01*
Y146260D01*
X579715Y144928D01*
X602374D02*
X603707Y146260D01*
X606373D01*
X607706Y144928D01*
Y143595D01*
X606373Y142262D01*
X605040D01*
X606373D01*
X607706Y140929D01*
Y139596D01*
X606373Y138263D01*
X603707D01*
X602374Y139596D01*
X631698Y146260D02*
X626366D01*
Y142262D01*
X629032Y143595D01*
X630365D01*
X631698Y142262D01*
Y139596D01*
X630365Y138263D01*
X627699D01*
X626366Y139596D01*
X650359Y146260D02*
X655690D01*
Y144928D01*
X650359Y139596D01*
Y138263D01*
X674351Y139596D02*
X675684Y138263D01*
X678350D01*
X679682Y139596D01*
Y144928D01*
X678350Y146260D01*
X675684D01*
X674351Y144928D01*
Y143595D01*
X675684Y142262D01*
X679682D01*
X580447Y75959D02*
X575116D01*
X580447Y81290D01*
Y82623D01*
X579114Y83956D01*
X576449D01*
X575116Y82623D01*
X603106Y75959D02*
Y83956D01*
X599108Y79957D01*
X604439D01*
X628432Y83956D02*
X625766Y82623D01*
X623100Y79957D01*
Y77292D01*
X624433Y75959D01*
X627099D01*
X628432Y77292D01*
Y78625D01*
X627099Y79957D01*
X623100D01*
X647092Y82623D02*
X648425Y83956D01*
X651091D01*
X652424Y82623D01*
Y81290D01*
X651091Y79957D01*
X652424Y78625D01*
Y77292D01*
X651091Y75959D01*
X648425D01*
X647092Y77292D01*
Y78625D01*
X648425Y79957D01*
X647092Y81290D01*
Y82623D01*
X648425Y79957D02*
X651091D01*
X672001Y75790D02*
X674667D01*
X673334D01*
Y83787D01*
X672001Y82455D01*
X678665D02*
X679998Y83787D01*
X682664D01*
X683997Y82455D01*
Y77123D01*
X682664Y75790D01*
X679998D01*
X678665Y77123D01*
Y82455D01*
X702658Y75790D02*
X705323D01*
X703990D01*
Y83787D01*
X702658Y82455D01*
X714654Y75790D02*
X709322D01*
X714654Y81122D01*
Y82455D01*
X713321Y83787D01*
X710655D01*
X709322Y82455D01*
X725317Y75790D02*
X727983D01*
X726650D01*
Y83787D01*
X725317Y82455D01*
X735980Y75790D02*
Y83787D01*
X731982Y79789D01*
X737313D01*
X747976Y75790D02*
X750642D01*
X749309D01*
Y83787D01*
X747976Y82455D01*
X759973Y83787D02*
X757307Y82455D01*
X754641Y79789D01*
Y77123D01*
X755974Y75790D01*
X758640D01*
X759973Y77123D01*
Y78456D01*
X758640Y79789D01*
X754641D01*
X770636Y75790D02*
X773301D01*
X771969D01*
Y83787D01*
X770636Y82455D01*
X777300D02*
X778633Y83787D01*
X781299D01*
X782632Y82455D01*
Y81122D01*
X781299Y79789D01*
X782632Y78456D01*
Y77123D01*
X781299Y75790D01*
X778633D01*
X777300Y77123D01*
Y78456D01*
X778633Y79789D01*
X777300Y81122D01*
Y82455D01*
X778633Y79789D02*
X781299D01*
X806624Y75790D02*
X801292D01*
X806624Y81122D01*
Y82455D01*
X805291Y83787D01*
X802625D01*
X801292Y82455D01*
X809290D02*
X810623Y83787D01*
X813289D01*
X814622Y82455D01*
Y77123D01*
X813289Y75790D01*
X810623D01*
X809290Y77123D01*
Y82455D01*
X694743Y139125D02*
X697409D01*
X696076D01*
Y147122D01*
X694743Y145790D01*
X701408Y139125D02*
X704073D01*
X702740D01*
Y147122D01*
X701408Y145790D01*
X724067Y139125D02*
X726733D01*
X725400D01*
Y147122D01*
X724067Y145790D01*
X730732D02*
X732064Y147122D01*
X734730D01*
X736063Y145790D01*
Y144457D01*
X734730Y143124D01*
X733397D01*
X734730D01*
X736063Y141791D01*
Y140458D01*
X734730Y139125D01*
X732064D01*
X730732Y140458D01*
X754724Y139125D02*
X757390D01*
X756057D01*
Y147122D01*
X754724Y145790D01*
X766720Y147122D02*
X761388D01*
Y143124D01*
X764054Y144457D01*
X765387D01*
X766720Y143124D01*
Y140458D01*
X765387Y139125D01*
X762721D01*
X761388Y140458D01*
X785380Y139125D02*
X788046D01*
X786713D01*
Y147122D01*
X785380Y145790D01*
X792045Y147122D02*
X797377D01*
Y145790D01*
X792045Y140458D01*
Y139125D01*
X808040D02*
X810706D01*
X809373D01*
Y147122D01*
X808040Y145790D01*
X814704Y140458D02*
X816037Y139125D01*
X818703D01*
X820036Y140458D01*
Y145790D01*
X818703Y147122D01*
X816037D01*
X814704Y145790D01*
Y144457D01*
X816037Y143124D01*
X820036D01*
X307969Y137554D02*
X310635D01*
X309302D01*
Y145552D01*
X307969Y144219D01*
X330628D02*
X331961Y145552D01*
X334627D01*
X335960Y144219D01*
Y142886D01*
X334627Y141553D01*
X333294D01*
X334627D01*
X335960Y140220D01*
Y138887D01*
X334627Y137554D01*
X331961D01*
X330628Y138887D01*
X359952Y145552D02*
X354620D01*
Y141553D01*
X357286Y142886D01*
X358619D01*
X359952Y141553D01*
Y138887D01*
X358619Y137554D01*
X355953D01*
X354620Y138887D01*
X378613Y145552D02*
X383944D01*
Y144219D01*
X378613Y138887D01*
Y137554D01*
X402605Y138887D02*
X403938Y137554D01*
X406604D01*
X407937Y138887D01*
Y144219D01*
X406604Y145552D01*
X403938D01*
X402605Y144219D01*
Y142886D01*
X403938Y141553D01*
X407937D01*
X308701Y75250D02*
X303370D01*
X308701Y80582D01*
Y81915D01*
X307368Y83247D01*
X304702D01*
X303370Y81915D01*
X331361Y75250D02*
Y83247D01*
X327362Y79249D01*
X332693D01*
X356686Y83247D02*
X354020Y81915D01*
X351354Y79249D01*
Y76583D01*
X352687Y75250D01*
X355353D01*
X356686Y76583D01*
Y77916D01*
X355353Y79249D01*
X351354D01*
X375346Y81915D02*
X376679Y83247D01*
X379345D01*
X380678Y81915D01*
Y80582D01*
X379345Y79249D01*
X380678Y77916D01*
Y76583D01*
X379345Y75250D01*
X376679D01*
X375346Y76583D01*
Y77916D01*
X376679Y79249D01*
X375346Y80582D01*
Y81915D01*
X376679Y79249D02*
X379345D01*
X400255Y75081D02*
X402921D01*
X401588D01*
Y83079D01*
X400255Y81746D01*
X406919D02*
X408252Y83079D01*
X410918D01*
X412251Y81746D01*
Y76414D01*
X410918Y75081D01*
X408252D01*
X406919Y76414D01*
Y81746D01*
X430912Y75081D02*
X433577D01*
X432245D01*
Y83079D01*
X430912Y81746D01*
X442908Y75081D02*
X437576D01*
X442908Y80413D01*
Y81746D01*
X441575Y83079D01*
X438909D01*
X437576Y81746D01*
X453571Y75081D02*
X456237D01*
X454904D01*
Y83079D01*
X453571Y81746D01*
X464234Y75081D02*
Y83079D01*
X460236Y79080D01*
X465567D01*
X476230Y75081D02*
X478896D01*
X477563D01*
Y83079D01*
X476230Y81746D01*
X488227Y83079D02*
X485561Y81746D01*
X482895Y79080D01*
Y76414D01*
X484228Y75081D01*
X486894D01*
X488227Y76414D01*
Y77747D01*
X486894Y79080D01*
X482895D01*
X498890Y75081D02*
X501556D01*
X500223D01*
Y83079D01*
X498890Y81746D01*
X505554D02*
X506887Y83079D01*
X509553D01*
X510886Y81746D01*
Y80413D01*
X509553Y79080D01*
X510886Y77747D01*
Y76414D01*
X509553Y75081D01*
X506887D01*
X505554Y76414D01*
Y77747D01*
X506887Y79080D01*
X505554Y80413D01*
Y81746D01*
X506887Y79080D02*
X509553D01*
X534878Y75081D02*
X529547D01*
X534878Y80413D01*
Y81746D01*
X533545Y83079D01*
X530880D01*
X529547Y81746D01*
X537544D02*
X538877Y83079D01*
X541543D01*
X542876Y81746D01*
Y76414D01*
X541543Y75081D01*
X538877D01*
X537544Y76414D01*
Y81746D01*
X422997Y138417D02*
X425663D01*
X424330D01*
Y146414D01*
X422997Y145081D01*
X429662Y138417D02*
X432327D01*
X430995D01*
Y146414D01*
X429662Y145081D01*
X452321Y138417D02*
X454987D01*
X453654D01*
Y146414D01*
X452321Y145081D01*
X458985D02*
X460318Y146414D01*
X462984D01*
X464317Y145081D01*
Y143748D01*
X462984Y142415D01*
X461651D01*
X462984D01*
X464317Y141082D01*
Y139749D01*
X462984Y138417D01*
X460318D01*
X458985Y139749D01*
X482978Y138417D02*
X485644D01*
X484311D01*
Y146414D01*
X482978Y145081D01*
X494974Y146414D02*
X489642D01*
Y142415D01*
X492308Y143748D01*
X493641D01*
X494974Y142415D01*
Y139749D01*
X493641Y138417D01*
X490975D01*
X489642Y139749D01*
X513635Y138417D02*
X516300D01*
X514967D01*
Y146414D01*
X513635Y145081D01*
X520299Y146414D02*
X525631D01*
Y145081D01*
X520299Y139749D01*
Y138417D01*
X536294D02*
X538960D01*
X537627D01*
Y146414D01*
X536294Y145081D01*
X542958Y139749D02*
X544291Y138417D01*
X546957D01*
X548290Y139749D01*
Y145081D01*
X546957Y146414D01*
X544291D01*
X542958Y145081D01*
Y143748D01*
X544291Y142415D01*
X548290D01*
X148201Y138862D02*
X150867D01*
X149534D01*
Y146860D01*
X148201Y145527D01*
X154866Y138862D02*
X157531D01*
X156199D01*
Y146860D01*
X154866Y145527D01*
X177525Y138862D02*
X180191D01*
X178858D01*
Y146860D01*
X177525Y145527D01*
X184190D02*
X185522Y146860D01*
X188188D01*
X189521Y145527D01*
Y144194D01*
X188188Y142861D01*
X186855D01*
X188188D01*
X189521Y141528D01*
Y140195D01*
X188188Y138862D01*
X185522D01*
X184190Y140195D01*
X208182Y138862D02*
X210848D01*
X209515D01*
Y146860D01*
X208182Y145527D01*
X220178Y146860D02*
X214846D01*
Y142861D01*
X217512Y144194D01*
X218845D01*
X220178Y142861D01*
Y140195D01*
X218845Y138862D01*
X216179D01*
X214846Y140195D01*
X238839Y138862D02*
X241504D01*
X240172D01*
Y146860D01*
X238839Y145527D01*
X245503Y146860D02*
X250835D01*
Y145527D01*
X245503Y140195D01*
Y138862D01*
X261498D02*
X264164D01*
X262831D01*
Y146860D01*
X261498Y145527D01*
X268162Y140195D02*
X269495Y138862D01*
X272161D01*
X273494Y140195D01*
Y145527D01*
X272161Y146860D01*
X269495D01*
X268162Y145527D01*
Y144194D01*
X269495Y142861D01*
X273494D01*
X125459Y75527D02*
X128125D01*
X126792D01*
Y83524D01*
X125459Y82192D01*
X132123D02*
X133456Y83524D01*
X136122D01*
X137455Y82192D01*
Y76860D01*
X136122Y75527D01*
X133456D01*
X132123Y76860D01*
Y82192D01*
X156116Y75527D02*
X158781D01*
X157449D01*
Y83524D01*
X156116Y82192D01*
X168112Y75527D02*
X162780D01*
X168112Y80859D01*
Y82192D01*
X166779Y83524D01*
X164113D01*
X162780Y82192D01*
X178775Y75527D02*
X181441D01*
X180108D01*
Y83524D01*
X178775Y82192D01*
X189438Y75527D02*
Y83524D01*
X185440Y79526D01*
X190771D01*
X201434Y75527D02*
X204100D01*
X202767D01*
Y83524D01*
X201434Y82192D01*
X213431Y83524D02*
X210765Y82192D01*
X208099Y79526D01*
Y76860D01*
X209432Y75527D01*
X212098D01*
X213431Y76860D01*
Y78193D01*
X212098Y79526D01*
X208099D01*
X224094Y75527D02*
X226760D01*
X225427D01*
Y83524D01*
X224094Y82192D01*
X230758D02*
X232091Y83524D01*
X234757D01*
X236090Y82192D01*
Y80859D01*
X234757Y79526D01*
X236090Y78193D01*
Y76860D01*
X234757Y75527D01*
X232091D01*
X230758Y76860D01*
Y78193D01*
X232091Y79526D01*
X230758Y80859D01*
Y82192D01*
X232091Y79526D02*
X234757D01*
X260082Y75527D02*
X254751D01*
X260082Y80859D01*
Y82192D01*
X258749Y83524D01*
X256084D01*
X254751Y82192D01*
X262748D02*
X264081Y83524D01*
X266747D01*
X268080Y82192D01*
Y76860D01*
X266747Y75527D01*
X264081D01*
X262748Y76860D01*
Y82192D01*
X33905Y75696D02*
X28574D01*
X33905Y81027D01*
Y82360D01*
X32572Y83693D01*
X29906D01*
X28574Y82360D01*
X56565Y75696D02*
Y83693D01*
X52566Y79695D01*
X57898D01*
X81890Y83693D02*
X79224Y82360D01*
X76558Y79695D01*
Y77029D01*
X77891Y75696D01*
X80557D01*
X81890Y77029D01*
Y78362D01*
X80557Y79695D01*
X76558D01*
X100550Y82360D02*
X101883Y83693D01*
X104549D01*
X105882Y82360D01*
Y81027D01*
X104549Y79695D01*
X105882Y78362D01*
Y77029D01*
X104549Y75696D01*
X101883D01*
X100550Y77029D01*
Y78362D01*
X101883Y79695D01*
X100550Y81027D01*
Y82360D01*
X101883Y79695D02*
X104549D01*
X33173Y138000D02*
X35839D01*
X34506D01*
Y145997D01*
X33173Y144664D01*
X55832D02*
X57165Y145997D01*
X59831D01*
X61164Y144664D01*
Y143332D01*
X59831Y141999D01*
X58498D01*
X59831D01*
X61164Y140666D01*
Y139333D01*
X59831Y138000D01*
X57165D01*
X55832Y139333D01*
X85156Y145997D02*
X79825D01*
Y141999D01*
X82490Y143332D01*
X83823D01*
X85156Y141999D01*
Y139333D01*
X83823Y138000D01*
X81157D01*
X79825Y139333D01*
X103817Y145997D02*
X109148D01*
Y144664D01*
X103817Y139333D01*
Y138000D01*
X127809Y139333D02*
X129142Y138000D01*
X131808D01*
X133141Y139333D01*
Y144664D01*
X131808Y145997D01*
X129142D01*
X127809Y144664D01*
Y143332D01*
X129142Y141999D01*
X133141D01*
M02*
