G04*
G04 #@! TF.GenerationSoftware,Altium Limited,Altium Designer,23.1.1 (15)*
G04*
G04 Layer_Color=16711935*
%FSLAX44Y44*%
%MOMM*%
G71*
G04*
G04 #@! TF.SameCoordinates,885BC21F-CE97-4633-90EB-74F7ABE7E9BF*
G04*
G04*
G04 #@! TF.FilePolarity,Negative*
G04*
G01*
G75*
%ADD11C,2.7032*%
%ADD12C,1.0922*%
%ADD13C,2.0000*%
%ADD14R,2.0000X2.0000*%
%ADD15C,5.2032*%
%ADD16R,2.0000X2.0000*%
%ADD17C,1.6032*%
%ADD18C,1.0032*%
%ADD32R,1.0532X2.0032*%
%ADD33R,0.8032X1.8032*%
%ADD34R,2.9464X1.2192*%
D11*
X950614Y529213D02*
D03*
X1001414D02*
D03*
Y478413D02*
D03*
X950614D02*
D03*
X976014Y503813D02*
D03*
X981094Y388597D02*
D03*
X955694Y363197D02*
D03*
X1006494D02*
D03*
Y413997D02*
D03*
X955694D02*
D03*
D12*
X753382Y418947D02*
D03*
Y518946D02*
D03*
X297120Y537381D02*
D03*
Y417382D02*
D03*
X98404Y419815D02*
D03*
Y519815D02*
D03*
D13*
X829883Y524836D02*
D03*
X855283D02*
D03*
X829883Y550236D02*
D03*
X855283Y499436D02*
D03*
X829883D02*
D03*
X855283Y474036D02*
D03*
X829883D02*
D03*
Y448636D02*
D03*
Y423236D02*
D03*
Y397836D02*
D03*
X855283D02*
D03*
Y423236D02*
D03*
Y448636D02*
D03*
X521122Y478356D02*
D03*
X495722D02*
D03*
X521122Y452956D02*
D03*
X495722D02*
D03*
X521122Y402156D02*
D03*
X495722Y427556D02*
D03*
X521122D02*
D03*
Y503756D02*
D03*
X495722D02*
D03*
Y529156D02*
D03*
X521122D02*
D03*
X495722Y554556D02*
D03*
X521122D02*
D03*
Y579956D02*
D03*
X495722D02*
D03*
Y605356D02*
D03*
X521122D02*
D03*
X495722Y630756D02*
D03*
X521122D02*
D03*
X210817Y425782D02*
D03*
X185417D02*
D03*
X210817Y400382D02*
D03*
X185417Y451182D02*
D03*
X210817D02*
D03*
X185417Y476582D02*
D03*
X210817D02*
D03*
Y501982D02*
D03*
Y527382D02*
D03*
Y552782D02*
D03*
X185417D02*
D03*
Y527382D02*
D03*
Y501982D02*
D03*
X109155Y97600D02*
D03*
Y123000D02*
D03*
X83755Y97600D02*
D03*
Y123000D02*
D03*
X32954Y97600D02*
D03*
X58355Y123000D02*
D03*
Y97600D02*
D03*
X134555D02*
D03*
Y123000D02*
D03*
X159955D02*
D03*
Y97600D02*
D03*
X185354Y123000D02*
D03*
Y97600D02*
D03*
X210755D02*
D03*
Y123000D02*
D03*
X236154D02*
D03*
Y97600D02*
D03*
X261555Y123000D02*
D03*
Y97600D02*
D03*
X1087022D02*
D03*
Y123000D02*
D03*
X1061622Y97600D02*
D03*
Y123000D02*
D03*
X1036222D02*
D03*
Y97600D02*
D03*
X1010822D02*
D03*
Y123000D02*
D03*
X985422Y97600D02*
D03*
Y123000D02*
D03*
X960022D02*
D03*
Y97600D02*
D03*
X883822D02*
D03*
Y123000D02*
D03*
X858422Y97600D02*
D03*
X909222Y123000D02*
D03*
Y97600D02*
D03*
X934622Y123000D02*
D03*
Y97600D02*
D03*
X657775D02*
D03*
Y123000D02*
D03*
X632375Y97600D02*
D03*
Y123000D02*
D03*
X581575Y97600D02*
D03*
X606975Y123000D02*
D03*
Y97600D02*
D03*
X683175D02*
D03*
Y123000D02*
D03*
X708575D02*
D03*
Y97600D02*
D03*
X733975Y123000D02*
D03*
Y97600D02*
D03*
X759375D02*
D03*
Y123000D02*
D03*
X784775D02*
D03*
Y97600D02*
D03*
X810175Y123000D02*
D03*
Y97600D02*
D03*
X538250D02*
D03*
Y123000D02*
D03*
X512850Y97600D02*
D03*
Y123000D02*
D03*
X487450D02*
D03*
Y97600D02*
D03*
X462050D02*
D03*
Y123000D02*
D03*
X436650Y97600D02*
D03*
Y123000D02*
D03*
X411250D02*
D03*
Y97600D02*
D03*
X335050D02*
D03*
Y123000D02*
D03*
X309650Y97600D02*
D03*
X360450Y123000D02*
D03*
Y97600D02*
D03*
X385850Y123000D02*
D03*
Y97600D02*
D03*
X400485Y423570D02*
D03*
X375085D02*
D03*
X400485Y398170D02*
D03*
X375085Y448970D02*
D03*
X400485D02*
D03*
X375085Y474370D02*
D03*
X400485D02*
D03*
Y499770D02*
D03*
Y525170D02*
D03*
Y550570D02*
D03*
Y575970D02*
D03*
X375085D02*
D03*
Y550570D02*
D03*
Y525170D02*
D03*
Y499770D02*
D03*
D14*
X855283Y550236D02*
D03*
X495722Y402156D02*
D03*
X185417Y400382D02*
D03*
X375085Y398170D02*
D03*
D15*
X50000Y630000D02*
D03*
X1090000D02*
D03*
Y50000D02*
D03*
X50000D02*
D03*
D16*
X32954Y123000D02*
D03*
X858422D02*
D03*
X581575D02*
D03*
X309650D02*
D03*
D17*
X619021Y592727D02*
D03*
X599021D02*
D03*
X619021Y572727D02*
D03*
X599021D02*
D03*
X619021Y552727D02*
D03*
X599021D02*
D03*
X619021Y532727D02*
D03*
X599021D02*
D03*
X619021Y512727D02*
D03*
X599021D02*
D03*
X619021Y492727D02*
D03*
X599021D02*
D03*
X619021Y472727D02*
D03*
X599021D02*
D03*
X619021Y452727D02*
D03*
X599021D02*
D03*
X619021Y432727D02*
D03*
X599021D02*
D03*
X619021Y412727D02*
D03*
X599021D02*
D03*
D18*
X249365Y527209D02*
D03*
X251908Y427800D02*
D03*
X658884Y254833D02*
D03*
X649148Y254950D02*
D03*
X709085Y293008D02*
D03*
X729193Y293269D02*
D03*
X342959Y501420D02*
D03*
X706587Y428739D02*
D03*
X52997Y429856D02*
D03*
X55749Y511452D02*
D03*
X985226Y293787D02*
D03*
X925306Y293941D02*
D03*
X935155Y304771D02*
D03*
X995075Y304618D02*
D03*
X1015182Y304879D02*
D03*
X1005333Y294049D02*
D03*
X975146Y304642D02*
D03*
X965297Y293812D02*
D03*
X945214Y295921D02*
D03*
X955938Y305703D02*
D03*
X679798Y304923D02*
D03*
X669074Y295141D02*
D03*
X689156Y293032D02*
D03*
X699005Y303862D02*
D03*
X739042Y304099D02*
D03*
X718934Y303838D02*
D03*
X397146Y293829D02*
D03*
X377240Y293862D02*
D03*
X387089Y304692D02*
D03*
X406995Y304660D02*
D03*
X427080Y304563D02*
D03*
X417231Y293732D02*
D03*
X447009Y304539D02*
D03*
X437160Y293708D02*
D03*
X467116Y304800D02*
D03*
X457267Y293970D02*
D03*
X123211Y293786D02*
D03*
X183332Y293926D02*
D03*
X193181Y304757D02*
D03*
X163225Y293665D02*
D03*
X173074Y304495D02*
D03*
X143296Y293689D02*
D03*
X153145Y304519D02*
D03*
X133060Y304616D02*
D03*
X113154Y304648D02*
D03*
X103305Y293818D02*
D03*
D32*
X1030000Y241500D02*
D03*
X910000D02*
D03*
X362075D02*
D03*
X482075D02*
D03*
X754001D02*
D03*
X634001D02*
D03*
X88209D02*
D03*
X208209D02*
D03*
D33*
X1015000Y217500D02*
D03*
Y273500D02*
D03*
X1005000Y217500D02*
D03*
Y273500D02*
D03*
X995000Y217500D02*
D03*
Y273500D02*
D03*
X985000Y217500D02*
D03*
Y273500D02*
D03*
X975000Y217500D02*
D03*
Y273500D02*
D03*
X965000D02*
D03*
X955000D02*
D03*
X945000D02*
D03*
X935000D02*
D03*
X925000Y217500D02*
D03*
Y273500D02*
D03*
X945000Y217500D02*
D03*
X935000D02*
D03*
X965000D02*
D03*
X955000D02*
D03*
X407075D02*
D03*
X417075D02*
D03*
X387075D02*
D03*
X397075D02*
D03*
X377075Y273500D02*
D03*
Y217500D02*
D03*
X387075Y273500D02*
D03*
X397075D02*
D03*
X407075D02*
D03*
X417075D02*
D03*
X427075D02*
D03*
Y217500D02*
D03*
X437075Y273500D02*
D03*
Y217500D02*
D03*
X447075Y273500D02*
D03*
Y217500D02*
D03*
X457075Y273500D02*
D03*
Y217500D02*
D03*
X467076Y273500D02*
D03*
Y217500D02*
D03*
X739001D02*
D03*
Y273500D02*
D03*
X729001Y217500D02*
D03*
Y273500D02*
D03*
X719001Y217500D02*
D03*
Y273500D02*
D03*
X709001Y217500D02*
D03*
Y273500D02*
D03*
X699001Y217500D02*
D03*
Y273500D02*
D03*
X689001D02*
D03*
X679001D02*
D03*
X669001D02*
D03*
X659001D02*
D03*
X649001Y217500D02*
D03*
Y273500D02*
D03*
X669001Y217500D02*
D03*
X659001D02*
D03*
X689001D02*
D03*
X679001D02*
D03*
X133208D02*
D03*
X143208D02*
D03*
X113209D02*
D03*
X123208D02*
D03*
X103209Y273500D02*
D03*
Y217500D02*
D03*
X113209Y273500D02*
D03*
X123208D02*
D03*
X133208D02*
D03*
X143208D02*
D03*
X153208D02*
D03*
Y217500D02*
D03*
X163208Y273500D02*
D03*
Y217500D02*
D03*
X173208Y273500D02*
D03*
Y217500D02*
D03*
X183208Y273500D02*
D03*
Y217500D02*
D03*
X193209Y273500D02*
D03*
Y217500D02*
D03*
D34*
X774632Y428946D02*
D03*
Y408947D02*
D03*
Y448946D02*
D03*
Y468946D02*
D03*
Y488946D02*
D03*
Y508946D02*
D03*
Y528946D02*
D03*
X732133D02*
D03*
Y488946D02*
D03*
Y448946D02*
D03*
Y508946D02*
D03*
Y468946D02*
D03*
Y428946D02*
D03*
Y408947D02*
D03*
X275870Y507381D02*
D03*
Y527381D02*
D03*
Y487381D02*
D03*
Y467381D02*
D03*
Y447382D02*
D03*
Y427382D02*
D03*
Y407382D02*
D03*
X318369D02*
D03*
Y447382D02*
D03*
Y487381D02*
D03*
Y427382D02*
D03*
Y467381D02*
D03*
Y507381D02*
D03*
Y527381D02*
D03*
Y547381D02*
D03*
X275870D02*
D03*
X119654Y529815D02*
D03*
Y509815D02*
D03*
Y469815D02*
D03*
Y429815D02*
D03*
Y489815D02*
D03*
Y449815D02*
D03*
Y409815D02*
D03*
X77155D02*
D03*
Y429815D02*
D03*
Y449815D02*
D03*
Y469815D02*
D03*
Y489815D02*
D03*
Y529815D02*
D03*
Y509815D02*
D03*
M02*
