M48
;Layer_Color=9474304
;FILE_FORMAT=4:4
METRIC,LZ
;TYPE=PLATED
T1F00S00C0.4000
T2F00S00C0.7000
T3F00S00C1.0000
T4F00S00C1.5000
T5F00S00C3.0000
%
T01
X00103305Y00293818
X00123211Y00293786
X00143296Y00293689
X00163225Y00293665
X00173074Y00304495
X00153145Y00304519
X0013306Y00304616
X00113154Y00304648
X00052997Y00429856
X00251908Y004278
X00193181Y00304757
X00183332Y00293926
X0037724Y00293862
X00397146Y00293829
X00417231Y00293732
X0043716Y00293708
X00457267Y0029397
X00467116Y003048
X00447009Y00304539
X0042708Y00304563
X00406995Y0030466
X00387089Y00304692
X00669074Y00295141
X00679798Y00304923
X00699005Y00303862
X00718934Y00303838
X00739042Y00304099
X00729193Y00293269
X00709085Y00293008
X00689156Y00293032
X00658884Y00254833
X00649148Y0025495
X00706587Y00428739
X00935155Y00304771
X00945214Y00295921
X00955938Y00305703
X00965297Y00293812
X00925306Y00293941
X00985226Y00293787
X01005333Y00294049
X01015182Y00304879
X00995075Y00304618
X00975146Y00304642
X00342959Y0050142
X00249365Y00527209
X00055749Y00511452
T02
X00599021Y00412727
Y00432727
Y00452727
X00619021
Y00432727
Y00412727
Y00472727
Y00492727
Y00512727
Y00532727
Y00552727
Y00572727
Y00592727
X00599021
Y00572727
Y00552727
Y00532727
Y00512727
Y00492727
Y00472727
T03
X00032954Y000976
Y00123
X00058355
X00083755
X00109155
Y000976
X00083755
X00058355
X00134555
Y00123
X00159955
Y000976
X00098404Y00419815
X00185417Y00425782
X00210817
Y00400382
X00185417
Y00451182
X00210817
X0029712Y00417382
X00375085Y0042357
X00400485
Y0039817
X00375085
Y0044897
X00400485
X00495722Y00452956
X00521122
Y00427556
Y00402156
X00495722
Y00427556
X0048745Y00123
X0051285
X0053825
Y000976
X0051285
X0048745
X0046205
Y00123
X0043665
Y000976
X0041125
Y00123
X0038585
X0036045
X0033505
Y000976
X0030965
Y00123
X00261555
X00236154
X00210755
X00185354
Y000976
X00210755
X00236154
X00261555
X0036045
X0038585
X00581575
Y00123
X00606975
X00632375
X00657775
Y000976
X00632375
X00606975
X00683175
Y00123
X00708575
Y000976
X00733975
Y00123
X00759375
Y000976
X00784775
Y00123
X00810175
Y000976
X00858422
X00883822
Y00123
X00858422
X00909222
Y000976
X00934622
X00960022
Y00123
X00934622
X00855283Y00397836
X00829883
Y00423236
Y00448636
X00855283
Y00423236
X00753382Y00418947
X00985422Y00123
X01010822
X01036222
X01061622
X01087022
Y000976
X01061622
X01036222
X01010822
X00985422
X00855283Y00474036
Y00499436
Y00524836
X00829883
Y00550236
X00855283
X00829883Y00499436
Y00474036
X00753382Y00518946
X00521122Y00529156
Y00503756
Y00478356
X00495722
Y00503756
Y00529156
Y00554556
X00521122
Y00579956
X00495722
Y00605356
X00521122
Y00630756
X00495722
X00400485Y0057597
Y0055057
Y0052517
Y0049977
Y0047437
X00375085
Y0049977
Y0052517
Y0055057
Y0057597
X0029712Y00537381
X00210817Y00527382
Y00501982
Y00476582
X00185417
Y00501982
Y00527382
Y00552782
X00210817
X00098404Y00519815
T04
X00955694Y00363197
Y00413997
X00981094Y00388597
X01006494Y00363197
Y00413997
X01001414Y00478413
Y00529213
X00976014Y00503813
X00950614Y00529213
Y00478413
T05
X0109Y0005
X0005
X0109Y0063
X0005
M30
